<svg width="1200" height="900" viewBox="0 0 1200 900" fill="none" xmlns="http://www.w3.org/2000/svg">
<path d="M284.049 89.333C286.552 89.2112 289.134 89.0483 291.609 89.5057C295.325 90.1694 298.622 92.2923 300.764 95.401C305.845 102.878 303.965 112.347 302.353 120.447C317.58 112.634 331.573 101.537 351.205 105.264C369.557 108.748 370.966 123.652 362.025 138.202C359.472 142.355 346.371 152.144 346.052 153.761C346.578 154.231 366.953 162.852 370.389 164.765C410.612 187.159 431.776 221.898 444.092 265.052C452.901 265.033 461.473 265.503 470.403 266.027C483.362 266.788 488.402 272.806 484.187 285.729C482.29 291.544 476.032 289.908 474.326 294.588C472.378 299.933 472.159 307.003 470.901 312.6C469.014 320.488 465.146 328.427 461.795 335.789C472.49 353.807 476.541 369.244 473.29 390.564C469.504 415.4 454.228 440.03 436.024 456.974C432.924 459.859 424.531 465.711 420.867 468.43C419.04 476.812 419.861 489.016 423.359 496.786C426.805 504.446 442.624 513.642 449.597 519.012C461.301 528.209 472.4 538.147 482.826 548.77C495.321 547.687 512.166 544.233 524.818 542.102L601.787 529.122C615.545 526.77 630.737 523.274 644.514 522.643C663.17 521.792 661.787 543.48 663.042 555.438C665.087 574.83 664.591 595.52 667.242 614.52C691.796 616.528 694.698 634.285 686.052 654.185C696.474 667.117 694.943 677.532 686.542 690.794C696.645 719.536 675.619 719.738 673.763 730.956C672.208 740.361 677.988 748.627 673.347 759.066C671.314 763.653 667.53 767.143 662.956 769.127C654.702 772.709 632.531 775.862 622.52 777.84C584.765 785.298 546.878 792.498 509.224 800.421C497.579 802.871 480.583 804.971 469.917 808.951C469.683 809.043 469.453 809.135 469.22 809.226C488.263 809.992 506.012 809.496 524.922 809.52C559.123 809.728 593.325 809.753 627.528 809.6L662.197 809.545C667.493 809.52 681.827 808.51 685.422 811.204C686.028 813.139 686.04 812.172 685.158 814.186C681.846 816.201 639.566 815.778 632.402 815.864C615.827 815.16 598.156 815.729 581.507 815.784L519.647 815.472L468.269 815.405C457.936 815.398 441.935 815.049 431.84 816.17C421.207 817.358 404.513 820.995 393.85 823.15C377.311 826.469 360.735 829.592 344.124 832.525C335.316 834.153 322.787 837.344 314.063 836.45C298.757 834.882 301.202 819.115 295.992 815.692C290.149 814.278 276.428 825.777 269.916 828.973C219.318 853.778 158.158 848.689 107.659 826.451C100.376 823.242 92.8637 816.274 84.7207 815.656C75.7939 814.976 66.5359 815.362 57.6293 815.564C47.6248 815.76 37.6167 815.766 27.6117 815.588C24.3224 815.552 16.4947 815.692 13.8157 814.731C12.7229 813.194 13.0147 814.021 12.8711 812.172L13.8999 811.039C20.2718 808.535 67.4194 809.912 78.9926 809.551C74.1309 803.716 67.4929 798.48 62.5883 792.56C-2.64477 713.921 75.6537 607.931 128.795 546.542C147.663 524.743 163.927 513.447 160.089 481.833C159.889 476.996 156.946 475.606 152.95 473.414C104.269 446.683 79.2106 375.999 117.219 328.754C117.805 322.026 117.665 313.495 118.057 306.484C118.986 286.539 123.263 266.892 130.71 248.365C145.133 211.905 171.708 181.546 205.939 162.426C216.794 156.467 225.371 153.593 236.487 148.869C239.872 140.834 241.85 133.172 245.917 125.033C255.136 106.584 264.775 96.2196 284.049 89.333Z" fill="#12151F"/>
<path d="M285.032 96.1737C312.838 95.881 289.375 130.425 290.099 136.587C293.845 138.69 303.164 127.948 306.369 125.51C317.163 117.299 330.359 110.709 344.208 110.795C352.441 110.846 362.963 115.357 361.368 125.203C358.885 140.934 343.615 145.476 332.854 153.756L333.109 155.605C334.723 157.191 344.859 159.354 349.045 161.011C358.438 164.753 367.424 169.449 375.86 175.024C407.424 195.753 429.558 228.077 437.472 265.001C415.198 265.94 367.185 270.8 353.917 289.154C341.738 285.95 336.374 286.831 325.497 292.526C308.106 280.692 263.501 281.307 241.845 285.032C229.466 287.161 208.062 291.425 196.996 297.881C195.801 298.578 193.53 301.739 192.589 303.031C187.623 304.374 178.919 305.722 176.362 310.44C173.048 316.554 175.632 324.833 182.681 326.77C188.049 328.245 192.621 326.293 197.718 324.752C206.857 328.566 207.121 336.459 211.01 345.137C213.445 350.523 216.552 355.58 220.254 360.188C229.515 371.755 242.628 378.863 257.327 380.26C299.359 384.255 324.144 354.471 328.164 315.311C336.456 305.665 353.584 302.644 356.953 317.895C359.268 328.372 368.777 344.708 377.522 351.216C404.838 371.545 436.404 366.696 457.915 340.962C472.483 365.317 470.955 387.775 460.191 413.473C450.803 435.888 435.964 451.119 416.29 464.719C413.082 475.704 413.671 489.585 418.515 500.019L419.046 501.145C422.039 507.587 436.858 516.71 443.116 521.413C455.138 530.45 465.3 539.433 475.936 550.056C458.692 553.632 437.691 556.583 420.008 559.541L329.763 575.032L297.912 580.396C285.383 582.465 266.363 583.396 265.781 600.871C265.447 610.932 267.569 622.712 268.836 632.864C271.236 652.452 273.747 672.021 276.369 691.584C267.672 693.238 256.601 696.856 247.49 699.005C220.657 705.318 200.482 705.202 173.77 701.644L167.944 700.518C169.577 684.022 173.463 668.641 177.539 652.654C178.886 647.37 185.723 632.803 183.232 628.407C181.267 627.709 182.262 627.77 180.138 628.388C173.164 635.963 163.586 685.89 161.796 699.073C157.985 697.86 150.717 695.001 147.18 697.554L147.406 698.877C151.583 703.653 161.524 705.367 167.758 706.665C186.102 710.364 204.901 711.245 223.51 709.286C232.944 708.221 239.634 706.598 249.224 704.669C267.558 700.977 292.288 689.741 310.289 696.685C313.802 698.356 318.672 702.398 319.556 706.323C324.506 728.304 304.159 733.276 287.857 737.666C285.572 738.285 283.925 739.405 283.012 741.352C286.201 748.033 309.562 736.399 314.377 733.79C317.996 737.758 320.494 741.646 321.054 747.108C321.553 751.964 320.056 756.856 317.57 760.995C307.42 777.907 287.88 776.499 283.573 782.23C282.965 783.038 283.141 782.793 283.375 783.834C289.659 788.053 304.959 779.652 310.791 776.431C310.818 782.426 310.437 786.89 306.955 792.113C292.956 813.084 260.315 829.622 236.628 834.992C190.481 845.016 135.926 837.619 95.5356 812.949C48.0833 783.969 33.707 735.303 50.4376 683.686C68.2611 627.482 107.232 579.784 145.731 536.194C163.544 516.03 170.747 501.427 164.025 473.359C157.193 469.465 151.413 466.422 145.095 461.578C123.451 444.968 109.251 420.474 105.592 393.438C102.506 368.967 108.265 349.49 123.261 330.314C123.1 294.171 127.214 264.652 145.036 232.195C165.608 194.175 200.471 165.91 241.924 153.643C247.627 132.637 260.202 100.08 285.032 96.1737Z" fill="#FEFCF9"/>
<path d="M347.687 345.928C375.709 344.862 378.469 370.695 401.358 379.402C409.476 382.393 418.35 381.367 426.804 381.55C449.704 382.046 450.863 409.093 435.012 420.397C426.558 426.425 419.936 426.414 410.228 425.007C404.238 435.941 402.045 436.139 391.897 442.588C389.381 444.187 384.052 449.575 381.436 451.78C372.27 459.504 362.85 462.154 351.409 464.75C322.659 468.118 306.165 458.171 283.046 444.005C278.637 441.304 269.061 441.485 262.481 437.326C250.557 429.79 248.345 417.563 255.044 405.39C263.579 392.259 279.178 397.896 291.69 393.247C318.281 383.366 317.976 351.641 347.687 345.928Z" fill="#0D141A"/>
<path d="M348.955 351.418C369.509 349.771 378.099 376.012 397.08 383.749C407.199 389.694 421.842 385.131 431.45 387.846C445.508 391.818 440.062 413.638 428.04 418.073C412.979 423.629 402.857 414.27 388.031 415.554C377.55 416.463 368.597 419.809 359.118 423.903C337.78 433.618 319.109 435.255 297.238 426.327C295.032 425.427 283.986 420.818 282.965 418.302C282.677 417.593 284.066 416.683 282.917 413.965L281.094 413.296C279.28 413.949 273.306 419.704 272.088 421.535L272.357 422.48C274.69 423.582 278.418 422.383 279.671 423.13C300.083 435.315 315.867 440.241 340.032 436.167C367.639 429.771 374.619 416.697 405.2 423.134C397.928 436.113 396.419 431.311 388.464 438.102C377.151 447.758 374.604 452.065 359.253 456.962C343.295 462.527 319.262 459.128 304.94 450.158C291.629 441.822 281.4 437.536 266.51 432.655C257.427 429.677 253.892 416.565 260.335 407.995C267.687 398.216 281.797 402.835 292.165 398.838C320.985 390.507 320.17 358.367 348.955 351.418Z" fill="#FEBF28"/>
<path d="M341.949 374.26C347.001 375.589 348.053 380.975 344.582 384.964C340.041 381.89 338.405 378.888 341.949 374.26Z" fill="#0D141A"/>
<path d="M366.443 370.429C371.719 371.448 372.264 374.907 370.058 379.106L368.065 378.778C364.53 376.316 364.788 373.972 366.443 370.429Z" fill="#0D141A"/>
<path d="M380.486 495.371C388.192 495.984 390.654 500.233 392.203 507.911C394.348 518.553 398.566 555.885 382.829 558.298C373 559.804 356.617 550.877 348.559 544.858C340.327 550.815 333.216 551.318 324.874 545.335C315.319 553.81 300.573 563.172 287.449 563.202C280.424 561.072 278.612 555.028 277.636 548.311C270.722 500.753 280.209 480.505 323.953 515.865C332.281 509.473 338.398 510.367 347.432 514.61C354.996 505.78 368.893 497.257 380.486 495.371Z" fill="#12151F"/>
<path d="M528.802 673.16L614.186 580.506C626.401 567.348 643.184 548.195 655.963 536.224C657.188 562.811 659.484 590.493 661.223 617.189C647.409 622.584 638.31 632.062 643.093 648.619C644.176 652.372 647.042 655.477 649.926 658.073C638.445 669.309 636.259 683.349 649.387 694.358C645.297 700.059 642.878 705.037 644.256 712.433C645.174 717.589 648.187 722.132 652.583 724.98C657.886 728.402 662.613 728.598 668.601 728.292C669.048 735.885 670.922 751.688 668.154 757.879L665.607 761.326C662.882 763.726 661.652 764.155 658.063 764.932C645.548 767.645 632.867 770.015 620.296 772.464L568.714 782.818L396.036 817.033L343.491 827.21C334.557 828.93 319.105 833.26 311.02 830.296L307.314 827.357C303.976 821.864 303.651 812.502 302.995 805.926C313.067 796.123 318.814 787.165 315.404 772.623C328.325 759.667 331.689 744.837 318.833 730.16C323.729 724.19 327.159 717.595 326.104 709.69C322.941 686 299.08 688.18 282.197 690.158C278.085 660.351 274.342 630.495 270.969 600.602C312.613 625.082 385.426 667.552 429.928 692.864C430.09 693.17 430.252 693.476 430.414 693.783L430.153 700.2C429.466 756.93 498.764 778.189 527.523 728.935C536.946 712.801 534.154 695.571 528.964 678.297C527.578 675.646 527.24 675.444 528.802 673.16Z" fill="#FEBF28"/>
<path d="M270.969 600.602C312.613 625.082 385.426 667.551 429.928 692.864C430.09 693.17 430.252 693.476 430.414 693.783L430.153 700.2C423.82 704.553 315.774 822.452 311.02 830.296L307.314 827.357C303.976 821.864 303.651 812.502 302.995 805.926C313.067 796.123 318.814 787.165 315.404 772.623C328.325 759.667 331.689 744.837 318.833 730.16C323.729 724.19 327.159 717.595 326.104 709.69C322.941 686 299.08 688.18 282.197 690.158C278.085 660.351 274.342 630.495 270.969 600.602Z" fill="#FEBF28"/>
<path d="M307.312 827.357C309.877 824.981 312.266 822.44 314.567 819.813C326.044 806.704 337.812 793.87 349.535 780.987C376.076 751.535 403.038 722.463 430.413 693.783L430.152 700.2C423.818 704.553 315.773 822.452 311.018 830.296L307.312 827.357Z" fill="#CF7701"/>
<path d="M528.802 673.16L614.186 580.506C626.401 567.348 643.184 548.195 655.963 536.224C657.188 562.811 659.484 590.493 661.223 617.189C647.409 622.584 638.311 632.062 643.093 648.619C644.176 652.372 647.042 655.477 649.926 658.073C638.445 669.309 636.259 683.349 649.387 694.358C645.297 700.059 642.878 705.037 644.256 712.433C645.174 717.589 648.187 722.132 652.583 724.98C657.886 728.402 662.613 728.598 668.601 728.292C669.048 735.885 670.922 751.688 668.154 757.879L665.607 761.326C641.237 745.853 615.349 730.827 590.698 715.556L555.141 693.905C548.144 689.607 535.97 681.8 528.964 678.297C527.578 675.646 527.24 675.444 528.802 673.16Z" fill="#FEBF28"/>
<path d="M528.802 673.16C534.666 677.201 543.028 681.751 549.37 685.535C562.553 693.385 575.684 701.32 588.757 709.341L639.345 740.354C647.918 745.633 659.594 753.409 668.154 757.879L665.607 761.326C641.237 745.853 615.349 730.827 590.698 715.556L555.141 693.905C548.144 689.607 535.97 681.8 528.964 678.297C527.578 675.646 527.24 675.444 528.802 673.16Z" fill="#CF7701"/>
<path d="M641.587 528.491C642.285 528.399 642.983 528.326 643.687 528.283C648.365 527.995 650.251 529.758 653.643 532.704C610.372 578.112 567.725 624.121 525.721 670.711C519.974 662.396 518.187 661.869 508.102 662.659C506.073 648.98 506.734 636.171 494.941 626.454C488.442 621.102 480.007 618.696 471.66 619.81C463.73 620.802 456.523 624.917 451.631 631.236C442.012 643.702 445.591 658.324 447.616 672.695C436.739 674.519 434.285 678.444 431.528 689.001C411.557 677.997 391.09 665.831 371.338 654.338C345.15 639.728 319.47 623.833 293.377 609.04C286.24 604.992 278.956 600.767 272.051 596.347C274.853 593.242 277.036 590.548 281.396 589.44C289.329 587.413 297.488 586.856 305.543 585.392C333.674 580.292 361.869 575.522 390.04 570.636L528.62 547.356C566.166 541.049 604.004 534.369 641.587 528.491Z" fill="#FEBF28"/>
<path d="M263.18 297.067C268.775 296.198 276.878 296.686 282.683 296.958C279.695 304.382 270.016 320.628 265.691 327.96C259.685 338.145 251.408 353.842 244.614 363.107C242.923 363.92 243.431 363.638 240.986 362.789C220.073 349.504 205.925 307.59 239.05 301.35C247.897 299.683 254.044 298.032 263.18 297.067Z" fill="#29313A"/>
<path d="M417.553 280.539C420.637 280.221 425.901 280.224 429.156 280.125C425.374 287.419 419.702 296.435 415.451 303.698L390.291 346.849L385.627 343.154C376.837 335.016 371.148 324.075 369.536 312.206C368.773 306.294 369.329 300.29 373.201 295.555C380.568 286.549 406.76 281.623 417.553 280.539Z" fill="#29313A"/>
<path d="M472.838 631.26C494.881 629.478 493.911 649.433 496.537 664.741L476.745 668.029L459.155 670.852C457.18 653.597 450.929 638.173 472.838 631.26Z" fill="#FEBF28"/>
<path d="M679.851 658.171L680.904 658.03C686.47 661.392 688.809 671.219 687.285 677.336C685.938 682.596 682.49 687.066 677.751 689.711C670.863 693.611 663.166 693.348 655.775 691.419C641.582 683.796 643.866 669.088 655.959 660.571C664.562 662.378 671.701 660.694 679.851 658.171Z" fill="#FEFCF9"/>
<path d="M667.881 620.821C683.794 618.347 689.642 638.002 681.48 649.054C677.494 654.461 672.357 654.877 666.227 655.71C651.612 655.679 642.935 648.074 649.916 632.418C653.057 625.382 660.949 622.939 667.881 620.821Z" fill="#FEFCF9"/>
<path d="M680.932 694.248C689.45 711.913 672.299 730.129 654.579 719.567C648.07 712.85 647.831 704.241 654.15 697.316C664.461 699.324 671.325 699.275 680.932 694.248Z" fill="#FEFCF9"/>
<path d="M480.785 688.768C494.267 688.4 498.889 700.42 489.774 710.621C490.702 718.305 495.065 727.563 486.561 731.2C477.968 729.902 479.592 719.75 479.105 712.464L478.622 712.243C466.328 706.531 467.701 693.066 480.785 688.768Z" fill="#FEBF28"/>
<path d="M759.374 549.322C788.306 548.917 818.143 549.279 847.13 549.273L1013.59 549.23L1100.42 549.315C1112.52 549.285 1136.55 548.519 1147.5 549.536C1153.41 550.075 1159.09 552.101 1164 555.432C1171.4 560.514 1176.42 568.383 1177.92 577.23C1179.13 584.027 1178.61 597.963 1178.56 605.329L1178.52 644.896L1178.55 686.594C1178.55 691.217 1178.41 696.201 1178.55 700.781C1179.21 721.808 1168.17 735.842 1147.08 738.903L887.824 738.958L802.119 739.014C790.296 739.026 778.454 739.118 766.636 739.154C757.262 739.185 749.792 739.026 741.74 733.595C723.952 721.612 726.634 703.347 726.726 684.892L726.824 643.359L726.775 604.202C726.738 596.898 726.396 585.741 727.302 578.822C728.006 573.079 730.167 567.605 733.572 562.921C740.289 553.853 748.775 550.748 759.374 549.322Z" fill="#CCCACB"/>
<path d="M758.401 551.14C765.479 550.779 775.007 551.073 782.318 551.073L828.724 551.085L970.467 551.091L1090.67 551.097C1106.15 551.122 1132.14 550.136 1146.92 551.207C1152.46 551.587 1157.79 553.424 1162.38 556.534C1179.59 568.205 1176.89 585.196 1176.91 603.272L1176.92 647.186L1177.02 685.841C1177.04 700.365 1178.94 716.132 1167.75 727.429C1161.71 733.521 1156.26 735.854 1147.94 737.128C1122.73 738.322 1090.18 737.464 1064.59 737.434L923.295 737.428L814.831 737.415C796.18 737.428 777.083 737.66 758.432 737.177C753.252 737.048 746.676 734.911 742.451 731.88C735.176 726.761 730.321 718.887 729.011 710.088C728.031 703.69 728.404 693.078 728.435 686.392L728.521 649.715L728.453 604.968C728.441 597.1 728.055 588.442 728.833 580.653C730.498 564.09 742.028 553.155 758.401 551.14Z" fill="#12151F"/>
<path d="M793.525 595.061C820.577 591.399 845.449 610.417 849.025 637.481C852.594 664.545 833.503 689.362 806.426 692.846C779.473 696.312 754.791 677.324 751.233 650.383C747.682 623.441 766.59 598.698 793.525 595.061Z" fill="#8256FD"/>
<path d="M810.614 617.691C811.544 617.636 812.481 617.655 813.412 617.74C816.639 618.04 821.666 620.03 823.576 622.798C830.973 633.507 819.106 644.474 811.25 650.578C806.021 654.644 798.325 655.018 795.024 648.503C794.106 646.69 793.99 645.864 794.571 643.996L795.986 643.378C798.202 643.782 798.814 644.957 800.223 646.592C803.113 649.188 804.925 648.252 808.348 646.047C815.145 641.682 828.481 626.025 812.848 623.41C809.456 622.841 803.909 628.933 801.282 631.438C799.47 630.164 798.27 629.833 797.639 628.15C799.911 623.943 806.205 619.547 810.614 617.691Z" fill="#FEFCF9"/>
<path d="M793.963 633.587C798.739 633.593 805.297 636.11 806.877 640.941C804.023 647.786 800.717 638.559 796.467 639.11C791.82 639.71 779.09 653.37 781.074 657.932C785.875 668.966 792.873 663.847 798.31 656.842L799.137 656.261C801.703 656.493 802.254 656.738 802.56 659.114C800.588 663.994 791.844 670.907 787.105 669.652C762.025 663.027 781.956 639.404 793.963 633.587Z" fill="#FEFCF9"/>
<path d="M904.114 660.602C910.666 660.62 930.064 659.04 922.44 673.399C921.779 674.648 922.018 673.999 922.367 675.444C926.273 679.436 926.598 680.067 924.62 685.425C918.711 690.856 912.031 689.478 903.961 689.307L904.114 660.602Z" fill="#8256FD"/>
<path d="M909.641 677.061C912.892 677.061 916.866 676.436 919.12 679.032C919.854 681.236 919.469 681.769 918.764 683.973C915.342 684.494 913.321 685.216 910.462 683.765C909.219 681.892 909.592 679.412 909.641 677.061Z" fill="#12151F"/>
<path d="M909.652 665.408C912.726 665.341 915.543 664.894 917.845 666.902C918.745 668.954 918.365 669.56 917.814 671.74C915.041 672.217 912.781 672.805 910.369 671.697C909.187 669.964 909.579 667.619 909.652 665.408Z" fill="#12151F"/>
<path d="M884.303 660.639L890.732 660.682C893.867 669.45 897.118 678.573 900.7 687.151C901.135 688.192 901.067 687.451 900.731 688.866C898.728 689.699 898.251 689.478 896.132 689.178C893.089 686.276 895.44 683.373 891.405 682.48C888.368 682.473 885.098 682.265 882.049 682.124C881.174 685.204 881.033 687.28 878.682 689.099C876.655 689.337 876.673 689.484 874.8 688.805C874.34 685.725 882.662 664.998 884.303 660.639Z" fill="#8256FD"/>
<path d="M887.304 667.711C889.129 669.535 890.366 674.14 890.268 676.773L888.805 677.869C887.127 677.722 886.074 677.844 884.837 676.754C884.414 675.04 884.525 674.948 885.174 673.283L887.304 667.711Z" fill="#12151F"/>
<path d="M937.837 660.639C938.798 660.565 939.765 660.51 940.733 660.473C945.613 660.284 952.373 662.433 952.562 668.164C950.897 669.603 951.405 669.15 948.791 669.431C945.986 667.637 940.084 663.712 936.838 666.235C928.107 673.019 937.935 691.548 946.433 682.118L947.94 680.226C950.242 679.406 949.121 679.461 951.424 679.902C957.449 687.678 935.063 695.907 928.872 681.677C927.17 677.685 927.115 673.191 928.719 669.162C930.666 664.239 933.232 662.567 937.837 660.639Z" fill="#8256FD"/>
<path d="M977.517 660.596C982.697 660.253 990.486 660.767 990.235 667.943C990.002 674.636 983.83 679.792 979.378 684.17C983.573 684.016 988.208 683.098 991.361 686.227L991.122 687.323C987.179 690.189 984.154 689.411 979.121 689.288C976.433 689.368 974.449 689.766 972.221 688.431C968.81 682.571 983.444 676.822 984.828 668.446C984.05 666.174 984.687 667.16 982.617 665.555C979.238 665.353 974.792 670.687 971.418 668.856C971.376 664.38 974.094 662.653 977.517 660.596Z" fill="#8256FD"/>
<path d="M1073.67 614.544C1073.84 614.544 1074.78 614.532 1075.01 614.605C1078.18 615.787 1082.53 614.134 1085.62 614.961C1090.96 616.387 1092.38 622.131 1090.38 626.778C1088.71 630.66 1087.44 631.321 1083.8 632.815C1081.32 632.209 1080.53 631.628 1078.25 630.366C1078.26 633.189 1078.64 637.095 1077.09 639.238C1074.54 639.177 1075.31 639.698 1073.94 638.455C1073.24 632.123 1073.6 621.255 1073.67 614.544Z" fill="#FEFCF9"/>
<path d="M1080.58 618.065C1087.93 618.371 1088.47 624.188 1083.89 628.597C1076.66 627.862 1076.58 622.853 1080.58 618.065Z" fill="#12151F"/>
<path d="M983.058 606.933C984.442 606.964 985.458 607.105 986.824 607.27C988.097 609.609 987.295 628.119 986.903 631.303C982.856 631.462 978.227 632.32 974.81 631.964C966.495 625.737 969.581 609.664 982.587 616.155C983.456 614.14 983.083 609.438 983.058 606.933Z" fill="#FEFCF9"/>
<path d="M977.019 618.083C984.33 618.524 984.716 623.851 980.497 628.64C972.978 628.382 973.193 622.927 977.019 618.083Z" fill="#12151F"/>
<path d="M1093.94 614.367C1098.32 614.887 1101.59 614.875 1105.94 614.967C1107.79 615.53 1110.37 617.845 1110.8 619.62C1112.47 626.613 1109.17 630.672 1103.22 632.846L1098.77 631.101C1097.73 632.564 1098.9 636.177 1097.9 639.079C1096.23 639.741 1096.28 639.594 1094.49 639.183C1093.7 637.885 1093.95 617.545 1093.94 614.367Z" fill="#FEFCF9"/>
<path d="M1100.68 618.12C1107.95 618.445 1108.41 623.71 1104.51 628.633C1097.42 627.788 1096.39 623.361 1100.68 618.12Z" fill="#0D141A"/>
<path d="M901.744 627.348C903.22 626.601 902.46 626.711 904.083 627.231L904.604 628.26C900.93 637.426 886.675 630.887 889.516 620.796C893.209 607.692 909.526 617.557 905.614 624.004C902.228 625.272 898.572 623.833 893.558 624.978C895.701 625.008 899.411 624.715 901.034 625.853L901.744 627.348Z" fill="#FEFCF9"/>
<path d="M893.555 624.978C895.698 625.008 899.408 624.715 901.031 625.853L901.741 627.348C899.58 628.535 899.163 628.823 896.769 628.566C894.73 627.415 894.663 626.992 893.555 624.978Z" fill="#0D141A"/>
<path d="M896.802 617.281C898.877 617.863 900.984 618.598 901.388 620.937L899.973 621.659C897.953 621.653 896.25 621.849 894.426 621.047C894.53 619.124 895.148 619.137 896.802 617.281Z" fill="#0D141A"/>
<path d="M951.413 626.588C951.86 626.705 953.048 627.25 953.526 627.452L953.899 628.633C952.564 631.45 949.478 632.528 946.515 632.338C944.311 632.197 942.272 631.125 940.906 629.387C937.14 624.678 938.665 618.922 943.374 615.389C948.744 611.366 957.849 619.339 955.21 624.035C951.713 625.358 948.358 623.778 943.453 624.917C946.05 625.027 949.748 624.586 951.413 626.588Z" fill="#FEFCF9"/>
<path d="M943.453 624.917C946.049 625.027 949.748 624.586 951.413 626.588C949.411 628.542 948.511 629.044 945.59 628.419C943.563 626.576 944.304 627.672 943.453 624.917Z" fill="#0D141A"/>
<path d="M946.448 617.489C948.947 618.224 949.302 618.445 950.979 620.226L950.894 621.194L949.271 621.684C947.281 621.726 945.53 622.039 943.883 621.077C944.183 619.1 944.673 619.247 946.448 617.489Z" fill="#0D141A"/>
<path d="M1059.13 614.661C1061.07 614.489 1063.84 614.116 1065.57 615.016C1071.05 617.869 1072.15 626.582 1069.33 631.383C1063.82 631.628 1060.4 633.024 1056.14 630.764C1051.6 621.414 1060.74 623.208 1065.06 619.932L1064.59 618.837C1063.08 618.555 1058.23 619.412 1055.79 619.437L1055.18 618.683C1056.1 616.706 1057.39 616.001 1059.13 614.661Z" fill="#FEFCF9"/>
<path d="M1028.8 606.682C1029.7 606.713 1032.05 606.707 1032.43 607.454C1034.14 610.883 1033.27 617.698 1033.24 621.525C1036.1 618.096 1037.35 615.683 1041.79 614.997L1042.44 615.842C1041.77 618.2 1039.33 620.22 1037.53 622.051L1042.43 628.254C1043.58 629.319 1044.23 629.674 1044.7 631.138L1043.79 632.332C1039.65 632.84 1035.87 626.111 1033.44 622.994C1033.26 626.037 1033.68 629.087 1032.36 631.701L1031.28 631.989L1030.06 631.15C1027.75 626.374 1028.71 612.597 1028.8 606.682Z" fill="#FEFCF9"/>
<path d="M961.234 661.728C963.334 660.981 964.467 660.308 966.61 660.822C967.676 663.633 967.382 685.118 966.825 688.707C965.129 689.766 966.078 689.405 963.739 689.374C962.679 688.755 961.614 688.425 961.626 686.833C961.693 680.195 961.859 673.742 961.516 667.117C959.489 668.568 958.301 669.688 956.072 669.425C954.248 665.659 958.577 663.32 961.234 661.728Z" fill="#8256FD"/>
<path d="M961.516 667.117C959.489 668.568 958.301 669.689 956.072 669.425C954.248 665.66 958.577 663.321 961.234 661.729C962.41 665.66 961.038 664.098 961.516 667.117Z" fill="#8256FD"/>
<path d="M1006.61 669.958C1007.14 671.874 1007.14 672.627 1009.26 673.883L1009.18 674.158C1011.99 676.95 1013.9 681.561 1012.16 685.455C1009.35 691.768 994.702 690.458 992.785 683.465C993.312 681.622 992.797 682.32 994.316 681.261C997.273 681.359 1009.24 689.686 1006.98 678.628C1004.08 675.94 1001.66 678.989 999.71 675.187C1000.15 673.087 999.698 673.999 1001.2 672.382C1003.99 672.033 1004.46 671.764 1006.61 669.958Z" fill="#8256FD"/>
<path d="M991.305 614.391C991.961 614.452 992.622 614.514 993.277 614.575C997.288 615.003 994.483 624.457 996.951 628.535L998.329 628.866C1006.69 625.449 999.596 618.683 1003.89 614.716C1006.16 614.654 1005.27 614.275 1006.78 615.542L1006.81 618.738C1006.85 621.751 1007.41 629.699 1006.09 631.842C1003.91 632.087 1004.43 631.885 1002.06 630.55C989.438 638.608 991.085 620.998 991.305 614.391Z" fill="#FEFCF9"/>
<path d="M1014.84 614.642C1020.55 614.177 1022.21 613.895 1025.76 618.739L1025.36 619.522C1021.61 619.547 1016.41 617.992 1013.73 620.618C1013 623.772 1014.45 626.815 1017.29 628.376C1019.51 628.646 1020.04 628.15 1022.03 627.139C1022.25 626.564 1022.06 626.962 1022.93 626.16L1024.51 626.57L1025.07 627.764C1022.1 640.071 999.281 626.686 1014.84 614.642Z" fill="#FEFCF9"/>
<path d="M877.399 614.667C880.944 614.232 882.236 614.312 885.469 615.867C886.492 617.483 886.327 616.626 885.935 618.543C882.916 620.116 881.845 616.522 878.189 618.763C878.085 621.035 883.896 621.935 886.963 625.449C887.998 629.325 885.408 630.654 882.249 632.301C879.157 632.393 875.079 632.032 873.254 629.154L873.529 627.948C876.364 626.882 878.881 628.437 882.512 627.739L882.518 626.894C879.359 623.245 873.903 624.017 873.468 619.081C874.607 616.608 875.158 616.418 877.399 614.667Z" fill="#FEFCF9"/>
<path d="M913.89 614.575C918.14 614.103 922.769 614.269 924.404 619.008L923.571 620.061C919.769 620.875 920.381 619.681 915.672 618.212C914.717 618.414 913.774 618.347 913.468 619.143C910.921 625.664 913.26 630.789 920.467 627.286C920.669 626.674 920.491 627.09 921.299 626.196L922.903 626.533L923.583 627.635C920.975 640.647 897.132 625.896 913.89 614.575Z" fill="#FEFCF9"/>
<path d="M960.684 609.456C962.338 609.646 962.258 609.603 963.74 610.332C963.911 612.285 963.819 612.511 964.64 614.342C966.158 614.587 965.981 614.532 967.469 615.034C967.916 618.653 961.376 621.476 964.879 627.739C966.703 628.199 966.703 628.089 968.161 629.221L968.504 632.056C956.784 633.005 961.382 626.343 959.313 618.684C957.531 618.249 958.1 618.616 956.821 617.489L956.809 615.512C958.07 614.379 957.813 614.612 959.46 614.22C959.839 611.893 959.852 611.617 960.684 609.456Z" fill="#FEFCF9"/>
<path d="M1006.61 669.958C1006.17 667.809 1006.17 667.466 1004.64 665.727C1000.48 664.22 999.394 668.421 995.071 668.862L993.62 668.292C990.595 655.226 1022.1 660.534 1009.26 673.883C1007.15 672.627 1007.14 671.874 1006.61 669.958Z" fill="#8256FD"/>
<path d="M1143.44 606.419C1145.52 606.688 1145.48 606.352 1146.9 607.478C1146.08 611.936 1139.79 627.905 1137.94 632.864C1135.97 632.607 1135.98 632.65 1134.17 631.854C1134.58 628.315 1141.89 610.583 1143.44 606.419Z" fill="#FEFCF9"/>
<path d="M1121.55 606.774C1123.49 607.105 1124.11 606.829 1125.17 607.962C1122.79 615.659 1118.93 625.094 1115.99 632.772C1115 632.632 1113.92 632.423 1112.92 632.246L1112.5 631.413C1113.78 626.141 1119.36 612.677 1121.55 606.774Z" fill="#FEFCF9"/>
<path d="M927.504 614.41C933.284 614.722 929.592 616.198 937.184 614.489L937.962 615.034C937.221 619.29 933.517 618.077 931.82 622.559C931.857 625.186 932.353 629.693 930.951 631.634C928.667 631.848 929.647 632.093 927.816 631.26C927.057 627.439 927.442 618.671 927.504 614.41Z" fill="#FEFCF9"/>
<path d="M1127.6 614.293C1129.14 614.459 1129.36 614.459 1130.82 614.93C1132.76 617.918 1131.83 628.174 1131.78 632.124C1130.62 631.983 1129.73 631.811 1128.58 631.597C1126.4 628.695 1127.48 618.316 1127.6 614.293Z" fill="#FEFCF9"/>
<path d="M1048.09 627.097C1049.42 626.343 1051.11 626.809 1051.87 628.144C1052.62 629.472 1052.15 631.168 1050.81 631.915C1049.48 632.662 1047.8 632.197 1047.05 630.868C1046.29 629.54 1046.76 627.856 1048.09 627.097Z" fill="#FEFCF9"/>
<path d="M852.065 56.2527C864.311 56.1168 866.16 69.6297 869.595 78.6906C871.426 83.5303 872.969 88.7024 874.678 93.6162L892.049 141.974C898.006 158.86 897.774 164.231 879.178 170.46C869.62 173.662 859.15 177.378 849.653 180.852C816.454 193.158 783.156 205.174 749.749 216.901C743.92 216.689 739.328 215.136 736.854 209.356C731.808 197.597 728.018 185.161 723.751 173.07C718.093 157.516 712.833 141.654 707.231 126.101C699.938 105.87 719.581 103.782 734.539 98.4497L768.271 86.1393L818.964 67.7114C829.545 63.8747 841.362 59.3063 852.065 56.2527Z" fill="#EABB83"/>
<path d="M852.765 59.8904C854.687 59.853 854.681 59.6975 856.316 60.63C857.173 63.4907 849.728 74.0297 847.695 77.6105L825.211 117.224C820.582 125.522 813.675 140.463 806.75 146.318C802.372 150.016 784.762 142.027 779.19 139.953C765.756 134.803 752.23 129.893 738.619 125.227C733.5 123.201 712.082 116.523 709.914 114.172L710.398 112.838C714.163 109.058 726.293 105.536 731.841 103.502L765.897 91.0261C794.161 80.7069 824.323 69.228 852.765 59.8904Z" fill="#FEFCF9"/>
<path d="M821.04 131.826C844.192 139.684 868.739 149.084 891.78 157.532C890.917 158.979 888.994 162.356 887.512 162.976C878.285 166.826 867.716 170.474 858.391 173.823C837.413 181.331 816.479 188.945 795.575 196.663C788.613 199.106 750.05 214.432 746.033 212.235C745.898 208.604 753.503 197.06 755.72 193.009L782.282 145.12C806.192 154.556 809.1 154.43 821.04 131.826Z" fill="#FEFCF9"/>
<path d="M708.844 118.447C714.759 120.101 723.631 123.645 729.717 125.779C746.213 131.606 762.647 137.599 779.02 143.758C770.846 158.089 762.867 172.731 754.877 187.174C750.156 194.778 746.17 203.132 741.553 210.999C738.632 204.961 733.269 188.19 730.758 181.06L708.844 118.447Z" fill="#FEFCF9"/>
<path d="M859.487 64.4595C861.397 66.0747 888.724 144.554 891.859 153.599C883.428 150.721 874.77 147.421 866.382 144.348L822.871 128.651C834.266 107.648 847.431 85.129 859.487 64.4595Z" fill="#FEFCF9"/>
<path d="M1049.74 239.273C1052.2 239.309 1053.65 239.506 1056 240.47C1079.71 250.191 1103.43 260.408 1127 270.42L1155.55 282.509C1160.42 284.576 1165.23 286.6 1169.99 288.917C1174.73 291.23 1176.99 298.812 1175.12 303.471C1164.77 329.328 1154.65 355.432 1143.8 381.057C1142.41 384.332 1138.13 385.924 1134.98 386.59L1133.92 386.473C1127.66 385.825 1099.9 373.553 1092.7 370.52L1042.71 349.283C1033.16 345.257 1023.38 341.516 1014.33 336.631C1008.9 333.698 1006.49 328.346 1008.47 322.496C1011 314.998 1014.63 307.022 1017.69 299.706C1024.41 283.629 1031.24 267.598 1038.18 251.615C1041.77 243.553 1041.93 242.264 1049.74 239.273Z" fill="#EABB83"/>
<path d="M1048.68 242.9C1054.87 242.793 1069.43 250.321 1076.16 253.177L1124.6 273.636L1151.52 285.089C1155.7 286.844 1169.99 291.762 1171.12 295.62C1168.46 297.825 1155.39 301.435 1151.4 302.652C1141.5 306.387 1096.52 322.616 1088.86 321.596C1083.78 318.195 1080 309.428 1077.4 303.899C1068.03 284.015 1057.71 264.583 1048.33 244.724C1048.44 244.116 1048.57 243.508 1048.68 242.9Z" fill="#FEFCF9"/>
<path d="M1074.83 308.53C1078.41 309.039 1079.31 321.505 1086.38 324.163C1093.97 327.009 1100.5 323.686 1107.57 320.93C1112.33 330.475 1136.16 375.387 1137.12 382.012L1136.48 382.586C1129.84 383.084 1103.77 370.773 1096.23 367.541C1069.75 356.838 1043.69 344.757 1017.09 334.367C1014.88 333.503 1012.98 331.669 1012.32 329.417C1014.03 327.217 1068.26 310.44 1074.83 308.53Z" fill="#FEFCF9"/>
<path d="M1045.02 246.424C1047.18 250.072 1051.5 259.391 1053.56 263.514C1060.48 277.289 1067.26 291.131 1073.9 305.038C1060.67 308.904 1046.57 313.615 1033.46 317.934L1011.58 325.017C1020.43 302.841 1034.62 267.017 1045.02 246.424Z" fill="#FEFCF9"/>
<path d="M1170.93 299.958L1171.89 300.711C1171.75 303.618 1143.77 371.358 1140.48 379.399C1137.49 373.783 1134.11 366.221 1131.24 360.35L1111.24 319.816C1131.27 313.735 1151.08 305.927 1170.93 299.958Z" fill="#FEFCF9"/>
<path d="M579.207 199.105C583.303 199.464 583.646 200.189 584.999 204.006C586.861 209.249 587.712 214.631 591.508 218.952C595.353 223.333 606.73 223.219 607.722 229.068C605.334 233.549 597.043 233.139 592.721 237.075C586.138 243.071 587.02 252.404 582.642 257.933C574.912 257.098 576.978 244.586 571.6 238.805C566.938 233.794 556.945 233.568 554.57 228.505C554.622 227.944 554.673 227.385 554.725 226.825C558.562 223.838 565.778 222.792 569.533 219.813C576.941 213.937 575.57 205.329 579.207 199.105ZM567.183 228.641C577.86 234.073 575.108 233.895 581.209 242.487C585.146 235.153 586.628 233.187 593.97 229.203L594.827 228.729L595.347 228.452C587.283 224.905 584.999 221.142 581.062 213.359C577.689 221.693 575.266 224.214 567.183 228.641Z" fill="#FEBF28"/>
<path d="M35.5296 431.755C42.5925 432.621 41.8143 440.561 44.4319 446.487C48.1461 454.894 52.9448 453.829 60.4382 457.239C62.4943 458.175 62.8525 458.887 63.5327 460.88C62.3816 465.619 53.1811 464.781 48.8478 468.644C42.1878 474.584 43.2122 482.415 39.0889 489.346C37.906 489.487 37.4075 489.444 36.2135 489.426C31.6592 486.671 32.6903 476.433 28.6981 471.4C25.1553 466.936 15.8532 465.736 12.2349 461.217C11.4665 455.787 21.0722 456.486 25.993 452.332C33.8605 445.691 31.3065 437.584 35.5296 431.755ZM24.0175 460.715C29.8303 463.862 32.8887 464.866 35.3018 471.394C35.7023 472.477 36.9091 475.557 37.5092 476.414C40.5548 467.309 42.4566 465.301 51.1672 460.697C42.685 456.154 41.4255 453.914 37.1724 445.334C34.7942 453.274 31.1473 456.757 24.0175 460.715Z" fill="#FEBF28"/>
<path d="M646.358 324.028C647.852 324.129 648.146 324.244 649.621 324.575C653.387 327.448 653.742 332.417 654.912 337.267C658.812 339.352 667.096 340.18 667.513 345.279C664.819 349.279 660.19 349.974 655.561 351.885C653.865 356.128 652.622 361.949 650.007 365.545C648.764 365.524 647.87 365.396 646.627 365.262C643.315 363.276 643.235 357.827 641.037 353.096L640.682 352.352C636.781 350.543 627.946 348.544 628.631 343.429C631.791 339.646 635.985 339.244 640.847 337.991C642.194 333.639 643.621 327.389 646.358 324.028Z" fill="#8256FD"/>
<path d="M966.89 470.365C969.021 470.53 969.235 470.359 970.925 471.693C973.828 476.488 972.756 485.268 972.615 491.25C975.897 487.246 982.02 477.749 987.292 478.619C989.037 480.67 988.529 479.543 989.019 482.066C987.598 485.715 973.405 503.007 970.197 505.872C964.802 505.376 956.414 491.306 952.44 487.338C950.156 485.06 948.588 482.99 949.489 479.788C954.938 475.208 962.212 486.995 965.708 491.122C965.445 485.305 964.312 475.306 966.89 470.365Z" fill="#FEBF28"/>
<path d="M561.131 392.006C562.639 392.292 562.789 392.387 564.249 392.9C567.085 395.718 567.984 400.743 569.095 404.71L573.839 406.344C576.761 407.334 576.902 407.192 579.143 409.306C581.249 414.657 573.006 416.346 568.985 417.862C567.657 421.836 566.569 426.881 564.214 430.108C558.589 429.656 557.971 422.618 556.212 417.665C551.943 415.727 548.995 415.845 546.114 412.111C545.279 407.196 552.445 406.131 556.278 404.883C557.503 400.571 558.636 395.67 561.131 392.006Z" fill="#FB858B"/>
<path d="M956.776 438.482C962.88 439.907 966.83 450.581 967.797 456.056C968.128 457.944 967.173 458.639 966.125 459.996L964.356 459.582C961.674 457.601 957.247 446.241 955.716 442.782C954.896 440.924 955.888 439.973 956.776 438.482Z" fill="#FEBF28"/>
<path d="M929.57 415.246C934.395 416.376 944.841 422.198 947.621 426.507C947.768 428.811 947.823 427.985 946.304 430.296C943.126 429.54 931.052 421.951 928.407 419.677C927.996 417.329 928.247 417.896 929.57 415.246Z" fill="#FEBF28"/>
<path d="M948.346 212.294C950.777 213.07 949.865 212.394 951.408 214.065L951.224 215.66C948.45 218.954 937.49 222.775 933.02 224.566C930.914 224.321 930.081 224.155 929.879 222.022C931.593 218.318 943.95 214.062 948.346 212.294Z" fill="#FEBF28"/>
<path d="M859.158 398.777C864.13 398.919 875.856 399.312 879.052 402.645C879.573 404.884 879.469 404.093 878.403 406.617C873.566 406.138 861.448 405.679 858.43 402.881C857.824 400.573 857.903 401.452 859.158 398.777Z" fill="#FEBF28"/>
<path d="M895.112 404.412C900.219 405.111 912.122 406.568 915.043 410.469C915.184 412.729 915.306 411.574 913.892 413.967C908.632 412.94 897.378 411.522 894.084 408.364C893.735 406.121 893.814 406.862 895.112 404.412Z" fill="#FEBF28"/>
<path d="M982.469 196.198C984.905 197.435 985.365 197.6 985.065 200.132C982.119 203.95 972.794 207.664 968.085 209.856C965.783 209.198 965.097 208.969 965.134 206.643C967.369 203.27 977.362 199.355 981.82 196.605L982.469 196.198Z" fill="#FEBF28"/>
<path d="M913.554 226.978C915.422 227.261 915.318 227.178 916.818 228.298L916.989 229.834C915.312 233.034 903.415 237.801 899.416 239.629C897.983 239.828 898.688 239.802 897.145 239.191C896.018 237.611 896.238 238.475 896.563 236.496C899.526 232.774 908.864 229.112 913.554 226.978Z" fill="#FEBF28"/>
<path d="M804.46 311.791C807.307 312.359 806.615 311.78 808.097 313.627C808.495 317.422 802.941 328.498 800.871 332.592C792.385 330.612 801.661 315.879 804.46 311.791Z" fill="#FEBF28"/>
<path d="M1010.43 173.479C1012.71 174.33 1013.05 174.911 1013.41 177.047C1011.79 182.026 1004.18 187.923 1000.02 191.194C997.9 190.479 997.919 190.423 997.129 188.661C998.041 184.86 1007.06 177.012 1010.43 173.479Z" fill="#FEBF28"/>
<path d="M824.807 389.656C828.793 390.344 840.543 393.898 843.494 396.591C844.394 398.914 844.211 397.666 843.439 400.517C837.916 400.157 828.768 397.763 824.5 393.975C823.649 391.695 823.858 392.523 824.807 389.656Z" fill="#FEBF28"/>
<path d="M880.501 243.437C882.718 243.562 883.643 243.578 884.249 245.671C882.969 249.15 872.437 254.669 868.862 256.827C867.074 257.337 866.351 256.967 865.047 255.94V254.561C867.557 250.514 876.111 246.03 880.501 243.437Z" fill="#FEBF28"/>
<path d="M824.805 285.447L826.825 286.163C827.474 286.917 828.105 287.295 828.007 288.081C827.499 292.064 819.055 300.118 816.171 303.173C814.04 302.709 813.538 302.107 813.012 300.21C814.12 295.564 821.241 289.131 824.805 285.447Z" fill="#FEBF28"/>
<path d="M1016.77 141.457C1023.9 143.239 1022.52 158.28 1019.78 163.167L1017.21 162.433C1016.92 162.014 1016.37 161.294 1016.37 160.816C1016.44 155.254 1014.06 146.131 1016.77 141.457Z" fill="#FEBF28"/>
<path d="M959.433 113.184L960.272 113.124C964.803 112.838 975.855 112.843 979.357 115.954C980.074 118.176 979.927 116.995 979.192 119.666C974.392 119.364 962.39 119.41 959.298 116.972C958.521 115.022 958.747 115.673 959.433 113.184Z" fill="#FEBF28"/>
<path d="M851.416 262.331C853.418 263.114 853.908 263.589 854.208 265.538C852.365 269.791 844.258 274.841 840.217 277.729C837.865 277.256 837.639 276.58 837.59 274.51C839.647 270.419 847.448 265.263 851.416 262.331Z" fill="#FEBF28"/>
<path d="M994.281 120.165C999.742 120.262 1007.76 125.346 1010.91 129.76C1011.33 132.308 1011.38 131.013 1010.26 133.737C1006.92 133.319 996.516 126.038 993.815 123.208C993.374 122.742 994.103 120.825 994.281 120.165Z" fill="#FEBF28"/>
<path d="M935.492 113.368C939.233 113.045 942.044 112.227 944.959 114.484C945.62 119.048 938.278 118.517 935.192 118.664C931.12 119.101 928.837 119.926 925.616 117.428L925.512 116.269C928.573 113.267 931.2 113.67 935.492 113.368Z" fill="#FEBF28"/>
<path d="M1040.05 415.966C1042.33 416.065 1043.19 416.222 1043.65 418.419C1041.96 422.808 1033.98 427.437 1029.93 429.978C1028.04 430.264 1028.91 430.394 1027.24 429.719L1026.92 428.127C1028.12 425.06 1036.74 419.06 1040.05 415.966Z" fill="#FEBF28"/>
<path d="M1013.06 433.938C1014.04 433.765 1014.53 433.866 1015.56 433.908C1016.81 435.498 1016.53 434.62 1016.44 436.627C1013.9 440.255 1005.52 443.157 1001.15 445.035C998.792 444.845 999.704 445.301 998.094 444.107L998.124 442.621C1000.17 439.6 1009.31 435.721 1013.06 433.938Z" fill="#FEBF28"/>
<path d="M795.459 342.994L797.768 343.784C799.592 345.787 800.119 350.108 800.284 352.804C800.535 356.834 801.442 358.672 798.833 361.863C793.114 359.609 793.102 347.453 795.459 342.994Z" fill="#FEBF28"/>
<path d="M802.07 369.809C807.446 370.208 810.997 376.812 813.759 380.956C814.94 382.728 814.163 383.476 813.453 385.249C809.534 384.944 806.852 381.224 804.66 378.136C802.48 375.068 801.335 373.565 802.07 369.809Z" fill="#FEBF28"/>
<path d="M1060.35 394.393C1062.77 395.751 1061.96 394.822 1063.17 396.976C1062.9 401.498 1056.69 407.161 1053.44 410.465C1052.46 409.992 1050.59 409.028 1050.84 407.781C1051.7 403.475 1057.61 397.63 1060.35 394.393Z" fill="#FEBF28"/>
<path d="M1073.64 370.503C1080.16 373.177 1072.83 383.979 1070.06 387.4C1068.41 387.015 1068.47 387.115 1067.25 385.955C1066.29 382.198 1071.56 374.12 1073.64 370.503Z" fill="#FEBF28"/>
<path d="M909.621 117.492C911.336 117.26 912.456 117.409 914.153 117.528L915.371 118.996L914.918 117.79L915.31 119.194C913.026 122.425 907.301 123.16 903.627 123.8C902.029 124.598 901.031 124.65 899.592 123.866L899.543 122.349C902.249 118.758 905.28 118.576 909.621 117.492Z" fill="#FEBF28"/>
</svg>
