<svg width="1200" height="900" viewBox="0 0 1200 900" fill="none" xmlns="http://www.w3.org/2000/svg">
<path d="M569.606 135.286L918.618 135.29L1025.09 135.255C1031.02 135.255 1037.06 135.16 1042.99 135.256C1054.98 135.602 1067.59 134.443 1079.47 135.974C1103.09 139.016 1120.94 160.334 1121.52 183.839C1121.87 197.572 1121.54 211.087 1121.47 224.692L1121.46 295.968V535.841L1121.48 706.466L1121.49 759.051C1121.49 767.249 1121.89 780.928 1121.14 788.656C1120.11 799.236 1115.67 809.192 1108.48 817.017C1098.34 828.155 1087.09 832.288 1072.48 833.072L735.508 833.127L622.912 833.103C604.389 833.097 585.836 833.219 567.364 832.888C547.459 832.527 525.285 812.48 523.296 792.887C521.27 772.919 522.6 749.86 522.606 729.586L522.551 589.283L522.591 319.291L522.632 226.971C522.661 211.268 522.062 195.148 522.989 179.535C523.467 171.476 527.57 161.141 532.616 154.809C543.024 141.748 553.784 137.52 569.606 135.286Z" fill="#C8C7C7"/>
<path d="M569.153 138.997C575.938 138.352 589.865 138.738 597.262 138.738L651.016 138.744L822.057 138.743L994.69 138.786L1045.39 138.74C1055.54 138.707 1065.79 138.443 1075.94 139.075C1097.88 140.442 1116.64 160.556 1117.75 182.282C1118.34 193.729 1117.92 205.645 1117.9 217.146L1117.93 283.281L1117.95 490.53V692.224L1117.84 751.195C1117.89 760.906 1118.53 778.706 1117.67 787.89C1116.74 797.283 1112.94 806.167 1106.79 813.337C1098.74 822.834 1088.91 828.4 1076.45 829.447L1075.49 829.557C1068.07 830.317 1054.3 829.949 1046.5 829.943L995.921 829.913L830.164 829.949L654.157 829.925L600.85 829.955C580.289 829.968 559.742 832.974 543.022 819.234C521.768 801.765 525.855 777.156 525.884 752.732V688.917L525.9 481.872L525.907 279.369L525.877 215.385C525.87 189.062 521.692 162.803 547.05 146.264C554.617 141.329 560.198 139.745 569.153 138.997Z" fill="#FDFCFE"/>
<path d="M992.982 353.761L992.228 353.814C986.693 354.17 975.99 354.717 970.718 354.131C955.178 352.405 927.955 361.844 928.316 337.784C928.892 299.116 928.206 262.028 928.567 223.527C928.947 208.175 943.342 208.993 954.388 209.099C990.49 209.417 1026.59 209.008 1062.7 209.175C1067.58 209.197 1071.39 209.433 1075.35 212.785C1082.82 219.115 1080.23 232.846 1080.13 242.577L1080.09 277.958L1080.12 321.288C1080.14 329.133 1081.99 346.083 1076.13 350.588C1069.08 355.996 1041.97 354.148 1033.1 354.053C1019.92 353.911 1005.68 354.805 993.392 353.769L992.982 353.761Z" fill="#C8C7C7"/>
<path d="M992.985 353.761C985.117 353.251 972.369 354.174 965.848 353.182C968.327 352.577 986.752 352.664 990.542 352.744C1005.89 353.07 1022.83 352.216 1038.01 352.984C1033 354.409 1001.69 352.964 993.395 353.769L992.985 353.761Z" fill="#A1A0A2"/>
<path d="M942.602 211.701C981.759 209.399 1024.66 212.884 1064.24 211.629C1076.72 211.234 1078.55 223.52 1078.42 233.473C1077.96 268.17 1078.82 303.093 1078.14 337.791C1077.99 345.092 1074.05 349.847 1067.24 351.844C1028.53 354.724 984.661 351.032 945.535 351.986C940.299 352.114 932.205 349.072 931.507 343.044C929.572 326.266 930.625 308.189 930.564 291.123L930.429 247.931C930.441 240.542 930.325 233.131 930.705 225.752C931.127 217.511 934.611 213.331 942.602 211.701Z" fill="#FDFCFE"/>
<path d="M998.281 249.344C1016.09 246.257 1033.04 258.121 1036.23 275.902C1039.43 293.684 1027.67 310.711 1009.91 314.017C991.992 317.352 974.787 305.467 971.56 287.53C968.333 269.592 980.328 252.457 998.281 249.344Z" fill="#081526"/>
<path d="M997.943 254.994C1007.59 252.844 1017.64 256.042 1024.27 263.368C1030.9 270.694 1033.08 281.016 1029.98 290.396C1026.88 299.776 1018.98 306.768 1009.29 308.702C994.539 311.646 980.168 302.173 977.064 287.457C973.953 272.742 983.266 258.265 997.943 254.994Z" fill="#FDFCFE"/>
<path d="M1078.98 249.327C1080.5 253.151 1079.63 309.13 1079.6 317.784C1078.33 315.269 1078.96 257.329 1078.98 249.327Z" fill="#A1A0A2"/>
<path d="M939.224 557.798C946.057 557.266 957.661 557.621 964.916 557.633L1012.37 557.688C1030.24 557.7 1052.56 557.064 1070.59 558.209C1073.65 558.405 1078.26 563.181 1079.27 565.863C1080.08 567.987 1080.39 570.987 1080.41 573.333C1079.91 610.989 1079.94 648.683 1080.41 686.346C1080.5 693.54 1076.27 697.875 1070.14 700.735C1065.46 701.47 1056.64 701.145 1051.61 701.127L1020.71 701.01H970.893C959.7 701.047 946.498 702.18 935.556 699.553C933.573 699.076 930.089 694.483 929.378 692.505C928.791 690.871 928.301 689.07 928.325 687.295C928.448 671.063 928.392 654.702 928.466 638.476C928.601 616.959 928.246 595.431 928.423 573.92C928.497 564.705 930.921 561.46 939.224 557.798Z" fill="#C8C7C7"/>
<path d="M941.69 560.089C957.077 559.55 973.989 559.776 989.413 559.758C1015.91 559.623 1042.41 559.703 1068.9 559.997C1077.52 564.638 1078.11 568.704 1078.18 578.011C1078.43 612.514 1078.65 647.079 1078.11 681.582C1077.96 691.036 1076.63 695.487 1067.16 698.482C1051.22 698.929 945.131 700.521 937.11 696.969C934.526 695.83 932.622 692.683 931.721 690.136C931.06 688.262 930.785 686.346 930.668 684.368C929.523 665.491 930.503 645.946 930.515 626.989C930.527 608.926 929.548 590.202 930.815 572.218C930.956 570.283 931.219 568.716 932.138 566.983C934.189 563.095 937.63 561.295 941.69 560.089Z" fill="#FDFCFE"/>
<path d="M1002.34 597.133L1005.34 597.47C1007.3 598.725 1036.31 652.467 1037.67 656.943C1035.02 660.304 1012.06 659.012 1006.7 658.951C996.179 659.049 984.673 659.361 974.123 658.914C972.115 658.829 971.723 658.198 970.829 656.986C970.633 653.061 998.585 602.907 1002.34 597.133Z" fill="#081526"/>
<path d="M1003.42 605.687C1005.73 607.169 1027.09 647.281 1030.63 653.502C1022.78 653.691 1014.54 653.606 1006.66 653.636L977.676 653.545C986.358 637.643 994.937 621.692 1003.42 605.687Z" fill="#FDFCFE"/>
<path d="M938.573 385.05C943.82 384.543 951.805 384.852 957.26 384.861L988.794 384.878C1013.78 384.885 1038.8 384.864 1063.78 384.851C1065.98 384.849 1070.98 385.513 1072.94 386.228C1077.47 387.874 1080.27 394.36 1080.38 398.893C1080.44 404.171 1080.2 409.274 1080.16 414.452L1080.12 445.234C1080.11 467.955 1080.11 490.794 1080.27 513.523C1080.28 514.919 1080.01 518.244 1079.4 519.352C1076.99 523.718 1074.87 525.524 1070.49 527.269C1065.74 528.469 944.377 528.604 939.246 527.471C935.56 526.651 932.37 524.348 930.423 521.103C925.31 512.623 930.264 434.482 928.414 419.28C927.723 413.605 928.274 400.057 929.149 393.972C929.67 390.307 935.419 386.596 938.573 385.05Z" fill="#C8C7C7"/>
<path d="M946.758 386.986C952.257 386.422 962.593 386.713 968.55 386.708L1008.85 386.694L1044.78 386.705C1055.23 386.713 1077.05 383.687 1077.77 398.9C1078.73 419.105 1078.38 439.665 1078.39 459.928L1078.35 493.243C1078.29 508.416 1081.99 524.697 1062.44 525.493C1042.58 526.369 1019.89 525.181 999.68 525.609C982.144 525.977 963.352 525.505 945.748 525.358C943.36 525.138 938.241 524.746 936.453 523.393C928.432 517.337 930.563 502.073 930.545 492.716L930.52 454.645V420.003C930.545 404.177 926.595 388.199 946.758 386.986Z" fill="#FDFCFE"/>
<path d="M1002.89 421.897C1006.96 422.655 1007.78 425.866 1009.53 429.287C1011.79 433.681 1013.82 438.325 1015.88 442.823C1020.96 443.326 1035.62 444.01 1037.72 448.567C1037.06 452.648 1026.75 461.428 1023.08 464.967C1024.05 470.263 1026.58 481.322 1025.99 486.716C1025.83 488.228 1024.68 488.541 1023.6 489.024C1018.52 488.73 1009.24 482.522 1004.46 479.73C1000.2 480.409 989.561 487.971 984.136 489.294C983.211 489.098 982.605 489.19 982.237 488.516C980.021 484.505 983.762 470.061 984.65 465.53C980.909 461.856 969.771 452.653 970.304 447.714C973.286 444.293 986.603 443.493 991.844 442.821C994.288 437.916 1000.06 425.642 1002.89 421.897Z" fill="#081526"/>
<path d="M1003.81 430.651C1005.36 432.295 1010.95 444.754 1012.26 447.545C1018.91 448.605 1024.44 449.365 1031.15 450.035C1026.18 454.581 1021.87 459.003 1017.17 463.81C1018.57 469.81 1019.59 476.766 1020.63 482.895C1015.38 479.815 1009.58 476.705 1004.23 473.723C999.174 475.725 991.869 479.907 986.94 482.601C988.079 476.441 989.071 470.251 989.928 464.042C985.556 458.893 981.35 454.795 976.543 450.098C982.764 449.316 988.985 448.466 995.188 447.548C998.17 442.438 1001.16 436.035 1003.81 430.651Z" fill="#FDFCFE"/>
<path d="M1078.97 419.531C1080.48 422.892 1079.75 483.403 1079.73 491.724C1078.23 489.294 1078.94 427.183 1078.97 419.531Z" fill="#A1A0A2"/>
<path d="M763.583 209.322C787.769 207.837 814.784 208.973 839.301 208.961C849.777 208.956 882.058 207.586 889.908 209.719C894.022 210.837 897.066 213.557 899.056 217.259C899.974 218.962 900.403 220.723 900.476 222.65C901.015 236.948 900.335 251.577 900.335 265.907C900.335 275.863 901.664 339.531 899.564 345.356C897.978 349.744 894.108 352.019 890.196 354.031C884.924 354.58 876.358 354.347 870.822 354.349L836.337 354.346L792.649 354.405C784.726 354.417 776.65 354.74 768.745 354.282C765.665 354.104 761.838 353.739 759.015 352.496C756.474 351.381 754.307 348.346 753.327 345.827C751.3 340.616 751.258 238.72 752.078 224.785C752.231 222.208 752.476 219.764 753.584 217.393C755.629 213.004 759.266 211.036 763.583 209.322Z" fill="#C3B9E8"/>
<path d="M766.217 211.768C770.509 211.505 775.193 211.615 779.51 211.617C813.885 211.633 848.29 211.393 882.665 211.694C892.107 211.809 898.064 215.431 898.138 225.716C898.426 263.329 898.542 301.063 897.997 338.676C897.887 346.232 893.631 349.472 887.018 351.796C870.339 352.343 850.568 352.044 833.778 352.006C810.395 352.108 787.011 352.035 763.621 351.788L763.076 351.488C754.92 346.97 754.816 343.232 754.809 334.592C754.809 323.211 754.816 311.806 754.822 300.423L754.809 251.711C754.809 242.468 754.718 233.274 755.03 224.034C755.281 216.409 758.924 213.313 766.217 211.768Z" fill="#ECE7FE"/>
<path d="M806.781 250.869C816.032 250.245 819.682 252.228 825.682 258.989C829.773 254.14 834.23 250.897 840.855 250.736C852.661 250.45 860.565 259.075 860.216 270.744C859.794 284.934 850.573 292.789 841.247 301.867C837.053 305.888 830.146 311.894 825.64 315.436C817.006 309.37 805.25 297.994 798.643 290.083C787.432 276.652 787.866 256.521 806.781 250.869Z" fill="#6042F2"/>
<path d="M806.308 256.387C813.435 255.868 817.501 256.868 821.456 263.025C825.363 269.604 828.186 266.092 831.492 261.415C839.856 249.586 855.262 258.01 854.717 271.244C854.325 280.799 848.465 287.059 842.33 293.491C836.819 298.654 831.235 303.737 825.571 308.737C815.278 299.419 791.968 282.378 797.54 265.239C798.875 261.126 802.45 258.233 806.308 256.387Z" fill="#ECE7FE"/>
<path d="M616.564 353.892C605.034 354.214 575.581 358.744 575.113 341.453C574.087 303.52 575.175 265.471 574.485 227.483C574.338 219.392 577.555 210.841 586.837 209.407C592.427 208.544 599.769 208.967 605.561 208.977L639.33 209.055L684.958 209.109C693.329 209.103 701.852 208.988 710.21 209.278C714.104 209.413 718.066 211.351 720.546 214.411C722.144 216.369 723.13 218.754 723.381 221.268C723.858 225.987 723.46 237.205 723.411 242.363C723.301 254.474 723.264 266.585 723.301 278.696L723.35 322.289C723.362 330.309 724.03 338.978 722.554 346.799C718.17 351.784 715.47 353.797 708.177 354.211C704.546 354.417 691.804 354.315 688.461 353.707C665.487 354.442 639.826 353.756 616.564 353.892Z" fill="#C9C8C8"/>
<path d="M616.562 353.892L614.664 353.248C616.685 352.583 642.604 352.53 645.971 352.761C654.25 353.328 682.973 351.323 688.459 353.707C665.485 354.442 639.824 353.756 616.562 353.892Z" fill="#A1A0A2"/>
<path d="M590.473 211.806C629.581 210.603 669.907 211.966 709.095 211.832C716.289 211.808 720.71 218.116 721.206 224.854C721.855 233.63 721.751 242.225 721.757 251.063L721.714 295.445C721.684 305.294 721.678 315.143 721.843 324.99C722.014 335.079 723.306 350.568 709.646 351.939C692.189 353.466 672.044 351.997 654.293 352.405C634.467 352.86 614.224 352.267 594.386 352.04C574.342 351.811 577.564 337.999 577.623 322.721L577.656 293.323L577.708 248.317C577.72 240.093 577.531 231.619 578.066 223.408C578.554 215.915 583.506 212.742 590.473 211.806Z" fill="#FDFCFE"/>
<path d="M647.834 247.566C648.722 247.605 649.873 247.765 650.779 247.862C653.718 249.954 659.468 263.497 661.489 267.756C666.62 268.556 681.578 268.963 683.636 273.575C682.962 277.529 672.412 287.063 668.891 290.639C669.498 296.244 673.82 310.463 670.128 314.159C665.86 314.851 654.765 307.739 650.21 305.223C644.111 305.877 631.473 316.73 627.842 314.319C625.938 309.534 628.957 296.597 629.949 290.847C625.779 286.176 619.515 280.539 616 275.416C615.076 274.073 615.645 273.211 616.147 272.095C620.146 269.31 632.025 268.585 637.443 267.849C640.468 261.759 644.332 253.143 647.834 247.566Z" fill="#081526"/>
<path d="M649.26 256.115C651.753 258.65 656.088 268.848 657.765 272.584C663.539 273.761 670.654 274.45 676.594 275.175C672.087 279.572 667.624 284.34 663.246 288.886C664.029 295.142 665.235 301.769 666.258 308.022C660.864 304.983 655.151 302.011 649.683 299.069C644.589 301.152 637.241 305.384 632.214 308.087L635.863 289.206C631.357 284.469 626.819 279.76 622.258 275.076L640.719 272.595L649.26 256.115Z" fill="#FDFCFE"/>
<path d="M586.794 557.725C606.308 556.8 626.282 557.645 645.839 557.621C666.032 557.59 686.643 556.684 706.794 557.645C709.641 557.786 714.478 558.031 716.946 559.354C719.799 560.884 721.911 564.375 722.824 567.399C724.71 573.626 723.418 624.399 723.418 634.52C723.418 651.738 724.361 669.373 723.479 686.529C723.344 689.144 723.295 691.74 721.917 694.048C719.627 697.882 715.709 699.884 711.582 701.09C695.95 701.959 669.339 701.035 652.892 701.023L614.415 701.053C606.878 701.096 599.218 701.488 591.692 701.145C588.704 701.004 584.792 700.741 582.084 699.516C579.294 698.261 576.677 694.042 575.645 691.244C573.816 686.291 574.283 585.23 574.95 573.143C575.097 570.473 575.267 567.718 576.501 565.299C578.611 561.166 582.509 558.974 586.794 557.725Z" fill="#C8C7C7"/>
<path d="M588.306 560.156C593.798 559.843 600.111 559.745 605.75 559.849C641.19 560.492 677.182 558.404 712.463 560.835C715.775 561.068 719.694 566.818 721.2 569.408C721.947 583.429 723.294 684.509 720.049 691.287C718.035 695.487 714.33 697.134 710.111 698.432C692.832 698.971 592.855 700.526 583.881 696.834C581.327 695.787 579.376 692.848 578.471 690.338C576.895 685.954 576.746 571.238 578.936 566.946C580.779 563.333 584.588 561.258 588.306 560.156Z" fill="#FDFCFE"/>
<path d="M643.891 596.533C661.703 593.643 678.498 605.681 681.493 623.474C684.481 641.268 672.541 658.137 654.766 661.229C636.843 664.352 619.809 652.289 616.79 634.349C613.778 616.408 625.932 599.441 643.891 596.533Z" fill="#081526"/>
<path d="M649.174 601.542C664.127 601.529 676.305 613.543 676.507 628.489C676.703 643.442 664.849 655.773 649.903 656.159C640.063 656.41 630.854 651.353 625.79 642.921C620.72 634.49 620.58 623.983 625.423 615.416C630.26 606.85 639.335 601.554 649.174 601.542Z" fill="#FDFCFE"/>
<path d="M762.767 557.725C789.09 556.953 815.573 557.492 841.914 557.48C853.584 557.48 880.954 556.017 890.739 558.607C894.003 559.476 896.752 562.703 898.277 565.605C899.556 568.048 899.648 570.638 899.795 573.333C900.499 586.05 900.603 687.282 898.889 691.936C897.174 696.589 893.011 699.247 888.663 701.09C884.243 701.445 879.785 701.365 875.352 701.353C839.71 701.261 803.945 701.531 768.315 701.267C758.512 701.2 751.648 696.651 751.66 686.413C751.715 649.222 751.648 611.994 751.691 574.796C751.703 565.66 754.024 561.184 762.767 557.725Z" fill="#C3B9E8"/>
<path d="M764.834 560.119C785.603 559.066 806.862 559.966 827.68 559.96C845.664 559.948 864.302 558.925 882.225 560.107C885.102 560.297 888.305 560.738 891.023 561.699C893.595 562.611 895.444 565.262 896.43 567.712C898.445 572.702 898.016 669.048 897.397 682.109C897.251 685.109 897.189 688.826 895.928 691.575C894.207 695.316 890.962 697.165 887.209 698.384C862.104 698.855 836.932 698.512 811.822 698.518C801.027 698.524 769.91 699.97 761.05 697.208C758.331 696.363 756.635 693.859 755.514 691.361C754.577 689.26 754.553 686.487 754.449 684.209C753.947 673.071 753.022 573.192 755.594 567.412C757.419 563.303 760.798 561.552 764.834 560.119Z" fill="#ECE7FE"/>
<path d="M825.133 606.666C829.53 601.793 833.822 598.841 840.557 598.658C851.897 598.345 859.637 607.065 859.41 618.049C859.128 632.028 849.227 640.698 840.104 649.595C835.095 653.936 830.417 658.529 825.127 662.564C815.747 655.798 802.955 643.858 796.349 634.679C786.882 621.533 788.928 602.931 806.611 598.749C807.572 598.719 808.54 598.707 809.501 598.719C817.051 598.86 820.296 601.566 825.133 606.666Z" fill="#6042F2"/>
<path d="M807.301 604.174C816.902 603.672 816.742 606.728 822.749 612.673C827.782 617.651 832.16 603.097 839.269 603.856C843.892 604.346 846.059 604.095 849.801 607.769C852.55 610.518 854.099 614.241 854.099 618.129C854.173 627.828 846.782 635.622 840.353 641.886C835.326 646.576 830.25 651.218 825.125 655.798C815.959 647.605 802.788 637.465 797.865 625.942C793.579 615.925 796.751 607.873 807.301 604.174Z" fill="#ECE7FE"/>
<path d="M708.726 384.569C718.204 384.848 723.519 390.278 723.495 399.893C723.44 424.81 723.397 449.728 723.458 474.647L723.531 501.828C723.58 510.78 725.344 526.234 712.204 527.465C699.076 528.696 684.92 528.102 671.657 528.083L590.049 528.077C579.776 527.795 575.308 522.052 574.959 512.145C574.664 503.793 574.767 495.533 574.768 487.181L574.781 442.828L574.755 413.612C574.744 387.304 574.774 385.286 601.505 384.815C636.927 384.19 673.469 386.111 708.726 384.569Z" fill="#C8C7C7"/>
<path d="M593.571 386.984C597.711 386.529 606.283 386.739 610.716 386.732L642.96 386.703L682.472 386.698C690.156 386.7 710.111 385.63 716.314 389.877C723.447 394.76 721.708 413.024 721.721 421.742L721.733 458.654L721.721 492.006C721.69 505.654 725.29 524.195 707.307 525.297C683.935 525.793 660.852 525.573 636.849 525.561C624.75 525.554 594.631 527.299 582.844 522.934C576.006 520.399 577.63 502.232 577.619 494.517L577.591 456.744L577.569 419.864C577.567 412.535 576.188 397.193 580.815 391.403C583.711 387.78 589.132 387.227 593.571 386.984Z" fill="#FDFCFE"/>
<path d="M648.287 424.335C648.881 424.413 650.387 424.611 650.644 425.03C655.616 433.167 681.492 478.915 682.594 485.05C679.723 487.53 656.026 486.569 650.332 486.526C643.915 486.489 621.321 487.304 616.68 485.681C615.143 481.854 644.301 428.83 648.287 424.335Z" fill="#081526"/>
<path d="M648.843 433.039C651.011 434.725 672.374 475.211 675.601 481.162L651.066 481.266C641.697 481.328 632.329 481.285 622.961 481.138C629.635 466.951 641.122 447.268 648.843 433.039Z" fill="#FDFCFE"/>
<path d="M752.244 417.889C751.95 411.057 751.031 402.314 752.495 395.594C754.736 385.613 762.12 384.814 770.803 384.858C810.076 385.056 849.41 384.528 888.659 385.086C895.192 385.179 899.387 393.715 899.509 399.45C899.65 405.968 899.625 412.241 899.564 418.751L899.497 451.532L899.472 493.139C899.644 527.379 901.53 528.12 866.445 528.04L829.266 528.016L787.121 528.046C778.628 528.065 761.483 529.981 755.452 523.35C750.835 518.268 750.903 499.642 752.44 493.078C752.219 468.041 752.611 442.908 752.244 417.889Z" fill="#C8C7C7"/>
<path d="M752.242 417.889L752.928 416.193C753.963 420.033 753.65 490.059 752.438 493.078C752.218 468.041 752.61 442.908 752.242 417.889Z" fill="#A1A0A2"/>
<path d="M769.286 386.946C774.613 386.49 783.246 386.712 788.788 386.706L823.818 386.687L860.574 386.695C867.738 386.7 874.78 386.597 881.993 386.936C890.951 387.357 896.376 390.276 897.196 399.925C897.863 407.827 897.637 415.865 897.637 423.804L897.625 462.175C897.612 476.019 897.686 489.881 897.612 503.726C897.551 514.851 897.484 524.587 883.652 525.322C846.014 526.565 807.346 525.126 769.592 525.505C761.852 525.579 754.633 521.978 754.364 513.229C753.237 476.209 753.672 438.838 754.113 401.799C754.241 391.288 759.434 387.678 769.286 386.946Z" fill="#FDFCFE"/>
<path d="M824.054 423.23C827.538 423.213 855.355 451.965 857.186 455.764C855.698 459.848 831.335 483.74 826.02 489.183L825.499 489.294C822.499 488.553 796.207 460.638 791.902 456.125C796.74 449.72 817.46 429.638 824.054 423.23Z" fill="#081526"/>
<path d="M824.673 429.939C827.226 430.994 847.616 452.559 850.983 455.941C842.399 464.82 833.759 473.643 825.064 482.411C822.793 480.954 802.372 459.432 798.895 455.886L824.673 429.939Z" fill="#FDFCFE"/>
<path d="M880.312 751.862C887.813 750.068 895.351 754.691 897.157 762.186C898.957 769.68 894.353 777.224 886.864 779.048C879.345 780.873 871.777 776.25 869.965 768.731C868.158 761.212 872.793 753.656 880.312 751.862Z" fill="#C8C7C7"/>
<path d="M758.594 751.972C766.033 750.019 773.65 754.477 775.591 761.922C777.532 769.368 773.068 776.973 765.617 778.908C758.189 780.836 750.597 776.379 748.656 768.952C746.721 761.518 751.166 753.926 758.594 751.972Z" fill="#6042F2"/>
<path d="M819.566 751.948C824.397 750.638 829.571 752.028 833.091 755.585C836.618 759.149 837.959 764.329 836.594 769.154C835.235 773.979 831.383 777.695 826.515 778.889C819.119 780.702 811.636 776.226 809.738 768.854C807.834 761.475 812.212 753.944 819.566 751.948Z" fill="#C8C7C7"/>
<path d="M158.322 287.391C164.451 261.685 175.388 241.427 198.14 226.732C219.269 213.086 243.513 219.703 234.861 249.073L234.697 249.616L234.963 250.392C238.839 249.499 246.238 243.795 250.342 241.647C262.301 235.389 282.42 230.868 294.657 238.31C305.452 244.875 302.579 259.945 296.009 268.458C291.601 274.169 286.946 277.657 281.876 282.553C289.774 284.395 297.549 286.23 305.152 289.156C334.578 300.479 359.875 323.762 376.67 350.199C382.256 358.994 387.672 370.662 392.251 380.054C398.885 379.847 421.874 377.025 426.196 382.121C432.696 389.782 430.885 399.872 423.652 406.87C425.169 430.944 424.655 431.472 417.526 453.577C437.794 485.779 433.625 518.917 411.87 549.992C409.542 553.316 403.561 559.488 402.24 562.856C404.713 566.561 413.51 573.326 417.153 576.933C425.361 585.058 433.05 596.343 438.273 606.538C447.366 624.356 453.529 643.521 456.527 663.298C458.631 677.112 459.495 690.846 463.86 704.262C471.111 726.55 485.025 744.692 489.793 768.15C492.765 782.765 493.25 794.797 490.215 809.97C488.479 818.646 484.438 834.327 477.005 840.879C475.788 841.951 472.571 841.4 470.974 841.124C446.48 843.175 420.315 843.965 395.636 844.908L390.71 844.945C372.861 846.041 353.809 845.912 335.907 846.31C286.685 847.535 237.44 847.529 188.218 846.292C171.747 845.925 155.541 845.857 139.059 844.969C104.482 843.102 70.0971 842.575 36.0034 836.06C33.7402 835.809 32.392 835.95 30.7802 834.401C28.3374 829.496 38.9584 793.15 41.4554 785.68C52.9649 751.617 69.5589 719.49 90.6761 690.393C106.908 667.683 131.197 647.189 121.735 616.237C101.162 609.299 88.5018 602.393 72.1459 587.844C40.5994 559.776 29.2093 507.669 62.6858 476.252C47.5251 395.108 82.7982 322.297 158.322 287.391Z" fill="#FDFCFE"/>
<path d="M158.322 287.391C164.451 261.685 175.388 241.427 198.14 226.732C219.269 213.086 243.513 219.703 234.861 249.073L234.697 249.616L234.963 250.392C238.839 249.499 246.238 243.795 250.342 241.647C262.301 235.389 282.42 230.868 294.657 238.31C305.452 244.875 302.579 259.945 296.009 268.458C291.601 274.169 286.946 277.657 281.876 282.553C289.774 284.395 297.549 286.23 305.152 289.156C334.578 300.479 359.875 323.762 376.67 350.199C382.256 358.994 387.672 370.662 392.251 380.054C398.885 379.847 421.874 377.025 426.196 382.121C432.696 389.782 430.885 399.872 423.652 406.87C425.169 430.944 424.655 431.472 417.526 453.577C437.794 485.779 433.625 518.917 411.87 549.992C409.542 553.316 403.561 559.488 402.24 562.856C404.713 566.561 413.51 573.326 417.153 576.933C425.361 585.058 433.05 596.343 438.273 606.538C447.366 624.356 453.529 643.521 456.527 663.298C458.631 677.112 459.495 690.846 463.86 704.262C471.111 726.55 485.025 744.692 489.793 768.15C492.765 782.765 493.25 794.797 490.215 809.97C488.479 818.646 484.438 834.327 477.005 840.879C475.788 841.951 472.571 841.4 470.974 841.124C446.48 843.175 420.315 843.965 395.636 844.908L390.71 844.945L390.317 844.535C362.337 814.63 357.476 761.598 358.857 722.343C351.522 712.516 350.768 705.101 350.213 693.179C340.024 692.052 336.369 691.201 329.306 683.247C318.519 680.798 314.067 678.276 305.535 671.522C297.621 679.714 288.335 680.229 280.143 672.152C267.672 685.115 234.61 710.219 230.136 677.565C227.972 665.54 224.661 639.884 231.452 628.795C239.984 614.853 272.114 636.92 278.932 642.627C286.715 635.751 294 635.665 303.072 640.153C311.455 630.399 319.4 625.801 331.546 622.207C336.103 609.477 338.271 610.059 348.382 601.646C349.604 600.629 355.175 593.306 356.528 591.579C348.86 586.093 344.553 581.256 340.884 572.579C315.102 586.02 289.485 584.728 264.14 570.706C253.991 565.085 252.433 563.689 240.32 562.74C229.61 561.901 219.629 553.506 221.004 541.75C221.374 531.365 229.197 522.793 239.742 521.391C251.203 519.86 258.609 520.515 268.465 512.004C273.989 507.191 278.88 501.699 283.019 495.656C292.606 481.499 298.374 467.367 317.7 464.783C341.406 461.624 350.38 484.579 370.091 491.731C381.228 495.778 389.955 492.704 401.191 493.121C420.505 494.707 421.567 521.323 407.889 530.814C399.863 536.38 391.911 536.392 382.738 534.825C379.62 539.484 375.934 543.856 372.397 548.222C381.25 550.641 388.098 554.584 395.757 559.439C422.491 532.241 434.205 493.555 413.516 459.309C403.687 472.455 392.263 478.854 375.739 479.858C351.138 481.346 333.94 467.741 324.431 445.856C322.254 441.783 321.5 434.724 317.759 431.78C309.914 425.607 300.425 431.013 295.513 437.4C294.828 470.208 284.09 498.54 249.361 507.834C211.733 517.907 184.44 494.994 175.259 459.132C171.069 457.442 169.621 456.793 165.891 454.312C153.754 460.822 142.024 467.698 129.625 473.796C120.801 477.305 113.702 471.598 116.81 462.316C118.249 458.017 125.887 454.511 129.949 451.797C136.951 447.119 146.152 443.209 153.347 438.506C161.403 433.239 164.516 428.97 174.088 425.444C208.435 412.789 252.713 398.933 288.488 414.583C298.059 408.012 305.518 407.165 316.524 408.85C332.036 389.609 361.145 384.156 384.164 380.412C369.084 339.677 336.913 307.596 296.136 292.631C288.594 289.819 272.517 288.304 269.623 286.699C269.225 285.909 268.364 284.047 269.115 283.411C278.466 275.494 291.306 269.787 294.94 256.861C297.229 248.721 292.896 241.98 283.88 240.975C267.493 239.15 250.466 246.996 238.018 257.17C232.897 261.398 228.934 266.696 223.624 270.743C221.41 270.18 222.291 270.741 220.831 269.091C219.755 262.868 236.51 242.948 227.701 230.196C226.301 228.174 224.147 226.798 221.724 226.379C214.633 225.084 202.975 230.786 197.424 235.095C177.86 250.28 168.411 268.702 164.474 292.369C95.8452 319.306 52.8773 396.882 68.4439 469.798C72.0626 481.585 66.3149 479.736 61.1887 487.065C27.8263 534.782 68.248 591.469 116.302 607.658C129.544 612.122 128.7 613.788 130.115 627.271C131.937 644.635 122.538 659.815 112.174 672.826C78.0816 716.508 50.5622 764.721 39.2719 819.473C38.1287 825.014 37.2335 830.543 36.0034 836.06C33.7402 835.809 32.392 835.95 30.7802 834.401C28.3374 829.496 38.9584 793.15 41.4554 785.68C52.9649 751.617 69.5589 719.49 90.6761 690.393C106.908 667.683 131.197 647.189 121.735 616.237C101.162 609.299 88.5018 602.393 72.1459 587.844C40.5994 559.776 29.2093 507.669 62.6858 476.252C47.5251 395.108 82.7982 322.297 158.322 287.391Z" fill="#081526"/>
<path d="M376.652 599.49C367.981 590.361 355.282 585.652 348.598 574.698C344.352 567.742 346.226 557.982 353.753 554.155C359.509 551.228 366.711 553.035 372.44 555.092C413.698 569.91 439.115 610.046 447.555 651.53C451.245 669.177 452.53 687.08 456.975 704.225C460.123 716.367 468.742 731.699 474.257 743.486C486.022 768.627 489.68 795.324 480.307 821.891C477.818 828.945 474.355 833.501 471.308 840.034C471.197 840.395 471.087 840.763 470.977 841.124C446.482 843.175 420.318 843.965 395.638 844.908C396.024 843.683 396.774 842.177 396.026 841.081C393.985 838.087 391.469 834.793 389.399 831.866C384.256 824.592 380.072 816.693 376.95 808.353C368.303 784.706 362.543 745.053 366.204 720.004C355.107 710.127 356.112 695.371 357.816 682.029C356.174 680.069 352.848 675.532 349.715 677.737C345.548 680.67 351.603 682.623 351.011 686.241C346.425 689.499 339.491 684.405 336.283 681.19C332.041 677.002 329.661 671.283 329.68 665.325C329.74 654.255 336.412 647.238 346.281 643.919C356.662 640.435 362.918 643.796 372.842 644.188L373.572 643.484C374.096 640.925 374.236 642.094 373.403 639.823C368.17 634.698 354.476 635.218 347.645 636.663C345.435 636.816 340.042 639.915 338.906 636.639C330.604 612.71 356.877 601.37 376.525 605.864C381.712 607.052 386.939 610.04 390.386 607.462C390.915 605.093 391.009 606.201 390.235 604.015C387.104 600.794 381.279 600.366 376.652 599.49Z" fill="#FDFCFE"/>
<path d="M319.082 470.753C339.061 468.843 351.032 494.284 373.297 499.311C388.485 502.74 394.701 496.292 405.783 501.46C408.102 502.875 410.7 506.757 410.733 509.445C411.101 539.405 380.662 526.289 366.194 526.387C342.295 526.552 324.61 546.667 301.707 550.751C285.589 553.629 266.481 549.489 253.473 540.666C253.793 539.411 254.008 538.376 254.252 537.102C253.195 535.443 253.924 536.141 251.579 535.425C248.646 535.682 248.493 537.366 246.163 538.67C243.28 540.286 240.629 541.983 241.564 545.779L242.572 546.373C244.999 546.501 246.249 545.828 248.604 545.001C251.545 545.705 255.266 548.773 258.114 550.077C276.255 558.386 293.15 560.18 311.754 554.149C336.528 545.203 350.362 529.204 376.566 533.459C373.133 538.443 369.948 542.093 365.9 546.569C351.538 546.122 341.426 550.383 340.098 566.144C316.944 578.862 293.866 577.943 270.249 566.738C264.973 564.24 259.043 560.125 253.632 558.435C247.101 556.39 239.08 557.737 232.978 553.714C226.284 549.863 225.965 539.686 229.907 533.772C235.604 525.334 246.593 527.789 254.508 525.818C275.165 520.674 286.702 502.189 297.031 485.265C302.368 476.521 309.566 472.584 319.082 470.753Z" fill="#FEB607"/>
<path d="M312.183 491.933C315.288 492.912 318.29 495.692 318.704 499.133C318.941 501.105 317.821 501.644 316.549 502.966C313.98 502.25 310.417 498.441 310.115 495.668C309.907 493.763 311.003 493.194 312.183 491.933Z" fill="#081526"/>
<path d="M339.521 485.816C341.261 485.155 343.21 485.994 343.934 487.708C344.658 489.422 343.898 491.4 342.213 492.19C341.065 492.723 339.714 492.594 338.693 491.841C337.673 491.088 337.145 489.839 337.317 488.584C337.49 487.328 338.335 486.263 339.521 485.816Z" fill="#081526"/>
<path d="M242.814 423.094C244.603 422.782 249.468 422.728 251.509 422.65C240.25 446.938 229.776 471.653 218.674 495.637C213.973 493.384 211.571 491.951 207.553 488.786C199.167 480.66 193.29 471.641 191.356 459.958C186.335 429.645 221.468 425.793 242.814 423.094Z" fill="#27313F"/>
<path d="M376.43 396.758L383.382 396.151C380.758 404.335 375.998 414.67 372.519 422.783L355.092 463.595C351.783 461.415 350.923 460.638 348.138 457.98C338.346 448.008 328.188 425.877 338.168 413.212C346.241 402.967 364.054 398.308 376.43 396.758Z" fill="#27313F"/>
<path d="M169.479 767.268C172.267 767.543 172.96 767.666 174.401 769.901C174.501 772.068 169.368 788.894 168.521 791.895C165.567 802.426 162.799 813.007 160.217 823.637C159.106 828.26 156.835 841.375 154.253 844.449C151.531 843.855 151.262 843.812 149.783 841.951C148.817 836.311 165.356 773.587 169.479 767.268Z" fill="#081526"/>
<path d="M333.482 57.5675C337.543 56.9711 345.715 57.5265 349.826 58.0647C371.11 60.6554 390.417 71.8152 403.286 88.9659C415.797 105.46 421.993 126.701 419.114 147.308C416.026 168.376 404.856 187.412 387.971 200.383C371.036 213.182 349.755 218.822 328.704 216.089C316.146 215.086 302.035 209.668 292.35 201.575C287.288 203.11 271.827 211.182 268.111 209.15C267.327 205.284 275.202 192.676 277.545 188.454C266.911 174.445 260.289 161.279 258.56 143.561C254.112 97.9821 289.686 61.8022 333.482 57.5675Z" fill="#6042F2"/>
<path d="M332.172 92.3838C343.653 91.3484 353.967 92.9397 361.368 103.013C365.13 108.204 366.612 114.705 365.471 121.013C363.383 133.256 355.438 135.585 347.71 143.567C345.608 145.738 342.564 160.831 336.036 158.118C328.494 154.983 329.473 146.714 332.213 140.387C337.081 132.978 345.864 129.052 349.006 121.398C352.756 112.269 342.642 104.47 333.955 107.126C324.023 110.163 328.419 117.207 322.047 120.827C311.213 126.983 308.812 111.186 314.021 104.858C319.53 97.0612 323.51 94.7319 332.172 92.3838Z" fill="#FDFCFE"/>
<path d="M334.739 166.007C339.785 164.494 345.099 167.378 346.579 172.435C348.059 177.491 345.139 182.786 340.073 184.232C335.054 185.665 329.82 182.778 328.353 177.769C326.888 172.76 329.739 167.507 334.739 166.007Z" fill="#FDFCFE"/>
<path d="M1057.99 55.9167C1060.97 56.6197 1061.29 56.7862 1062.82 58.8987C1063.85 64.7639 1057.93 91.5278 1056.53 98.6372C1055.87 102.004 1054.65 103.129 1051.83 104.694C1050.09 103.992 1048.11 103.431 1047.18 101.658C1045.42 98.3152 1052.58 64.5086 1054.3 59.6916C1055.09 57.4585 1055.99 56.9019 1057.99 55.9167Z" fill="#FEB607"/>
<path d="M1119.04 85.2786C1132.09 86.4272 1119.11 99.2587 1115.6 103.328C1109.77 110.095 1103.85 117.857 1097.37 123.985C1094.69 123.631 1094.53 123.676 1092.34 122.222C1091.81 121.343 1090.9 120.113 1091.27 119.085C1093.5 112.889 1115.35 88.3027 1119.04 85.2786Z" fill="#FEB607"/>
<path d="M1161.9 139.504C1164.81 139.687 1165.46 140.235 1166.67 142.866C1166.58 150.662 1137.82 157.375 1130.38 159.567C1127.01 159.562 1126.5 159.038 1124.74 156.417C1123.6 148.352 1154.88 141.413 1161.9 139.504Z" fill="#FEB607"/>
</svg>
