<svg width="1200" height="900" viewBox="0 0 1200 900" fill="none" xmlns="http://www.w3.org/2000/svg">
<path d="M988.42 150.679C988.518 150.403 988.616 150.126 988.714 149.848C989.308 121.033 1002.69 93.9382 1029.58 79.366C1046.94 69.9494 1067.35 67.8877 1086.23 73.6434C1152.96 94.2205 1159.79 186.299 1097.36 216.775C1094.53 218.156 1082.73 222.455 1081.67 224.152C1095.39 243.39 1104.86 256.648 1116.11 277.785C1154.77 351.1 1168.29 435.078 1154.61 516.824C1146.21 565.068 1128.53 611.223 1102.57 652.737C1094.94 664.855 1086.96 674.554 1079.46 685.814C1079.38 688.257 1091.8 720.372 1093.69 726.587C1100.93 751.239 1105.17 776.674 1106.36 802.342C1106.52 805.709 1107.6 812.402 1105.51 814.82C1103.08 815.678 1099.34 815.714 1096.88 815.194C1085.07 814.135 1063.97 814.692 1051.6 814.686C1025.66 814.52 999.724 814.618 973.78 814.98L967.78 814.931C955.68 814.704 943.349 814.563 931.243 814.686C842.557 815.604 753.363 813.277 664.744 814.974L658.633 814.937C622.666 814.208 586.295 814.986 550.299 814.643C538.387 814.533 525.67 815.261 513.907 814.9C508.704 815.794 505.657 813.473 502.961 808.875C491.884 789.979 490.846 769.59 495.593 748.563C482.134 720.562 468.991 678.656 483.168 648.751C486.612 641.489 494.065 634.791 499.616 629.023C500.017 627.302 498.858 625.024 498.18 623.236C495.616 616.342 490.015 605.547 486.9 598.163C479.528 580.412 473.438 562.153 468.679 543.527C444.193 446.269 460.15 343.241 512.908 257.948C560.009 180.974 635.506 125.627 723.084 103.871C793.928 86.3371 868.586 92.7234 935.425 122.035C954.848 130.587 970.461 139.708 988.42 150.679Z" fill="#F1F6EF"/>
<path d="M988.42 150.679C988.518 150.403 988.616 150.126 988.714 149.848C989.308 121.033 1002.69 93.9382 1029.58 79.366C1046.94 69.9494 1067.35 67.8877 1086.23 73.6434C1152.96 94.2205 1159.79 186.299 1097.36 216.775C1094.53 218.156 1082.73 222.455 1081.67 224.152C1095.39 243.39 1104.86 256.648 1116.11 277.785C1154.77 351.1 1168.29 435.078 1154.61 516.824C1146.21 565.068 1128.53 611.223 1102.57 652.737C1094.94 664.855 1086.96 674.554 1079.46 685.814C1077.5 685.085 1071.39 671.602 1069.77 668.682C1056.86 645.237 1040.86 625.367 1021.74 606.619C1010.02 595.126 992.774 583.057 987.459 566.794C976.701 533.877 993.631 529.811 1012.39 512.771C1032.54 494.72 1044.64 469.358 1045.99 442.333C1047.31 414.576 1038.08 395.342 1020.1 375.376C1018.82 320.096 1001.52 271.796 958.521 234.49C954.842 231.295 951.125 228.239 947.029 225.584C928.923 210.788 897.573 198.218 874.452 194.397C863.675 171.608 839.502 142.941 815.083 135.443C773.746 122.75 768.787 155.168 790.352 182.29C770.654 172.894 749.768 166.606 728.191 173.666C718.633 176.792 709.816 186.116 714.267 196.69C718.376 206.458 729.281 212.23 738.667 215.926C739.494 216.253 740.314 216.571 741.147 216.882C693.51 243.019 656.79 293.148 653.416 348.331C644.868 349.507 623.45 350.905 617.211 357.534C613.531 361.451 613.837 375.413 619.323 378.281C621.258 379.519 623.395 380.777 625.397 381.875C628.312 402.461 630.706 413.109 642.591 430.155C638.911 438.747 635.812 446.364 634.851 455.796C629.94 504.143 665.73 538.824 708.371 553.679C712.748 563.31 712.038 575.893 703.062 581.783C678.061 598.187 654.341 616.189 636.798 641.25L614.951 565.165C611.908 554.56 608.497 537.746 603.434 528.397C601.493 524.815 597.99 521.925 594.476 519.959C591.751 518.441 588.506 517.191 585.383 516.842C576.517 515.844 502.523 519.126 495.737 521.22C490.641 522.8 486.217 527.35 484.007 532.095C482.53 535.267 481.868 538.163 482.173 541.647C483.125 552.515 487.683 564.327 490.84 574.754C495.919 591.537 501.145 608.364 505.535 625.337L501.857 627.914C500.306 627.069 499.243 624.89 498.18 623.236C495.616 616.342 490.015 605.547 486.9 598.163C479.528 580.412 473.438 562.153 468.679 543.527C444.193 446.269 460.15 343.241 512.908 257.948C560.009 180.974 635.506 125.627 723.084 103.871C793.928 86.3371 868.586 92.7234 935.425 122.035C954.848 130.587 970.461 139.708 988.42 150.679Z" fill="#F1F6EF"/>
<path d="M988.422 150.679C988.52 150.403 988.618 150.126 988.716 149.848C989.31 121.033 1002.69 93.9382 1029.58 79.366C1046.94 69.9494 1067.35 67.8877 1086.23 73.6434C1152.96 94.2205 1159.79 186.299 1097.36 216.775C1094.53 218.156 1082.74 222.455 1081.68 224.152C1079.45 222.987 1065.37 225.033 1060.85 224.714C1047.94 223.803 1040.14 221.063 1028.66 215.8C1022.55 218.267 998.139 227.976 993.094 227.683C987.154 224.304 1000.73 198.422 1003.18 192.51C997.294 183.411 992.635 173.568 990.283 162.875C989.487 159.273 989.732 153.909 988.422 150.679Z" fill="#01070E"/>
<path d="M1057.11 76.7209C1062.88 75.9855 1070.03 76.1386 1075.76 77.0246C1094.17 80.0377 1110.63 90.2185 1121.55 105.339C1132.45 120.301 1137.43 139.984 1134.53 158.313C1131.42 177.471 1120.84 194.616 1105.12 205.996C1088.37 218.141 1071.22 220.94 1051.13 217.684C1040.66 214.952 1039.35 214.51 1029.28 209.758C1018.59 213.858 1007.64 217.733 996.894 221.806C1000.57 212.127 1005.47 201.161 1009.53 191.492C1001.65 180.319 997.249 171.098 995.32 157.313C992.797 138.202 997.977 118.872 1009.72 103.583C1021.8 87.9199 1037.63 79.1762 1057.11 76.7209Z" fill="#F1F6EF"/>
<path d="M1064.91 130.596C1068.74 124.993 1073.4 120.89 1080.56 120.699C1085.18 120.604 1089.64 122.407 1092.89 125.688C1096.73 129.546 1098.36 134.848 1098.24 140.208C1097.95 152.516 1088.75 161 1080.61 168.977C1075.71 173.715 1070.47 178.089 1064.93 182.064C1054.79 175.818 1036.06 158.394 1032.37 146.702C1028.55 134.61 1033.82 124.273 1046.34 120.746C1055.49 120.135 1059.9 123.444 1064.91 130.596Z" fill="#109012"/>
<path d="M790.353 182.29C768.788 155.167 773.748 122.75 815.084 135.443C839.503 142.941 863.677 171.608 874.453 194.397C897.574 198.218 928.924 210.788 947.03 225.584L946.797 226.565C948.585 227.929 954.482 231.505 954.445 233.926C954.42 235.436 954.249 235.812 954.898 237.235C951.965 235.194 944.789 229.131 942.242 229.174C923.138 216.638 902.381 206.439 879.976 201.585C876.829 200.903 873.437 200.163 870.333 199.347C856.629 173.413 839.411 150.135 810.492 140.314C802.434 137.579 786.337 137.258 783.771 147.888C781.622 156.779 787.929 167.793 792.202 175.221C795.233 180.592 802.563 187.312 803.151 192.662L802.508 193.934C800.934 194.387 800.573 194.54 798.962 193.671C783.281 185.236 769.119 178.236 751.154 176.973C720.881 174.846 703.302 193.277 738.338 209.341C741.106 210.61 750.388 213.352 752.335 214.968C752.991 216.918 752.978 215.948 752.219 217.975C749.384 220.276 744.62 222.019 741.277 223.738C696.732 246.66 664.751 297.205 659.596 346.02C659.528 346.639 659.467 347.259 659.412 347.879C686.611 346.538 725.639 347.199 747.81 365.458C755.532 361.589 764.49 361.002 772.652 363.83C774.666 364.517 776.638 365.321 778.554 366.239C806.365 343.869 886.32 348.78 918.221 362.315L920.45 363.281C925.807 364.9 932.751 367.148 938.966 368.941C950 372.127 969.973 377.078 956.704 392.139C953.441 395.844 923.677 386.254 917.688 384.503C914.223 387.106 911.657 388.797 907.971 391.09C906.348 410.838 897.476 430.325 882.285 443.3C869.733 454.239 853.231 459.535 836.656 457.945C820.436 456.613 805.428 448.83 794.989 436.34C789.576 429.783 786.159 423.244 782.865 415.543C777.709 403.475 779.399 385.085 762.187 384.103C746.941 383.232 746.788 399.84 742.71 410.173C729.821 452.491 678.43 467.184 646.854 434.888C638.465 455.241 638.018 472.328 646.547 493.25C655.352 514.852 672.84 530.368 693.315 541.114C698.036 543.594 708.36 546.239 712.003 549.772C718.806 556.373 717.979 569.231 714.501 577.185C709.958 587.563 695.03 593.772 685.71 600.826C666.429 615.429 653.026 629.47 638.557 648.518L652.328 697.178C656.485 711.831 669.172 740.07 644.631 746.077C636.842 747.981 623.396 747.412 614.922 747.559C618.681 751.68 629.268 765.512 625.735 770.802C624.854 770.912 624.088 771.188 623.213 770.165C616.324 762.15 616.122 756.253 607.574 748.361C604.623 747.938 602.29 747.559 599.29 747.455L598.573 747.779C593.773 750.032 587.754 755.255 584.117 754.355C582.598 752.696 582.984 753.627 582.702 751.588C585.788 745.116 625.839 730.733 619.031 708.622C618.02 705.328 615.161 701.954 611.891 700.619C600.814 696.088 590.981 699.511 580.639 703.056C574.485 705.163 560.849 713.141 557.331 713.172C555.329 712.18 555.993 712.927 555.217 710.9C555.568 709.204 555.931 708.5 557.541 707.404C572.079 697.533 598.959 694.729 605.015 676.152C607.838 667.475 595.965 658.211 588.715 657.703C573.787 655.419 558.466 660.471 544.743 665.822C540.489 667.481 531.235 674.431 527.623 671.308C527.492 670.121 527.672 668.222 528.7 667.433C541.587 657.538 575.581 653.845 574.7 632.145C574.155 618.656 552.39 617.248 542.443 618.797C528.039 621.038 518.467 625.22 505.966 632.09C504.435 630.37 503.601 629.396 501.858 627.914L505.536 625.337C501.147 608.363 495.92 591.537 490.841 574.754C487.684 564.327 483.126 552.515 482.174 541.647C481.869 538.163 482.531 535.267 484.008 532.095C486.218 527.349 490.642 522.8 495.739 521.22C502.524 519.126 576.518 515.844 585.384 516.842C588.507 517.191 591.752 518.44 594.477 519.959C597.992 521.924 601.494 524.815 603.435 528.397C608.499 537.746 611.909 554.56 614.953 565.165L636.8 641.25C654.342 616.189 678.063 598.187 703.063 581.783C712.04 575.893 712.75 563.31 708.372 553.679C665.731 538.824 629.942 504.143 634.852 455.796C635.814 446.364 638.912 438.747 642.592 430.155C630.707 413.109 628.313 402.461 625.398 381.874C623.396 380.777 621.259 379.519 619.324 378.281C613.838 375.413 613.532 361.451 617.212 357.534C623.451 350.905 644.87 349.507 653.417 348.331C656.791 293.148 693.511 243.019 741.149 216.882C740.316 216.571 739.495 216.253 738.669 215.926C729.282 212.23 718.377 206.458 714.268 196.69C709.817 186.116 718.634 176.792 728.192 173.666C749.77 166.606 770.655 172.894 790.353 182.29Z" fill="#01070E"/>
<path d="M918.22 362.315L920.449 363.281L919.965 363.671C919.12 368.611 921.312 379.96 917.871 383.116L917.087 382.672C916.383 379.167 916.414 365.391 918.22 362.315Z" fill="#2C3743"/>
<path d="M582.522 522.537C591.046 522.99 597.573 527.539 600.138 535.738C604.492 549.65 608.251 563.727 612.243 577.748L636.179 662.13L648.039 704.116C654.193 726.226 661.454 742.269 628.959 741.417C622.347 741.246 613.199 741.577 606.574 741.95C614.754 735.631 623.651 727.751 625.359 717.121C628.114 699.971 616.205 694.643 602.447 692.476L601.871 692.39L601.834 691.459C622.573 670.757 605.416 650.692 580.563 651.403C577.661 651.488 574.636 651.525 571.715 651.617C574.905 647.876 578.248 644.177 579.963 639.499C583.863 628.827 575.713 617.303 565.384 614.352C547.378 609.215 527.094 614.701 510.897 622.912C504.638 598.689 496.688 574.283 489.653 550.25C481.362 521.925 506.874 525.905 525.621 525.041L582.522 522.537Z" fill="#2C3743"/>
<path d="M507.937 544.127C513.086 542.62 518.485 545.547 520.032 550.684C521.58 555.822 518.697 561.247 513.574 562.839C508.389 564.449 502.887 561.522 501.32 556.324C499.755 551.125 502.725 545.645 507.937 544.127Z" fill="#01070E"/>
<path d="M513.311 567.982C516.448 566.616 520.081 567.045 522.81 569.115C525.539 571.178 526.938 574.558 526.469 577.95C526.001 581.342 523.737 584.214 520.55 585.463C515.75 587.343 510.328 585.041 508.355 580.277C506.383 575.513 508.586 570.045 513.311 567.982Z" fill="#01070E"/>
<path d="M831.497 365.138C833.689 364.834 837.247 364.825 839.574 364.794C860.276 364.522 890.891 365.996 890.842 393.994C890.891 409.36 884.847 424.119 874.04 435.038C871.652 437.03 868.511 439.154 865.946 440.996C856.583 426.598 847.448 411.144 838.288 396.514C833.04 388.124 824.235 374.96 819.949 366.495C823.801 365.882 827.621 365.532 831.497 365.138Z" fill="#2C3743"/>
<path d="M677.676 362.091C689.432 360.855 716.3 363.718 725.644 372.029C741.968 386.547 731.179 414.191 718.823 428.168C717.292 430.175 714.145 432.687 712.143 434.419C699.046 414.874 687.663 393.362 674.572 373.673C672.221 370.141 669.931 366.254 667.867 362.542L677.676 362.091Z" fill="#2C3743"/>
<path d="M813.325 367.392C814.941 367.88 824.132 383.973 825.675 386.461C837.26 405.493 848.991 424.436 860.87 443.284L855.237 445.983C853.449 444.17 809.02 373.018 807.918 369.762C809.247 368.148 811.194 367.965 813.325 367.392Z" fill="#2C3743"/>
<path d="M660.805 363.827L662.311 363.94C664.552 366.41 665.838 369.013 667.534 371.857C680.546 393.732 694.519 414.89 706.912 437.144L701.37 439.57C699.27 437.005 688.665 418.942 686.05 414.685L667.155 383.768C663.854 378.342 659.042 370.87 656.488 365.398C657.841 363.945 658.38 364.302 660.805 363.827Z" fill="#2C3743"/>
<path d="M942.238 229.174C944.785 229.131 951.962 235.195 954.895 237.235C954.246 235.812 954.417 235.436 954.441 233.927C954.478 231.505 948.582 227.93 946.794 226.565L947.026 225.584C951.123 228.239 954.839 231.295 958.519 234.49C1001.52 271.796 1018.81 320.096 1020.1 375.376C1038.08 395.342 1047.31 414.577 1045.99 442.334C1044.64 469.358 1032.54 494.72 1012.38 512.771C993.629 529.811 976.699 533.877 987.457 566.794C992.772 583.057 1010.01 595.126 1021.73 606.619C1040.86 625.367 1056.86 645.237 1069.77 668.682C1071.39 671.603 1077.5 685.086 1079.46 685.814C1079.38 688.257 1091.8 720.373 1093.69 726.588C1100.92 751.239 1105.17 776.674 1106.35 802.342C1106.52 805.71 1107.6 812.402 1105.51 814.821C1103.08 815.678 1099.34 815.715 1096.88 815.194C1099.57 814.931 1098.66 815.488 1100.38 814.178C1101.79 806.371 1099.48 787.855 1098.52 779.472C1092.2 724.426 1070.37 670.335 1034.01 628.221C1022.19 614.683 1009 602.718 995.809 590.429C976.931 572.85 969.437 534.661 994.462 518.888C1032.68 494.806 1051.82 445.382 1032.43 403.052C1027.37 392.003 1022.06 385.877 1013.79 377.433C1014.36 370.107 1013.27 354.315 1012.11 346.867C1004.12 295.679 982.724 260.295 942.238 229.174Z" fill="#01070E"/>
<path d="M498.18 623.236C499.243 624.89 500.306 627.069 501.857 627.914C503.6 629.396 504.434 630.37 505.965 632.09C493.361 641.446 485.429 652.186 483.461 668.069C480.264 693.878 490.667 725.816 502.263 748.71C496.16 766.289 497.774 783.354 505.477 800.345C507.515 804.84 512.702 810.84 513.908 814.9C508.705 815.794 505.657 813.473 502.961 808.875C491.885 789.979 490.847 769.589 495.594 748.563C482.135 720.562 468.991 678.656 483.169 648.751C486.613 641.489 494.065 634.79 499.616 629.023C500.018 627.302 498.859 625.024 498.18 623.236Z" fill="#01070E"/>
<path d="M658.633 814.937C659.331 782.283 667.934 747.387 677.449 716.289C678.9 711.562 680.302 701.269 685.887 700.938C686.676 701.569 687.001 701.538 687.16 702.597C687.485 704.814 674.045 750.296 672.459 757.576C668.179 777.256 666.789 795.159 664.744 814.974L658.633 814.937Z" fill="#01070E"/>
<path d="M967.781 814.931C964.94 786.036 959.484 760.338 949.136 733.341C948.554 731.823 948.554 729.98 948.836 728.375C950.312 726.887 949.387 727.396 951.965 727.334C956.049 729.68 963.574 758.133 965.111 763.877C968.975 778.26 973.647 800.217 973.781 814.98L967.781 814.931Z" fill="#01070E"/>
<path d="M755.53 425.72C755.665 425.709 755.8 425.698 755.928 425.687C788.221 425.816 792.746 460.718 821.543 471.648C835.228 477.967 850.995 470.503 862.916 482.082C871.403 490.323 869.223 505.472 861.722 513.444C854.901 520.7 848.239 518.361 840.518 521.9C834.658 524.588 828.774 529.695 823.092 532.848C805.225 544.163 792.415 548.437 771.45 548.541C748.587 547.096 740.039 539.798 721.921 527.362C711.763 520.388 709.442 526.486 702.045 511.032C699.786 511.625 697.594 512.121 695.237 512.636C681.307 516.285 661.511 508.166 660.17 492.35C657.794 464.301 684.16 470.877 698.476 466.382C724.474 458.215 726.329 429.021 755.53 425.72Z" fill="#01070E"/>
<path d="M753.492 431.733C782.632 429.347 789.11 462.882 813.094 473.969C821.103 478.255 828.989 480.349 838.088 480.502C845.564 480.624 856.372 480.661 860.437 488.223C864.46 495.718 862.654 506.182 855.729 511.295C850.879 514.871 843.354 513.873 838.002 516.536C828.904 521.857 820.643 528.433 811.232 533.356C793.047 542.859 774.519 545.761 754.747 539.828C742.348 536.105 736.629 530.344 726.324 523.223C722.473 520.584 716.141 519.426 712.406 516.175C710.025 514.099 709.173 512.048 707.777 509.36C739.262 502.367 747.577 514.785 775.572 520.841C801.374 525.739 818.709 516.855 838.884 501.853C841.37 503.127 843.042 504.315 845.772 502.943L846.048 501.706C844.162 497.781 839.049 492.595 834.347 493.434C832.877 495.601 834.108 495.718 833.459 499.386C828.04 504.927 813.161 511.448 805.844 513.916C775.155 524.263 749.965 499.624 719.803 501.541C705.102 502.478 689.702 512.354 675.484 504.798C667.414 500.42 662.699 489.215 667.959 481.01C674.554 470.711 688.086 475.873 698.281 472.714C709.057 469.37 718.217 461.729 725.571 453.43C734.688 443.137 739.158 434.751 753.492 431.733Z" fill="#FBB51E"/>
<path d="M767.023 454.571C769.368 455.155 769.84 455.455 770.446 457.592C769.84 461.333 767.39 464.129 765.039 467.123C762.651 466.315 762.443 466.064 761.77 463.854C762.425 459.894 764.531 457.735 767.023 454.571Z" fill="#01070E"/>
<path d="M735.123 452.629C737.774 452.989 738.221 453.198 739.213 455.483C739.079 458.064 737.958 459.76 736.795 462.1C730.121 460.891 732.821 456.822 735.123 452.629Z" fill="#01070E"/>
<path d="M811.184 601.849C819.039 593.981 851.975 568.288 864.221 580.057C874.245 589.695 873.994 644.024 863.18 653.295C850.708 663.985 821.189 642.585 811.03 633.327C802.293 642.316 792.778 643.559 783.685 634.117C784.089 633.56 784.591 632.887 785.179 632.084C784.512 628.46 781.964 620.738 781.977 617.224C781.983 614.542 785.589 606.698 785.797 603.6C785.877 602.412 785.565 602.59 784.493 601.341C794.48 592.505 800.995 595.554 810.792 601.788L811.184 601.849Z" fill="#01070E"/>
<path d="M810.792 601.787L811.183 601.849C814.025 607.702 814.465 609.588 815.127 615.846L820.16 615.889C822.652 615.889 826.191 615.693 827.912 617.75C825.493 620.089 818.745 619.538 815.329 619.514C814.839 622.973 813.639 631.147 810.081 632.237C807.608 629.023 811.312 620.432 810.834 616.023C810.381 611.86 809.047 607.684 808.918 603.606L810.792 601.787Z" fill="#2C3743"/>
<path d="M783.143 633.848C762.637 650.282 727.748 674.603 725.624 632.495C725.042 620.873 722.905 590.797 731.018 581.361C743.215 567.174 774.908 593.044 783.878 601.341H784.491C785.562 602.59 785.874 602.412 785.795 603.6C785.587 606.698 781.98 614.542 781.974 617.224C781.962 620.738 784.509 628.459 785.176 632.084C784.589 632.886 784.086 633.56 783.682 634.117L783.143 633.848Z" fill="#01070E"/>
<path d="M783.881 601.34H784.493C785.565 602.589 785.877 602.412 785.798 603.6C785.589 606.698 781.983 614.542 781.977 617.223C781.964 620.738 784.512 628.459 785.179 632.084C784.591 632.886 784.089 633.56 783.685 634.117L783.146 633.848C780.225 628.416 779.411 621.301 778.168 619.465L776.558 619.201C773.429 619.734 766.743 621.014 765.328 617.468L766.222 616.336C769.614 614.86 772.106 615.497 775.774 616.109L777.642 616.03C778.413 615.521 781.805 604.677 783.881 601.34Z" fill="#2C3743"/>
<path d="M105.67 392.277C149.57 388.605 188.158 421.162 191.929 465.054C195.701 508.944 163.231 547.611 119.348 551.48C75.3233 555.362 36.5105 522.763 32.7277 478.732C28.9443 434.699 61.6285 395.96 105.67 392.277Z" fill="#01070E"/>
<path d="M105.983 397.231C147.16 393.737 183.379 424.273 186.896 465.446C190.413 506.623 159.896 542.859 118.722 546.398C77.5172 549.937 41.2479 519.396 37.729 478.188C34.2095 436.981 64.7739 400.729 105.983 397.231Z" fill="#F1F6EF"/>
<path d="M104.326 428.6C116.058 428.047 121.719 434.674 116.17 445.668C121.666 445.854 126.79 445.442 132.355 445.913C142.765 446.795 135.289 461.502 138.635 465.905C143.497 464.712 150.132 463.455 152.314 468.819C157.411 481.341 150.029 488.585 137.921 484.856C137.776 496.244 142.43 510.872 125.681 508.699C122.29 508.258 119.367 509.158 115.88 507.786C112.983 502.588 118.261 501.363 111.253 495.932C97.0764 492.246 102.155 504.149 98.3475 507.884C95.2064 508.944 80.5306 509.097 77.7373 508.001C73.0232 506.158 73.982 487.629 76.3137 484.231C80.3555 482.247 90.9196 486.741 88.8457 472.444C87.8269 465.415 75.4075 472.689 74.6789 464.819C72.4752 441.016 80.9299 445.811 98.9696 445.696C94.3681 437.711 96.1726 432.742 104.326 428.6Z" fill="#109012"/>
<path d="M111.233 167.441C155.273 166.789 191.522 201.923 192.246 245.962C192.969 290.001 157.893 326.307 113.855 327.101C69.7172 327.897 33.3102 292.723 32.5852 248.584C31.8602 204.445 67.0922 168.095 111.233 167.441Z" fill="#01070E"/>
<path d="M103.628 173.049C144.655 168.201 181.842 197.532 186.686 238.559C191.53 279.585 162.196 316.77 121.169 321.61C80.1466 326.45 42.9681 297.121 38.1247 256.099C33.2814 215.077 62.6071 177.896 103.628 173.049Z" fill="#F1F6EF"/>
<path d="M128.845 207.4C131.456 207.491 130.381 207.06 132.31 208.359C133.289 211.237 123.775 235.176 122.067 240.146C126.914 240.489 135.08 239.653 139.293 241.577L139.643 242.609C137.382 248.944 105.228 286.396 98.9081 289.973C97.79 288.911 97.8206 288.897 96.8813 287.676C96.2813 283.153 103.35 263.03 105.054 256.481C99.8382 256.348 90.9604 257.273 86.4134 255.565C85.7031 254.109 85.9021 253.363 86.5065 251.783C88.393 246.852 101.831 222.896 104.675 220.753C108.401 217.946 123.918 210.095 128.845 207.4Z" fill="#109012"/>
<path d="M104.019 616.979C147.769 612.35 187.011 644.006 191.746 687.743C196.48 731.48 164.92 770.802 121.193 775.639C77.3163 780.495 37.8343 748.802 33.0834 704.918C28.3332 661.028 60.1191 621.62 104.019 616.979Z" fill="#01070E"/>
<path d="M103.822 622C144.926 617.279 182.055 646.822 186.685 687.939C191.315 729.055 161.687 766.118 120.562 770.655C79.5648 775.18 42.6422 745.667 38.0273 704.679C33.4117 663.691 62.8458 626.702 103.822 622Z" fill="#F1F6EF"/>
<path d="M109.316 652.817C124.43 651.972 135.236 660.691 136.062 676.354C136.248 679.887 135.501 683.598 136.597 686.971C138.266 688.257 142.647 691.38 142.707 693.162C142.971 700.871 144.686 726.159 140.877 732.27C138.669 735.809 119.857 734.645 115.356 734.584C106.905 734.529 90.5776 736.109 83.6971 732.588C79.3026 727.065 81.1009 700.234 81.8737 692.513C82.1388 689.855 88.5098 688.435 88.6635 684.834C89.3652 668.382 90.1159 656.601 109.316 652.817Z" fill="#109012"/>
<path d="M109.388 662.497C110.317 662.442 111.247 662.412 112.177 662.406C127.075 662.455 125.927 676.856 125.775 687.296L115.758 687.381L98.9406 687.363C98.8868 675.301 96.7045 667.953 109.388 662.497Z" fill="#F1F6EF"/>
<path d="M109.82 700.975C124.139 700.221 116.054 709.884 115.727 717.072C115.638 719.025 115.86 718.976 115.321 720.997C112.919 721.132 112.023 721.132 109.631 720.923C108.678 719.68 108.596 716.882 108.653 715.449C108.863 710.208 105.504 709.951 105.73 705.279C107.047 702.818 107.487 702.689 109.82 700.975Z" fill="#F1F6EF"/>
<path d="M237.407 229.243L343.78 229.147C362.551 229.146 381.395 229.025 400.165 229.055C414.47 229.079 414.877 242.324 403.309 243.885C369.832 244.808 331.981 244.043 298.241 243.965C285.837 243.907 273.433 243.949 261.029 244.093C253.734 244.153 238.037 245.351 232.41 242.071C226.015 238.342 228.855 230.02 237.407 229.243Z" fill="#B8B7B8"/>
<path d="M234.609 680.291L343.58 680.218C361.992 680.218 380.415 680.144 398.817 680.193C401.774 680.26 407.482 681.73 407.927 685.386C408.73 691.98 405.677 693.884 400.24 694.656C356.416 694.913 312.592 694.901 268.768 694.619C257.84 694.472 245.513 695.44 234.867 694.374C227.785 693.67 227.042 684.424 234.609 680.291Z" fill="#B8B7B8"/>
<path d="M233.71 454.989C245.46 454.486 259.954 454.856 271.887 454.859L344.388 454.882L382.079 454.857C386.954 454.858 404.672 453.259 407.36 458.457C409.474 462.544 407.045 466.492 403.271 468.923C402.123 468.978 400.975 469.021 399.826 469.052C363.857 469.725 325.621 469.046 289.481 469.04L254.866 469.082C248.848 469.107 240.979 469.536 235.191 468.844C227.61 467.937 227.639 459.006 233.71 454.989Z" fill="#B8B7B8"/>
<path d="M236.724 722.154C248.944 721.879 351.679 720.942 355.681 723.005C357.522 723.954 358.877 725.577 359.347 727.604C359.836 729.71 359.548 732.263 358.137 733.978C356.487 735.98 354.036 736.366 351.617 736.648C337.588 736.623 238.57 738.233 233.786 735.937C231.837 735 230.047 733.378 229.43 731.241C228.82 729.128 229.667 727.034 230.823 725.283C232.285 723.067 234.236 722.577 236.724 722.154Z" fill="#B8B7B8"/>
<path d="M249.91 496.832L315.38 496.851C322.076 496.838 353.556 495.846 356.842 498.406C358.412 499.606 359.407 501.406 359.587 503.372C360.535 513.26 346.179 511.258 339.946 511.142L272.949 511.148C261.166 511.166 249.462 511.215 237.645 511.044C226.838 510.885 227.134 499.018 234.926 497.218C237.907 496.526 246.454 496.826 249.91 496.832Z" fill="#B8B7B8"/>
<path d="M233.826 271.95C241.263 271.418 252.148 271.742 259.877 271.748L307.266 271.796L337.579 271.77C342.009 271.77 350.493 271.314 354.607 272.309C362.118 274.126 360.741 282.199 355.063 285.885C340.754 286.33 324.286 285.97 309.78 285.974L241.094 286.062C237.698 286.043 233.032 286.247 230.808 283.363C227.411 278.955 230.132 274.583 233.826 271.95Z" fill="#B8B7B8"/>
</svg>
