<svg width="1254" height="1254" viewBox="0 0 1254 1254" fill="none" xmlns="http://www.w3.org/2000/svg">
<path d="M317.575 404.406C320.467 402.015 324.228 398.587 327.255 395.827C346.572 378.21 373.961 364.405 400.534 364.969C403.29 365.071 408.168 366.586 409.735 369.07C417.834 381.901 393.696 403.779 385.79 410.215C447.346 418.064 492.076 454.117 515.742 508.601C515.864 508.798 515.985 508.995 516.108 509.193C522.825 508.081 551.514 504.524 557.672 509.829C560.117 511.936 559.671 522.734 559.579 526.616C556.934 528.343 554.766 530.001 552.271 531.905C551.92 551.545 551.672 558.266 545.228 576.794C557.675 595.779 561.819 620.706 557.707 642.895C553.428 666.145 540.717 687 522.01 701.45C515.558 706.336 509.025 709.514 502.431 714.058C500.836 721.577 500.237 732.121 500.071 739.75C527.379 757.311 541.582 779.372 561.113 803.797C579.871 827.248 610.46 850.987 637.53 864.256C641.693 845.489 648.637 825.332 652.617 806.895C660.191 771.767 671.911 776.696 701.969 774.21L760.946 769.722L885.96 759.674L954.569 754.059C966.448 753.104 980.671 751.61 992.63 752.174C997.136 752.755 1001.35 756.349 1003.67 759.913C1008.61 767.512 1003.46 782.256 1001.47 790.553L991.907 828.938L960.582 956.818L949.738 999.992C947.466 1008.99 944.582 1019.29 942.923 1028.32L1050.73 1028.41C1049.58 1020.33 1044.22 985.835 1047.12 979.069C1049.81 972.805 1091.05 967.717 1096.54 970.001L1096.62 970.332C1098.76 971.072 1098.68 970.876 1100 973.613C1102.45 978.72 1103.86 984.568 1106.21 989.686C1110.12 989.889 1123.05 989.656 1125.51 990.017C1128.2 989.852 1131.09 989.619 1133.77 989.582C1135.16 984.347 1138.69 973.252 1141.82 969.04C1147.18 969.756 1155.37 970.472 1160.86 970.472C1165.96 970.509 1171.29 971.783 1176.36 972.848C1184.51 974.563 1192.55 977.269 1191.63 987.231C1190.42 1000.49 1186.12 1014.91 1185.78 1028.11C1191.95 1028.25 1214.07 1027.57 1217.79 1029.14C1218.8 1030.94 1218.58 1030.01 1218.58 1032.02C1215.5 1035.9 1190.56 1034.34 1184.5 1034.28C1182.98 1041.61 1181.69 1051.15 1180.71 1058.55C1177.52 1082.7 1177.31 1087.54 1151.8 1091.57C1126.74 1095.33 1101.2 1094.56 1076.41 1089.28C1070.14 1087.89 1065.26 1086.15 1060.39 1081.82C1056.13 1070.19 1054.86 1047.18 1051.77 1034.32L941.502 1034.31C938.937 1044.04 937.283 1060.76 926.942 1065.67C919.214 1069.34 861.297 1073.63 849.43 1074.8L735.994 1085.87C701.234 1089.66 666.437 1093.1 631.609 1096.21C618.965 1097.24 605.792 1099.17 593.258 1099.15C583.63 1099.14 572.204 1097.27 562.614 1095.97L511.703 1088.86L406.518 1074.61C399.112 1073.57 391.57 1073.16 384.102 1072.22C379.387 1071.63 376.396 1069.26 374.996 1064.58C373.869 1060.43 373.944 1055.14 375.514 1051.07C374.674 1050.4 375.132 1050.62 374.162 1050.4C370.37 1050.38 366.576 1050.43 362.785 1050.54C362.474 1052.66 362.554 1053.26 361.192 1054.93C356.906 1057.17 287.568 1055.48 275.729 1055.99C237.972 1085.78 184.505 1088.88 147.571 1056.09C134.77 1055.19 49.1694 1056.97 44.9855 1055.09C43.8388 1052.99 43.9947 1054.04 44.1802 1051.9C47.7277 1047.82 65.3487 1049.34 71.2495 1049.36C84.0822 1049.33 96.9155 1049.37 109.748 1049.48C119.953 1049.64 131.767 1050.22 141.875 1049.44C130.502 1033.78 124.518 1017.82 122.758 998.412C113.483 896.194 203.285 812.786 264.299 739.964C258.349 736.878 252.508 734.57 246.62 731.325C229.187 721.705 212.603 705.534 203.58 687.618C199.367 687.11 195.783 686.975 191.951 684.955C162.161 669.249 162.614 619.469 183.421 597.875C183 591.17 181.688 584.227 181.116 577.422C177.585 535.441 194.869 493.861 222.941 463.157C232.583 452.611 248.59 438.382 261.862 432.348C265.275 412.242 269.95 395.337 284.357 379.541C288.623 375.081 295.325 370.093 301.768 370.379C318.957 371.145 318.531 392.531 317.575 404.406Z" fill="#FAFAF9"/>
<path d="M317.575 404.406C320.467 402.015 324.228 398.587 327.255 395.827C346.572 378.21 373.961 364.405 400.534 364.969C403.29 365.071 408.168 366.586 409.735 369.07C417.834 381.901 393.696 403.779 385.79 410.215C447.346 418.064 492.076 454.117 515.742 508.601C515.864 508.798 515.985 508.995 516.108 509.193C522.825 508.081 551.514 504.524 557.672 509.829C560.117 511.936 559.671 522.734 559.579 526.616C556.934 528.343 554.766 530.001 552.271 531.905C551.92 551.545 551.672 558.266 545.228 576.794C557.675 595.779 561.819 620.706 557.707 642.895C553.428 666.145 540.717 687 522.01 701.45C515.558 706.336 509.025 709.514 502.431 714.058C500.836 721.577 500.237 732.121 500.071 739.75C527.379 757.311 541.582 779.372 561.113 803.797C579.871 827.248 610.46 850.987 637.53 864.256C641.693 845.489 648.637 825.332 652.617 806.895C660.191 771.767 671.911 776.696 701.969 774.21L760.946 769.722L885.96 759.674L954.569 754.059C966.448 753.104 980.671 751.61 992.63 752.174C997.136 752.755 1001.35 756.349 1003.67 759.913C1008.61 767.512 1003.46 782.256 1001.47 790.553L991.907 828.938L960.582 956.818L949.738 999.992C947.466 1008.99 944.582 1019.29 942.923 1028.32L1050.73 1028.41C1049.58 1020.33 1044.22 985.835 1047.12 979.069C1049.81 972.805 1091.05 967.717 1096.54 970.001L1096.62 970.332C1098.76 971.072 1098.68 970.876 1100 973.613C1102.45 978.72 1103.86 984.568 1106.21 989.686C1110.12 989.889 1123.05 989.656 1125.51 990.017C1128.2 989.852 1131.09 989.619 1133.77 989.582C1135.16 984.347 1138.69 973.252 1141.82 969.04C1147.18 969.756 1155.37 970.472 1160.86 970.472C1165.96 970.509 1171.29 971.783 1176.36 972.848C1184.51 974.563 1192.55 977.269 1191.63 987.231C1190.42 1000.49 1186.12 1014.91 1185.78 1028.11C1191.95 1028.25 1214.07 1027.57 1217.79 1029.14C1218.8 1030.94 1218.58 1030.01 1218.58 1032.02C1215.5 1035.9 1190.56 1034.34 1184.5 1034.28C1182.98 1041.61 1181.69 1051.15 1180.71 1058.55C1177.52 1082.7 1177.31 1087.54 1151.8 1091.57C1126.74 1095.33 1101.2 1094.56 1076.41 1089.28C1070.14 1087.89 1065.26 1086.15 1060.39 1081.82C1056.13 1070.19 1054.86 1047.18 1051.77 1034.32L941.502 1034.31C938.937 1044.04 937.283 1060.76 926.942 1065.67C919.214 1069.34 861.297 1073.63 849.43 1074.8L735.994 1085.87C701.234 1089.66 666.437 1093.1 631.609 1096.21C618.965 1097.24 605.792 1099.17 593.258 1099.15C583.63 1099.14 572.204 1097.27 562.614 1095.97L511.703 1088.86L406.518 1074.61C399.112 1073.57 391.57 1073.16 384.102 1072.22C379.387 1071.63 376.396 1069.26 374.996 1064.58C373.869 1060.43 373.944 1055.14 375.514 1051.07C374.674 1050.4 375.132 1050.62 374.162 1050.4C378.062 1049.86 379.179 1048.47 384.448 1048.28C390.606 1046.78 409.662 1045.6 417.36 1044.83L496.622 1037.1C482.935 1014.91 509.307 975.971 526.63 962.702C542.316 950.689 554.258 946.654 573.352 944.009C569.811 912.628 561.101 883.341 545.325 855.892C542.314 850.65 538.984 845.305 536.498 839.813C536.801 837.492 536.29 838.392 537.897 836.923C539.119 836.959 540.412 836.898 541.22 838.098C561.555 868.242 575.928 907.889 578.665 943.739C593.852 943.911 600.799 945.025 615.003 950.425C617.073 939.588 621.022 926.313 623.894 915.469L635.57 870.036C611.831 856.78 593.554 844.901 573.963 825.864C567.776 819.741 561.913 813.306 556.398 806.577C542.556 789.493 515.969 751.371 494.718 744.446C494.373 736.535 494.684 718.233 498.112 710.898C499.457 708.02 511.281 702.607 514.592 700.164C532.093 687.232 545.085 669.684 550.819 648.994C556.974 626.878 554.032 603.222 542.647 583.289C519.021 625.494 465.16 618.691 445.395 577.811C441.168 569.071 439.834 556.392 427.337 557.556C421.766 558.075 418.149 560.629 414.711 564.922C413.017 581.214 411.438 592.355 405.052 606.929C382.327 658.797 310.699 654.18 290.219 602.979C287.257 595.575 285.831 589.837 278.421 586.433L277.638 586.08C274.873 586.547 270.666 587.838 268.055 587.789C261.807 587.673 258.651 570.055 263.586 567.777C304.961 548.673 364.119 531.527 409.185 541.865C417.977 535.617 424.8 535.28 434.956 536.444C457.74 521.145 482.484 513.68 509.362 509.756C504.629 497.125 497.998 485.29 489.699 474.658C462.79 440.068 424.37 419.079 381.671 415.948C378.74 415.733 377.588 415.588 375.804 413.298C377.2 407.743 411.308 383.031 405.272 372.508C402.68 370.814 399.123 370.345 395.994 370.51C370.809 371.844 346.237 386.107 327.748 402.527C324.024 405.834 319.306 412.633 315.511 416.219C314.14 417.516 313.671 417.19 312.288 416.981C311.878 416.629 311.469 416.277 311.059 415.925C312.482 403.446 317.923 360.758 291.272 381.18C278.396 391.047 269.016 416.416 267.322 435.317C261.173 439.367 254.754 442.69 248.823 447.221C203.275 482.015 175.821 541.287 190.192 598.164C172.76 616.309 169.345 645.443 181.567 667.486C187.445 678.085 195.291 681.691 206.877 681.801C215.913 703.238 239.725 723.132 260.695 732.084C268.269 735.317 276.126 737.686 283.495 741.226C284.317 742.854 284.116 741.991 283.951 743.938L282.794 744.807C277.86 745.408 274.654 743.577 270.021 741.709C262.391 750.073 254.801 759.809 247.302 768.657C191.084 835 117.937 908.225 129.166 1002.95C135.183 1053.71 176.519 1079.93 225.045 1072.73C246.118 1069.6 272.564 1056.15 285.273 1038.63C285.03 1035.54 283.875 1037.71 282.767 1034.67C284.755 1031.39 293.218 1030.59 297.308 1028.46C311.88 1020.86 318.107 1003.65 309.981 988.78L309.543 987.996C304.095 991.205 293.784 996.771 287.48 995.767C285.777 994.273 286.337 995.222 286.131 992.607C288.267 988.59 299.721 988.07 305.079 984.219C314.462 977.483 319.39 963.039 311.636 953.046C303.741 942.876 291.21 950.53 283.077 950.009C281.041 948.417 280.522 947.903 281.458 945.656C286.449 941.859 298.048 941.449 304.333 942.276C312.612 927.899 308.25 912.101 291.445 907.576C264.945 900.449 233.191 916.859 211.983 931.475C205.966 935.62 197.88 943.678 192.153 946.654C190.171 946.084 190.934 946.629 189.734 945.043C189.941 938.339 214.049 922.829 219.714 919.48C226.234 915.628 234.84 911.654 241.754 908.268C244.129 902.482 254.126 878.388 260.422 877.543C262.026 878.321 261.889 878.314 262.736 879.913C262.052 882.545 256.434 890.499 254.783 893.72C252.538 898.092 251.244 901.159 249.393 905.733C259.142 902.739 264.191 901.557 274.432 900.523C280.535 886.029 294.393 879.557 309.208 885.117C310.167 887.756 310.378 887.187 310.012 889.63C305.468 891.926 292.636 882.3 280.094 899.99C285.758 900.817 289.057 901.386 294.496 903.296C301.588 899.635 302.98 900.241 310.509 902.39C310.873 913.289 312.408 918.071 313.647 928.272C314.03 931.42 312.026 941.137 312.354 947.401C325.822 959.843 322.785 970.821 313.178 984.476C318.71 992.123 316.927 995.289 318.793 999.153C319.922 1018.89 310.8 1028.81 293.7 1036.17C289.888 1041.63 287.876 1044.62 283.29 1049.51C295.685 1049.51 357.646 1048.17 362.785 1050.54C362.474 1052.66 362.554 1053.26 361.192 1054.93C356.906 1057.17 287.568 1055.48 275.729 1055.99C237.972 1085.78 184.505 1088.88 147.571 1056.09C134.77 1055.19 49.1694 1056.97 44.9855 1055.09C43.8388 1052.99 43.9947 1054.04 44.1802 1051.9C47.7277 1047.82 65.3487 1049.34 71.2495 1049.36C84.0822 1049.33 96.9155 1049.37 109.748 1049.48C119.953 1049.64 131.767 1050.22 141.875 1049.44C130.502 1033.78 124.518 1017.82 122.758 998.412C113.483 896.194 203.285 812.786 264.299 739.964C258.349 736.878 252.508 734.57 246.62 731.325C229.187 721.705 212.603 705.534 203.58 687.618C199.367 687.11 195.783 686.975 191.951 684.955C162.161 669.249 162.614 619.469 183.421 597.875C183 591.17 181.688 584.227 181.116 577.422C177.585 535.441 194.869 493.861 222.941 463.157C232.583 452.611 248.59 438.382 261.862 432.348C265.275 412.242 269.95 395.337 284.357 379.541C288.623 375.081 295.325 370.093 301.768 370.379C318.957 371.145 318.531 392.531 317.575 404.406Z" fill="#0B2135"/>
<path d="M1141.82 969.04C1147.18 969.756 1155.37 970.472 1160.86 970.472C1161.61 971.985 1161.94 973.087 1164.25 973.381C1167.16 973.748 1180.54 978.279 1182.17 978.469C1183.68 978.426 1184.56 978.604 1185.9 979.883C1186.97 980.924 1187.44 982.443 1187.13 983.9C1187.04 984.341 1186.75 984.715 1186.5 985.076C1184.22 997.806 1174.66 1071.31 1170.87 1078.05C1169.18 1081.09 1164.84 1082.71 1161.71 1083.63C1143.18 1089.11 1084.91 1090.18 1068.66 1080.66C1065.13 1078.59 1064.37 1075.68 1063.5 1071.89C1061.91 1064.97 1050.05 987.831 1050.79 984.806C1050.87 984.464 1051.17 984.2 1051.36 983.9L1052.87 984.041L1052.73 982.418L1052.27 981.482L1052.75 980.318C1059.82 975.089 1086.89 971.593 1096.62 970.332C1098.76 971.072 1098.68 970.876 1100 973.613C1102.45 978.72 1103.86 984.568 1106.21 989.686C1110.13 989.889 1123.05 989.656 1125.51 990.017C1128.2 989.852 1131.09 989.619 1133.77 989.582C1135.16 984.347 1138.69 973.252 1141.82 969.04Z" fill="#FAFAF9"/>
<path d="M1096.62 970.332C1098.76 971.072 1098.68 970.876 1100 973.613C1102.45 978.72 1103.86 984.568 1106.21 989.686C1095.82 989.24 1083.75 988.407 1073.52 988.444C1071.93 989.484 1071.88 989.754 1070.04 989.895C1063.9 988.86 1057.82 988.027 1052.87 984.041L1052.73 982.418L1052.27 981.482L1052.75 980.318C1059.83 975.089 1086.89 971.593 1096.62 970.332Z" fill="#FAFAF9"/>
<path d="M1052.73 982.418C1060.45 986.521 1064.8 987.47 1073.52 988.444C1071.93 989.485 1071.87 989.754 1070.04 989.895C1063.9 988.86 1057.82 988.027 1052.87 984.041L1052.73 982.418Z" fill="#131A20"/>
<path d="M1141.83 969.04C1147.18 969.756 1155.37 970.472 1160.86 970.472C1161.62 971.985 1161.94 973.087 1164.26 973.381C1167.16 973.748 1180.54 978.279 1182.17 978.469L1186.94 982.663C1170.12 990.874 1152.62 989.313 1133.77 989.582C1135.17 984.347 1138.69 973.252 1141.83 969.04Z" fill="#FAFAF9"/>
<path d="M1182.17 978.469C1183.68 978.426 1184.57 978.604 1185.9 979.883C1186.97 980.924 1187.44 982.443 1187.13 983.9C1187.04 984.341 1186.75 984.715 1186.51 985.076C1153.6 998.314 1104.53 996.446 1070.05 989.895C1071.88 989.754 1071.93 989.484 1073.52 988.443C1083.76 988.407 1095.82 989.239 1106.21 989.686C1110.13 989.888 1123.05 989.656 1125.51 990.017C1128.2 989.852 1131.09 989.619 1133.77 989.582C1152.62 989.313 1170.12 990.874 1186.94 982.663L1182.17 978.469Z" fill="#131A20"/>
<path d="M496.623 1037.1C516.394 1056.05 526.925 1032.87 532.751 1033.27C551.233 1059.43 563.856 1034.5 571.118 1033.62C576.233 1038.21 576.2 1040.1 582.832 1044.52C564.031 1045.76 545.639 1046.64 526.893 1048.88C514.32 1050.38 495.287 1049.55 483.273 1053.25L482.803 1053.92C485.527 1055.35 504.132 1057.36 508.563 1058.09C533.474 1062.22 559.84 1064.34 584.598 1068.18L582.457 1076.22C575.501 1074.61 567.972 1074.1 560.844 1073.21L527.449 1068.89C514.093 1067.16 389.216 1051.21 384.449 1048.28C390.607 1046.78 409.663 1045.6 417.361 1044.83L496.623 1037.1Z" fill="#1F3349"/>
<path d="M572.951 949.917C584.562 948.037 602.658 951.479 613.598 955.575C607.685 978.328 601.701 1001.01 596.304 1023.9C593.347 1036.44 593.391 1043.02 579.002 1035.08C568.838 1018.17 580.932 1016.74 577.571 1005.66L576.459 1005.15C569.715 1009.37 569.567 1019 569.121 1025.86C561.587 1036.53 550.533 1045.39 539.315 1033.61C531.976 1018.91 544.657 1006.52 541.235 1001.48C533.106 1000.54 531.361 1020.7 531.106 1026.38C524.47 1032.73 514.013 1043.16 503.924 1036.36C501.136 1034.48 498.992 1029.6 498.793 1026.27C497.935 1010.22 506.653 993.415 516.368 981.133C531.435 962.084 549.27 952.734 572.951 949.917Z" fill="#FAFAF9"/>
<path d="M360.973 556.24C362.867 556.112 362.899 555.934 364.529 556.797L364.783 557.906C362.914 565.035 335.453 614.736 330.241 622.438C324.541 619.42 321.88 617.638 317.309 613.082C315.191 610.736 313.415 608.102 311.737 605.601C295.919 582.009 301.652 571.99 328.193 563.899C339.219 560.538 348.824 557.422 360.973 556.24Z" fill="#1F3349"/>
<path d="M804.434 888.552C836.36 887.138 829.52 932.767 800.681 943.323C768.559 946.697 774.101 897.706 804.434 888.552Z" fill="#FAFAF9"/>
<path d="M496.85 528.527C499.417 528.448 499.831 528.007 501.731 529.05C502.394 533.18 477.241 579.525 473.212 586.918C470.33 584.584 468.801 582.646 466.42 579.864C461.311 572.574 450.874 556.578 456.112 548.067C462.477 537.727 485.659 531.719 496.85 528.527Z" fill="#1F3349"/>
<path d="M584.347 1047.92C586.624 1047.77 586.905 1047.37 588.652 1048.25L589.128 1050.04C586.637 1057.49 531.837 1058.26 522.6 1056.76C519.908 1056.39 517.213 1056.04 514.516 1055.7C525.318 1053 536.509 1053.85 547.181 1052.13C559.992 1050.07 571.47 1048.96 584.347 1047.92Z" fill="#1F3349"/>
<path d="M309.211 885.117C310.327 879.423 306.934 870.048 313.965 866.442C342.399 851.857 381.319 853.712 412.523 857.135C420.506 858.016 440.073 863.76 444.382 870.501C448.003 876.165 445.597 896.469 445.207 903.939L442.763 952.048C442.11 964.331 441.837 977.648 440.9 989.895C440.534 994.677 434.277 1001.41 429.856 1003.91C407.98 1016.27 371.662 1016.7 347.648 1011.48C340.481 1009.92 329.944 1006.32 324.021 1002.07C322.229 1000.79 320.464 998.632 318.797 999.153C316.93 995.289 318.713 992.123 313.182 984.476C322.788 970.821 325.825 959.843 312.358 947.401C312.029 941.137 314.033 931.419 313.65 928.272C312.411 918.071 310.876 913.289 310.512 902.39C302.983 900.241 301.591 899.635 294.5 903.296C289.061 901.386 285.761 900.816 280.098 899.99C292.639 882.3 305.472 891.926 310.015 889.63C310.382 887.187 310.17 887.756 309.211 885.117Z" fill="#75D495"/>
<path d="M325.077 878.265C313.461 867.728 343.322 864.605 348.114 863.123C361.697 858.935 428.395 860.766 433.041 872.565C433.067 875.051 432.479 875.663 431.244 877.947C411.117 892.428 346.577 891.087 325.077 878.265Z" fill="#0B2135"/>
<path d="M325.077 878.265C313.461 867.728 343.322 864.605 348.114 863.123C361.697 858.935 428.395 860.766 433.041 872.565C433.067 875.051 432.479 875.663 431.244 877.947C408.101 866.129 358.405 866.699 333.28 874.671C330.719 875.485 327.234 876.692 325.077 878.265Z" fill="#59BA73"/>
<path d="M367.05 872.785C381.125 871.224 407.681 874.163 420.633 878.149C411.357 881.596 401.4 883.225 391.538 883.66C373.144 885.589 354.106 882.833 336.277 878.314C346.338 875.504 356.641 873.655 367.05 872.785Z" fill="#653B27"/>
<path d="M435.278 595.88C459.524 594.477 468.308 616.989 487.662 626.816C497.566 631.843 507.208 631.06 517.226 634.758C527.78 638.646 527.803 652.074 523.608 660.628C520.123 667.651 513.302 670.59 506.207 672.733C491.242 700.195 468.773 713.568 437.555 715.245C414.922 715.558 400.184 712.123 381.111 701.107C380.575 700.801 371.504 699.209 370.538 699.08C342.382 695.192 335.155 662.905 364.749 653.758C371.473 651.682 378.282 648.712 384.108 644.579C405.234 629.584 407.882 602.128 435.278 595.88Z" fill="#131A20"/>
<path d="M438.924 601.523C454.543 601.788 467.303 619.585 480.292 629.131C491.516 637.379 512.637 635.346 519.513 644.083C526.589 653.066 512.276 671.117 499.787 666.426C496.047 665.024 482.188 664.7 477.607 665.422C449.602 671.735 427.126 690.288 396.477 682.548C392.255 681.483 377.519 677.442 375.32 674.08C375.724 672.219 376.085 671.294 375.703 669.414L374.406 668.704C371.043 668.973 363.341 675.641 366.849 679.695C369.355 679.879 368.826 679.511 370.794 678.489C372.7 677.497 378.905 682.603 381.748 683.73C402.469 691.965 423.872 690.735 444.085 683.338C463.421 674.852 478.719 666.861 499.843 672.078C491.653 692.204 468.295 705.51 447.637 708.706C430.932 711.369 413.817 709.416 398.139 703.067C393.572 701.193 385.537 696.625 381.11 695.566C370.862 693.104 352.958 691.341 351.225 677.827C349.163 661.754 366.731 659.519 377.918 654.505C396.207 646.306 405.227 629.125 416.671 613.817C422.737 605.776 429.016 602.489 438.924 601.523Z" fill="#FBB32F"/>
<path d="M432.954 623.651C435.72 625.053 439.352 628.733 439.863 631.947C440.176 633.913 439.069 634.605 437.93 636.019C432.926 633.943 428.305 628.653 432.954 623.651Z" fill="#131A20"/>
<path d="M456.806 617.503C459.419 618.758 463.058 621.863 463.637 624.869C464 626.755 462.992 627.349 461.899 628.684C458.813 627.71 455.258 624.422 454.694 621.079C454.382 619.23 455.59 618.679 456.806 617.503Z" fill="#131A20"/>
<path d="M418.184 795.372C413.73 804.924 389.906 818.958 379.134 820.335C361.646 822.576 358.754 799.939 357.129 787.179C355.598 775.141 353.351 740.13 372.269 739.762C387.817 739.462 406.229 751.867 417.515 761.609C425.193 756.221 431.451 754.592 440.104 759.313C440.424 766.042 444.044 771.804 443.953 778.882C443.873 785.036 439.889 789.879 440.376 795.537C432.91 798.543 428.472 800.307 421.072 795.862C419.478 795.139 420.09 795.372 418.184 795.372Z" fill="#0B2135"/>
<path d="M412.59 776.476C414.625 776.427 415.554 776.794 416.879 775.821C417.104 771.89 415.811 766.305 416.961 763.844L418.001 763.036C424.035 764.524 421.602 791.128 421.069 795.861C419.475 795.139 420.088 795.371 418.182 795.371C416.472 792.69 419.414 783.799 416.903 780.333L415.209 780.088L412.59 776.476Z" fill="#1F3349"/>
<path d="M415.211 780.089C411.194 780.634 403.643 781.717 400.605 778.625L400.791 777.603C404.486 775.374 408.235 776.182 412.592 776.476L415.211 780.089Z" fill="#1F3349"/>
<path d="M441.03 759.086C448.357 748.034 473.839 725.973 486.332 736.492C498.55 746.779 499.203 792.463 489.675 805.346C480.205 818.155 457.232 805.395 448.5 798.053C446.646 796.486 444.813 794.882 443.003 793.259L440.373 795.537C439.886 789.879 443.87 785.036 443.95 778.882C444.041 771.804 440.421 766.042 440.102 759.313L441.03 759.086Z" fill="#0B2135"/>
<path d="M441.03 759.086C445.802 764.658 446.302 765.718 448.092 772.82C452.8 771.939 458.058 770.677 462.187 773.31L462.431 774.529C459.668 778.123 452.289 777.119 448.215 776.966C447.368 783.689 447.525 788.146 443.003 793.259L440.373 795.537C439.886 789.879 443.87 785.036 443.95 778.882C444.041 771.804 440.421 766.042 440.102 759.313L441.03 759.086Z" fill="#1F3349"/>
<path d="M753.463 197.289C753.763 196.987 754.064 196.684 754.364 196.382C756.188 194.437 758.356 192.962 761.099 192.663C778.378 190.787 795.792 190.927 813.139 190.063L940.48 183.647C950.803 183.03 961.408 182.77 971.787 182.33C982.073 181.895 993.113 179.262 1001.26 186.475C1002.63 188.131 1003.74 189.308 1004.72 191.235C1006.4 197.562 1006.5 218.6 1006.77 226.244L1009.06 286.908C1009.39 296.608 1013.22 342.24 1010.59 349.203C1008.79 350.928 1008.77 351.228 1007.74 353.584C1003.95 356.2 1000.95 358.099 996.157 358.456C982.912 359.44 969.246 359.557 955.977 360.125L862.172 363.86C843.699 364.633 825.091 366.031 806.544 366.539C793.086 366.907 779.229 368.844 765.71 367.897C763.793 367.799 760.462 365.492 759.017 364.2L755.9 360.023C754.021 353.755 754.443 340.601 754.149 333.49C753.084 310.481 752.349 287.457 751.945 264.426C751.553 249.88 747.879 214.172 750.714 202.033C751.565 200.393 752.514 198.87 753.463 197.289Z" fill="#FBB32F"/>
<path d="M753.465 197.289C753.765 196.987 754.065 196.684 754.365 196.382C756.19 194.437 758.357 192.962 761.1 192.663C778.38 190.787 795.793 190.927 813.14 190.063L940.481 183.647C950.804 183.03 961.41 182.77 971.788 182.33C982.075 181.895 993.115 179.262 1001.26 186.475C984.31 202.897 967.52 219.482 950.89 236.228C940.426 246.811 929.882 257.975 919.093 268.166C911.984 251.854 895.507 241.659 877.738 242.583C859.969 243.506 844.637 255.354 839.261 272.316C833.995 266.627 815.748 251.385 809.264 245.764L753.465 197.289Z" fill="#FBB32F"/>
<path d="M1001.27 186.476C1002.63 188.131 1003.74 189.308 1004.72 191.236C1006.4 197.563 1006.51 218.6 1006.78 226.244L1009.07 286.908C1009.39 296.608 1013.22 342.24 1010.6 349.204C1008.79 350.928 1008.77 351.228 1007.74 353.585C1005.17 351.797 1001.7 348.905 999.33 346.787C973.803 323.961 947.064 302.012 922.125 278.569C921.561 274.987 920.539 271.491 919.094 268.166C929.883 257.975 940.426 246.811 950.891 236.228C967.521 219.482 984.31 202.897 1001.27 186.476Z" fill="#FBB32F"/>
<path d="M1001.27 186.476C1002.63 188.131 1003.74 189.308 1004.72 191.236C1000.45 193.945 988.192 206.664 983.827 211.005L949.268 245.452C941.18 253.662 930.587 264.988 921.965 272.372C932.387 281.099 942.557 290.06 952.703 299.102C971.721 316.047 991.682 332.166 1010.6 349.204C1008.79 350.928 1008.77 351.228 1007.74 353.585C1005.17 351.797 1001.7 348.905 999.33 346.787C973.803 323.961 947.064 302.012 922.125 278.569C921.561 274.987 920.539 271.491 919.094 268.166C929.883 257.975 940.426 246.811 950.891 236.228C967.521 219.482 984.31 202.897 1001.27 186.476Z" fill="#DB8C1C"/>
<path d="M750.714 202.034C751.565 200.393 752.514 198.871 753.463 197.29L809.263 245.764C815.747 251.385 833.994 266.628 839.26 272.316C838.237 275.551 837.6 278.897 837.368 282.282C832.573 286.176 822.035 298.3 817.174 303.394C806.232 314.648 795.363 325.981 784.581 337.39C776.7 345.774 767.265 356.419 759.017 364.201L755.9 360.024C754.021 353.755 754.443 340.601 754.149 333.491C753.084 310.481 752.349 287.458 751.945 264.426C751.553 249.88 747.879 214.173 750.714 202.034Z" fill="#FBB32F"/>
<path d="M750.715 202.034C751.566 200.393 752.515 198.871 753.464 197.29L809.263 245.764C815.748 251.385 833.994 266.628 839.26 272.316C838.238 275.551 837.601 278.897 837.368 282.282C832.574 286.176 822.036 298.3 817.174 303.394C806.232 314.648 795.364 325.981 784.581 337.39C776.701 345.774 767.265 356.419 759.018 364.201L755.901 360.024L816.311 296.923C822.961 290.067 829.439 282.862 836.217 276.187C830.259 269.663 812.888 255.746 805.265 249.365C787.159 234.221 768.827 216.784 750.715 202.034Z" fill="#DB8C1C"/>
<path d="M839.263 272.316C844.639 255.354 859.971 243.506 877.74 242.583C895.509 241.659 911.986 251.854 919.095 268.166C920.54 271.491 921.563 274.987 922.126 278.569C924.679 294.77 917.724 311.001 904.235 320.327C890.739 329.654 873.099 330.427 858.844 322.316C844.59 314.205 836.244 298.644 837.371 282.282C837.603 278.897 838.24 275.551 839.263 272.316Z" fill="#F95350"/>
<path d="M876.158 259.067C893.78 257.272 890.333 266.754 894.013 278.388C896.628 279.762 899.701 280.862 899.518 284.243C899.236 289.506 901.159 304.577 898.122 308.321C894.515 309.456 889.439 309.546 885.545 309.794C882.398 309.869 863.245 311.634 862.498 309.234C860.918 304.138 860.63 288.107 861.592 283.006C863.214 280.956 863.018 281.511 865.816 280.379C869.356 271.265 862.222 265.335 876.158 259.067Z" fill="#0B2135"/>
<path d="M879.109 264.599C888.263 264.884 887.406 272.956 887.712 279.832L880.536 280.297L872.546 280.562C872.252 272.793 870.813 267.619 879.109 264.599Z" fill="#F95350"/>
<path d="M878.732 297.275C877.618 294.594 876.816 292.687 877.875 289.913C879.608 288.334 878.622 288.824 880.967 288.427C883.19 289.256 882.345 288.584 883.698 290.362C883.9 292.457 883.912 292.308 883.178 294.285C881.604 295.419 880.441 296.337 878.732 297.275Z" fill="#F95350"/>
<path d="M878.73 297.275C880.439 296.337 881.602 295.419 883.176 294.285C883.102 296.888 883.415 300.765 882.178 302.793C880.347 303.285 881.229 303.362 879.459 302.415C879.08 300.643 879.282 298.723 878.73 297.275Z" fill="#D35149"/>
<path d="M1041.72 532.377C1052.45 532.054 1061.97 531.485 1070.58 539.768C1077.91 546.821 1079.63 555.766 1079.74 565.426C1079.88 577.605 1080.53 586.428 1071.05 596.059C1068.33 598.827 1064.12 602.07 1060.29 602.67C1044.27 605.184 1027.45 605.061 1011.32 605.648L937.627 608.673L821.455 613.848C794.281 615.183 764.731 616.854 737.575 617.35C718.006 618.722 703.035 614.289 700.549 591.889C694.842 540.479 724.343 545.848 761.4 544.358C785.09 543.178 808.792 542.294 832.507 541.708C862.877 540.742 894.282 538.859 924.714 537.386C963.313 535.518 1003.29 535.001 1041.72 532.377Z" fill="#75D495"/>
<path d="M1124.85 887.376C1121.51 879.71 1117.52 872.112 1114.36 864.256C1108.86 850.105 1104.96 831.724 1104.85 816.374C1104.73 798.592 1112.61 757.525 1136.46 757.537C1140.5 757.537 1146.14 760.293 1148.4 763.568C1169.72 794.539 1162.81 836.916 1144.76 867.752C1142.69 871.273 1131.68 886.991 1131.36 888.919C1127.83 909.928 1126.87 931.928 1124.54 953.34C1127.49 945.141 1132.73 927.127 1137.7 920.41C1144.24 912.138 1144.28 903.994 1148.14 894.044C1159.01 866.001 1187.63 837.229 1220.18 846.86C1230.02 849.775 1232.02 861.892 1227.57 870.85C1216.59 892.936 1190.47 900.412 1168.72 907.411C1161.04 909.915 1153.32 913.663 1145.73 916.522L1145.08 917.79C1140.5 926.68 1125.98 960.198 1128.49 968.011L1130.56 968.476C1129.15 968.794 1128.32 968.629 1127.92 969.523C1125.93 973.956 1125.08 985.474 1125.51 990.017C1123.05 989.656 1110.13 989.888 1106.21 989.686C1103.86 984.567 1102.45 978.72 1100 973.613C1098.68 970.876 1098.76 971.072 1096.62 970.331L1096.54 970.001L1097.62 968.911C1095.91 962.745 1087.07 957.877 1081.68 955.091C1063 945.429 1038.33 946.678 1023.72 929.662C1017.81 923.013 1015.22 909.456 1023.51 903.566C1033.32 896.598 1048.91 898.386 1059.49 902.819C1076.9 910.123 1090.04 927.433 1096.36 944.774C1099.6 953.658 1098.45 960.351 1104.66 968.537L1105.14 969.162L1111.89 969.119C1109.93 950.829 1108.56 930.654 1100.16 913.767C1098.44 910.307 1090.7 904.509 1087.2 901.747C1067.1 885.772 1041.88 867.452 1036.7 840.602C1034.57 829.495 1036.5 817.09 1049.72 816.41C1058.77 815.082 1067.31 820.102 1073.71 825.307C1099.1 845.966 1106.34 878.743 1105.98 909.989C1105.97 911.109 1110.92 926.901 1111.82 929.987C1115.4 942.257 1116.38 952.213 1117.75 964.931C1119.83 942.196 1121.09 908.874 1124.85 887.376Z" fill="#59BA73"/>
<path d="M1105.14 969.162L1111.89 969.119C1112.22 974.434 1114.15 983.974 1112.78 988.823L1111.99 988.456C1109.85 984.059 1107 974.342 1105.14 969.162Z" fill="#FAFAF9"/>
<path d="M1142.24 485.998C1143.23 485.93 1144.22 485.948 1145.21 486.052C1159.8 487.566 1177.86 501.664 1186.74 513.173C1200 530.699 1205.84 552.737 1203 574.531C1200.15 595.714 1190.46 615.923 1172.26 627.863C1169.98 629.357 1167.73 631.151 1165.55 632.805C1156.56 684.134 1103.59 710.782 1055.47 712.049C1050.4 712.184 1045.17 712.515 1040.09 712.729C1042.95 714.774 1053.01 721.822 1054.92 724.069C1055.4 726.218 1055.5 726.181 1054.98 728.422C1051.08 731.735 1044.62 726.126 1041.3 723.64C1038.11 721.246 1025.76 712.894 1025.38 709.128C1027.4 704.163 1038.29 694.715 1042.96 690.074C1045.96 687.061 1047.27 686.057 1051.43 687.747C1055.43 692.517 1043.66 701.199 1040.09 704.438C1089.42 704.916 1141.68 687.545 1157.12 635.621C1150.28 636.625 1143.46 637.654 1137.32 633.558C1133.7 631.09 1131.21 627.282 1130.41 622.971C1126.08 600.822 1161.69 589.046 1166.14 622.751C1178.16 613.352 1186.29 603.976 1191.3 588.87C1201.66 557.284 1192.15 523.236 1165.04 503.314C1159.48 499.228 1142.54 494.337 1140.84 490.823C1140.79 488.438 1141.15 488.073 1142.24 485.998ZM1151.45 628.249C1153.07 627.955 1156.5 627.6 1157.22 626.155C1161.6 617.387 1154.45 609.854 1145.84 609.931C1136.32 612.721 1134.72 622.591 1143.81 627.533C1145.55 628.476 1149.4 628.292 1151.45 628.249Z" fill="#0B2135"/>
<path d="M1134.46 968.654C1143.57 949.054 1149.45 930.134 1172.04 921.91C1179.1 919.345 1188.51 918.39 1195.68 922.045C1217.85 936.502 1189.57 955.661 1173.76 957.179C1164.81 958.03 1146.75 963.51 1141.82 969.039C1138.69 973.252 1135.16 984.347 1133.77 989.582C1131.09 989.619 1128.2 989.852 1125.51 990.017C1125.08 985.474 1125.93 973.956 1127.92 969.523C1128.32 968.629 1129.15 968.794 1130.56 968.476L1134.46 968.654Z" fill="#59BA73"/>
<path d="M1130.56 968.476L1134.46 968.654C1133.44 971.666 1128.59 988.615 1127.02 989.601C1126.77 989.754 1125.82 989.944 1125.51 990.017C1125.08 985.474 1125.93 973.956 1127.92 969.523C1128.32 968.629 1129.15 968.794 1130.56 968.476Z" fill="#FAFAF9"/>
<path d="M1142.22 358.122C1148.33 359.439 1159.03 368.028 1163.16 372.941C1166.82 377.29 1154.98 390.75 1151.35 392.985C1147.07 391.674 1132.48 381.228 1129.16 377.027C1128.48 376.18 1128.87 373.84 1129.37 373.164C1134.13 366.648 1134.8 361.146 1142.22 358.122Z" fill="#9574D6"/>
<path d="M584.622 121.776C585.356 121.766 586.151 121.724 586.875 121.862C589.859 122.431 603.845 142.493 607.163 146.419C603.92 150.988 598.973 156.011 594.011 158.733C589.061 158.666 573.435 139.063 572.559 134.142C573.863 130.62 581.438 124.58 584.622 121.776Z" fill="#278EF0"/>
<path d="M608.487 397.292C616.344 399.293 620.979 403.832 625.627 410.07C623.135 414.347 616.846 423.213 612.67 425.799C608.715 424.236 602.639 420.353 599.269 417.765C591.052 411.453 603.565 401.742 608.487 397.292Z" fill="#75D495"/>
<path d="M1131.5 84.9851C1134.23 84.8975 1135.25 84.8553 1137.24 86.7632C1137.8 88.2303 1138.18 88.5279 1137.75 90.2239C1136.25 96.0917 1115.06 115.428 1110.67 118.178C1107.21 118.054 1106.35 117.578 1105.16 114.392C1105.51 108.218 1126.07 89.8976 1131.5 84.9851Z" fill="#0B2135"/>
<path d="M1056.85 288.312C1061.46 287.908 1066.69 292.548 1066.47 296.714C1066.2 301.563 1055.37 309.257 1051.89 312.382C1047.38 312.379 1041.09 307.073 1042.52 302.494C1044.07 297.556 1052.59 290.741 1056.85 288.312Z" fill="#FBB32F"/>
<path d="M624.393 328.808C626.095 328.772 626.616 328.884 628.275 329.09C632.788 332.541 631.055 343.58 635.402 348.749C636.431 349.974 636.492 351.184 636.088 352.609C634.172 354.593 631.686 355.331 629.077 356.431C626.163 356.979 627.449 357.208 625.03 356.17C621.326 352.116 617.07 338.995 617.248 333.383C618.809 330.27 620.958 330.035 624.393 328.808Z" fill="#278EF0"/>
<path d="M1157.32 148.337C1161.75 147.682 1168.41 147.957 1166.69 154.44C1162.8 159.239 1146.47 160.382 1139.03 161.662C1134.53 162.533 1128.09 161.698 1129.74 155.753C1134.19 150.583 1149.58 149.656 1157.32 148.337Z" fill="#0B2135"/>
<path d="M1067.68 57.9395C1070.39 58.0982 1070.72 57.9985 1073.06 59.1913C1076.65 64.4439 1068.87 85.1606 1067.17 91.82C1066.99 92.5236 1065.34 93.7353 1064.77 94.1627C1062.19 94.3525 1060.47 93.8878 1058.63 92.0472C1056.9 87.8199 1063.96 65.8351 1065.43 60.449C1065.61 59.7876 1067.15 58.4139 1067.68 57.9395Z" fill="#0B2135"/>
<path d="M709.038 308.395C714.335 310.091 715.749 312.607 718.449 317.098C715.1 321.965 708.818 327.086 703.938 330.441C699.921 330.165 696.4 324.986 694.496 321.941C699.658 315.379 702.885 313.647 709.038 308.395Z" fill="#FBB32F"/>
<path d="M698.071 259.366C701.739 259.763 712.754 267.16 714.615 270.647C714.732 273.518 711.621 276.699 709.76 278.955C704.286 277.621 699.302 273.988 694.728 270.8C689.707 267.294 695.328 262.476 698.071 259.366Z" fill="#278EF0"/>
<path d="M125.58 347.15C128.088 348.168 128.154 348.004 129.047 349.913C128.025 355.188 116.986 364.727 112.648 368.906C110.769 368.578 110.848 368.688 109.404 367.476C108.93 366.136 108.482 365.171 109.324 363.633C111.711 359.274 121.234 348.946 125.58 347.15Z" fill="#FDE39D"/>
<path d="M168.869 357.125C172.339 357.6 173.713 358.891 173.973 362.601C174.407 368.791 175.547 380.562 171.966 385.516L170.21 385.284C165.997 381.809 166.932 361.477 168.869 357.125Z" fill="#FBB32F"/>
<path d="M215.403 347.347C220.116 349.449 230.524 360.936 232.229 365.886C231.831 368.386 232.322 367.217 230.206 369.269C224.933 365.961 215.857 356.566 213.203 350.825C213.417 348.666 213.411 349.308 215.403 347.347Z" fill="#FBB32F"/>
<path d="M734.976 444.046C734.565 444.062 734.224 443.944 733.953 443.693C733.682 443.442 733.539 443.111 733.523 442.7L732.13 406.327C732.115 405.917 732.232 405.576 732.483 405.305C732.735 405.034 733.065 404.89 733.476 404.875L739.407 404.647C740.042 404.623 740.495 404.755 740.768 405.044C741.076 405.293 741.27 405.491 741.351 405.638L755.83 426.659L755.018 405.451C755.002 405.04 755.12 404.7 755.371 404.428C755.622 404.157 755.953 404.014 756.363 403.998L763.078 403.741C763.488 403.725 763.829 403.843 764.1 404.094C764.371 404.345 764.515 404.676 764.531 405.087L765.923 441.46C765.938 441.833 765.82 442.174 765.57 442.482C765.319 442.753 764.988 442.897 764.578 442.912L758.59 443.142C757.993 443.165 757.54 443.032 757.23 442.745C756.957 442.457 756.782 442.258 756.703 442.149L742.256 421.967L743.036 442.336C743.052 442.747 742.934 443.087 742.683 443.358C742.432 443.63 742.101 443.773 741.691 443.789L734.976 444.046Z" fill="#0B2135"/>
<path d="M786.633 442.628C782.231 442.797 778.679 441.737 775.976 439.45C773.273 437.162 771.775 433.67 771.484 428.974C771.474 428.713 771.461 428.377 771.445 427.967C771.429 427.556 771.417 427.239 771.409 427.015C771.408 424.064 771.964 421.521 773.078 419.386C774.228 417.212 775.845 415.544 777.93 414.381C780.051 413.179 782.548 412.523 785.42 412.413C788.703 412.287 791.433 412.836 793.609 414.061C795.823 415.283 797.514 416.993 798.681 419.19C799.849 421.387 800.488 423.922 800.598 426.794L800.649 428.137C800.665 428.548 800.528 428.889 800.24 429.162C799.989 429.433 799.677 429.576 799.304 429.59L781.397 430.276C781.398 430.313 781.4 430.369 781.403 430.444C781.406 430.518 781.409 430.593 781.412 430.667C781.49 431.748 781.715 432.729 782.085 433.612C782.455 434.494 783.004 435.183 783.733 435.678C784.462 436.173 785.33 436.402 786.337 436.363C787.083 436.335 787.695 436.199 788.171 435.957C788.683 435.675 789.102 435.379 789.426 435.068C789.749 434.719 789.999 434.43 790.177 434.199C790.499 433.813 790.751 433.579 790.935 433.497C791.154 433.377 791.488 433.308 791.936 433.291L798.875 433.025C799.248 433.011 799.55 433.111 799.783 433.326C800.051 433.503 800.174 433.778 800.151 434.153C800.138 434.789 799.85 435.565 799.287 436.484C798.725 437.402 797.882 438.331 796.76 439.27C795.674 440.171 794.283 440.934 792.589 441.56C790.894 442.185 788.909 442.541 786.633 442.628ZM781.185 424.736L790.642 424.374L790.637 424.262C790.592 423.068 790.365 422.03 789.958 421.149C789.588 420.267 789.02 419.597 788.256 419.141C787.528 418.683 786.661 418.474 785.654 418.512C784.646 418.551 783.798 418.826 783.107 419.338C782.454 419.849 781.959 420.559 781.62 421.469C781.281 422.378 781.135 423.43 781.18 424.624L781.185 424.736Z" fill="#0B2135"/>
<path d="M813.647 441.034C813.087 441.055 812.672 440.94 812.401 440.689C812.13 440.438 811.912 440.11 811.747 439.705L802.697 414.105C802.615 413.921 802.57 413.736 802.563 413.55C802.55 413.214 802.67 412.929 802.923 412.695C803.174 412.424 803.467 412.282 803.803 412.269L809.567 412.048C810.052 412.03 810.43 412.146 810.701 412.397C811.01 412.647 811.206 412.901 811.291 413.159L816.604 428.984L821.03 412.843C821.094 412.579 821.252 412.311 821.503 412.04C821.79 411.73 822.195 411.565 822.717 411.545L826.411 411.404C826.933 411.384 827.33 411.518 827.603 411.806C827.911 412.056 828.108 412.31 828.192 412.568L833.839 428.324L837.927 412.139C837.992 411.875 838.15 411.608 838.401 411.337C838.689 411.064 839.076 410.919 839.561 410.9L845.325 410.679C845.66 410.667 845.945 410.786 846.179 411.039C846.449 411.253 846.59 411.528 846.603 411.863C846.61 412.05 846.599 412.237 846.568 412.425L839.502 438.643C839.406 439.057 839.214 439.401 838.925 439.673C838.674 439.945 838.269 440.091 837.709 440.112L832.673 440.305C832.151 440.325 831.735 440.21 831.427 439.961C831.118 439.711 830.9 439.383 830.773 438.977L825.037 423.841L820.476 439.371C820.38 439.786 820.188 440.129 819.899 440.402C819.611 440.675 819.205 440.821 818.683 440.841L813.647 441.034Z" fill="#0B2135"/>
<path d="M878.319 439.118C874.588 439.261 871.472 438.857 868.97 437.907C866.466 436.919 864.547 435.591 863.213 433.924C861.879 432.256 861.137 430.454 860.989 428.517C860.977 428.219 861.079 427.953 861.294 427.721C861.545 427.45 861.839 427.308 862.175 427.295L869.226 427.025C869.748 427.005 870.143 427.083 870.411 427.26C870.717 427.435 870.987 427.667 871.223 427.957C871.543 428.505 871.974 429.031 872.516 429.533C873.095 430.034 873.821 430.436 874.692 430.738C875.598 431.003 876.705 431.11 878.01 431.06C880.174 430.977 881.784 430.579 882.84 429.866C883.934 429.152 884.458 428.216 884.414 427.06C884.383 426.239 884.058 425.579 883.441 425.08C882.823 424.543 881.835 424.095 880.476 423.736C879.153 423.338 877.383 422.958 875.164 422.594C872.306 422.106 869.852 421.434 867.802 420.579C865.787 419.684 864.229 418.492 863.126 417.003C862.021 415.476 861.424 413.556 861.336 411.243C861.249 408.968 861.805 406.91 863.005 405.071C864.242 403.23 865.998 401.762 868.272 400.666C870.547 399.57 873.269 398.962 876.44 398.84C879.015 398.742 881.284 398.991 883.25 399.588C885.253 400.184 886.947 401.016 888.333 402.084C889.719 403.151 890.772 404.307 891.492 405.549C892.248 406.753 892.668 407.951 892.751 409.144C892.762 409.442 892.661 409.726 892.447 409.996C892.232 410.228 891.956 410.351 891.62 410.364L884.234 410.647C883.824 410.662 883.466 410.601 883.162 410.464C882.858 410.326 882.587 410.093 882.351 409.766C882.096 408.954 881.471 408.268 880.479 407.708C879.522 407.11 878.279 406.84 876.749 406.898C875.108 406.961 873.832 407.309 872.922 407.941C872.048 408.535 871.634 409.429 871.68 410.623C871.708 411.369 871.976 412.013 872.482 412.554C873.026 413.093 873.884 413.546 875.056 413.912C876.266 414.277 877.905 414.644 879.974 415.013C883.393 415.517 886.166 416.214 888.292 417.104C890.417 417.957 891.993 419.129 893.022 420.622C894.049 422.077 894.606 423.942 894.693 426.218C894.79 428.755 894.147 430.984 892.764 432.905C891.416 434.787 889.492 436.262 886.993 437.329C884.493 438.396 881.602 438.992 878.319 439.118Z" fill="#0B2135"/>
<path d="M913.579 437.768C909.177 437.936 905.625 436.877 902.922 434.589C900.219 432.302 898.722 428.81 898.43 424.113C898.42 423.852 898.407 423.517 898.391 423.106C898.375 422.696 898.363 422.379 898.355 422.155C898.354 419.203 898.91 416.66 900.024 414.525C901.174 412.352 902.791 410.683 904.876 409.52C906.997 408.318 909.494 407.662 912.366 407.552C915.649 407.426 918.379 407.976 920.555 409.2C922.769 410.423 924.46 412.133 925.627 414.33C926.795 416.527 927.434 419.061 927.544 421.934L927.595 423.277C927.611 423.687 927.474 424.029 927.186 424.301C926.935 424.572 926.623 424.715 926.25 424.729L908.343 425.415C908.344 425.452 908.346 425.508 908.349 425.583C908.352 425.658 908.355 425.732 908.358 425.807C908.436 426.887 908.661 427.869 909.031 428.751C909.401 429.634 909.95 430.322 910.679 430.818C911.408 431.313 912.276 431.541 913.283 431.503C914.029 431.474 914.641 431.338 915.117 431.096C915.629 430.815 916.048 430.519 916.372 430.207C916.695 429.859 916.945 429.569 917.123 429.338C917.445 428.952 917.697 428.718 917.881 428.637C918.1 428.516 918.434 428.447 918.882 428.43L925.821 428.164C926.194 428.15 926.496 428.251 926.729 428.466C926.997 428.642 927.12 428.918 927.097 429.292C927.084 429.928 926.796 430.705 926.233 431.623C925.671 432.541 924.828 433.47 923.706 434.41C922.62 435.311 921.229 436.074 919.535 436.699C917.84 437.324 915.855 437.681 913.579 437.768ZM908.131 419.875L917.588 419.513L917.583 419.401C917.538 418.207 917.311 417.17 916.904 416.289C916.534 415.406 915.966 414.737 915.202 414.28C914.474 413.823 913.607 413.613 912.6 413.652C911.592 413.69 910.744 413.965 910.053 414.478C909.401 414.988 908.905 415.698 908.566 416.608C908.227 417.518 908.081 418.569 908.126 419.763L908.131 419.875Z" fill="#0B2135"/>
<path d="M946.749 436.498C943.988 436.603 941.525 436.193 939.36 435.268C937.195 434.342 935.442 432.952 934.101 431.098C932.796 429.205 932.036 426.918 931.821 424.236C931.761 423.64 931.713 422.895 931.679 422C931.643 421.067 931.633 420.302 931.647 419.703C931.655 416.976 932.238 414.637 933.396 412.687C934.553 410.7 936.175 409.162 938.263 408.074C940.388 406.984 942.831 406.386 945.592 406.28C948.166 406.181 950.381 406.47 952.238 407.146C954.093 407.785 955.62 408.623 956.817 409.661C958.015 410.698 958.916 411.785 959.52 412.92C960.16 414.016 960.515 414.993 960.585 415.849C960.637 416.221 960.519 416.562 960.232 416.872C959.943 417.144 959.613 417.288 959.24 417.302L952.133 417.574C951.722 417.59 951.402 417.509 951.171 417.331C950.94 417.153 950.724 416.881 950.523 416.515C950.031 415.375 949.421 414.577 948.694 414.119C948.004 413.66 947.118 413.451 946.036 413.492C944.544 413.549 943.406 414.079 942.622 415.08C941.876 416.08 941.504 417.589 941.507 419.606C941.527 421.1 941.577 422.424 941.659 423.579C941.812 425.628 942.298 427.104 943.117 428.006C943.974 428.908 945.148 429.33 946.64 429.273C947.797 429.228 948.702 428.951 949.354 428.44C950.007 427.929 950.517 427.088 950.883 425.916C951.055 425.536 951.25 425.248 951.466 425.053C951.683 424.858 951.997 424.752 952.407 424.737L959.514 424.465C959.887 424.45 960.228 424.587 960.538 424.874C960.847 425.123 960.989 425.435 960.966 425.81C960.953 426.446 960.795 427.199 960.492 428.07C960.188 428.903 959.699 429.8 959.026 430.76C958.353 431.72 957.454 432.632 956.329 433.497C955.24 434.323 953.902 435.01 952.317 435.556C950.731 436.102 948.875 436.416 946.749 436.498Z" fill="#0B2135"/>
<path d="M967.759 435.133C967.349 435.149 967.008 435.031 966.737 434.78C966.466 434.529 966.322 434.198 966.307 433.787L965.3 407.487C965.285 407.114 965.404 406.792 965.655 406.52C965.905 406.212 966.235 406.05 966.645 406.034L973.08 405.788C973.491 405.772 973.832 405.908 974.105 406.197C974.376 406.448 974.519 406.76 974.533 407.133L974.619 409.372C975.582 408.177 976.741 407.235 978.097 406.548C979.491 405.86 981.064 405.482 982.817 405.415L985.279 405.321C985.653 405.306 985.975 405.425 986.246 405.676C986.554 405.926 986.716 406.256 986.732 406.666L986.953 412.43C986.967 412.803 986.831 413.144 986.544 413.454C986.292 413.725 985.98 413.868 985.607 413.882L980.179 414.09C978.65 414.149 977.472 414.624 976.647 415.514C975.858 416.367 975.492 417.557 975.551 419.087L976.1 433.413C976.115 433.823 975.979 434.164 975.69 434.437C975.439 434.708 975.109 434.851 974.698 434.867L967.759 435.133Z" fill="#0B2135"/>
<path d="M1005 434.267C1000.6 434.436 997.05 433.376 994.347 431.089C991.644 428.801 990.147 425.309 989.855 420.613C989.845 420.352 989.832 420.016 989.816 419.606C989.801 419.195 989.788 418.878 989.78 418.654C989.779 415.703 990.335 413.16 991.449 411.025C992.599 408.851 994.216 407.183 996.301 406.02C998.422 404.818 1000.92 404.162 1003.79 404.052C1007.07 403.926 1009.8 404.475 1011.98 405.699C1014.19 406.922 1015.88 408.632 1017.05 410.829C1018.22 413.026 1018.86 415.561 1018.97 418.433L1019.02 419.776C1019.04 420.187 1018.9 420.528 1018.61 420.801C1018.36 421.072 1018.05 421.215 1017.67 421.229L999.768 421.915C999.769 421.952 999.771 422.008 999.774 422.082C999.777 422.157 999.78 422.232 999.783 422.306C999.862 423.387 1000.09 424.368 1000.46 425.251C1000.83 426.133 1001.38 426.822 1002.1 427.317C1002.83 427.812 1003.7 428.041 1004.71 428.002C1005.45 427.973 1006.07 427.838 1006.54 427.596C1007.05 427.314 1007.47 427.018 1007.8 426.707C1008.12 426.358 1008.37 426.068 1008.55 425.837C1008.87 425.452 1009.12 425.218 1009.31 425.136C1009.53 425.015 1009.86 424.947 1010.31 424.93L1017.25 424.664C1017.62 424.65 1017.92 424.75 1018.15 424.965C1018.42 425.142 1018.54 425.417 1018.52 425.792C1018.51 426.427 1018.22 427.204 1017.66 428.123C1017.1 429.041 1016.25 429.97 1015.13 430.909C1014.04 431.81 1012.65 432.573 1010.96 433.199C1009.27 433.824 1007.28 434.18 1005 434.267ZM999.556 416.375L1009.01 416.013L1009.01 415.901C1008.96 414.707 1008.74 413.669 1008.33 412.788C1007.96 411.906 1007.39 411.236 1006.63 410.78C1005.9 410.322 1005.03 410.112 1004.02 410.151C1003.02 410.19 1002.17 410.465 1001.48 410.977C1000.83 411.488 1000.33 412.198 999.991 413.108C999.652 414.017 999.506 415.069 999.551 416.263L999.556 416.375Z" fill="#0B2135"/>
<path d="M1039.61 432.382C1037.22 432.473 1035.14 432.18 1033.35 431.501C1031.61 430.783 1030.24 429.64 1029.24 428.071C1028.25 426.466 1027.7 424.376 1027.6 421.801L1027.19 411.057L1022.83 411.224C1022.42 411.24 1022.06 411.123 1021.75 410.873C1021.48 410.622 1021.33 410.292 1021.32 409.881L1021.15 405.349C1021.13 404.938 1021.25 404.597 1021.5 404.326C1021.79 404.054 1022.14 403.91 1022.55 403.894L1026.91 403.727L1026.56 394.493C1026.54 394.083 1026.66 393.742 1026.91 393.471C1027.2 393.199 1027.53 393.055 1027.9 393.041L1034.39 392.792C1034.8 392.777 1035.15 392.894 1035.42 393.146C1035.69 393.397 1035.83 393.727 1035.85 394.138L1036.2 403.371L1043.2 403.103C1043.61 403.088 1043.95 403.205 1044.22 403.456C1044.49 403.708 1044.63 404.038 1044.65 404.449L1044.82 408.981C1044.84 409.392 1044.72 409.732 1044.47 410.004C1044.22 410.275 1043.89 410.418 1043.48 410.434L1036.48 410.702L1036.86 420.662C1036.91 421.931 1037.19 422.929 1037.71 423.656C1038.22 424.384 1039.05 424.725 1040.21 424.681L1044.52 424.516C1044.93 424.501 1045.27 424.618 1045.54 424.869C1045.81 425.121 1045.96 425.451 1045.97 425.862L1046.16 430.73C1046.17 431.14 1046.06 431.481 1045.81 431.752C1045.55 432.023 1045.22 432.167 1044.81 432.183L1039.61 432.382Z" fill="#0B2135"/>
<path d="M759.742 509.146C759.332 509.162 758.991 509.044 758.72 508.793C758.449 508.542 758.305 508.211 758.29 507.8L756.897 471.427C756.881 471.017 756.999 470.676 757.25 470.405C757.501 470.134 757.832 469.99 758.242 469.975L765.741 469.687C766.151 469.672 766.492 469.789 766.763 470.041C767.034 470.292 767.178 470.623 767.193 471.033L768.586 507.406C768.602 507.817 768.484 508.157 768.233 508.429C767.982 508.7 767.651 508.843 767.241 508.859L759.742 509.146Z" fill="#0B2135"/>
<path d="M777.27 508.475C776.859 508.491 776.519 508.373 776.247 508.122C775.976 507.871 775.833 507.54 775.817 507.129L774.81 480.829C774.794 480.418 774.912 480.078 775.163 479.806C775.414 479.535 775.745 479.392 776.155 479.376L782.591 479.13C783.001 479.114 783.342 479.232 783.613 479.483C783.884 479.734 784.028 480.065 784.043 480.475L784.125 482.602C785.05 481.408 786.282 480.389 787.819 479.546C789.355 478.703 791.187 478.24 793.313 478.159C795.477 478.076 797.398 478.488 799.077 479.395C800.793 480.301 802.154 481.687 803.159 483.554C804.2 485.382 804.773 487.658 804.878 490.381L805.475 505.994C805.491 506.404 805.355 506.746 805.066 507.018C804.815 507.289 804.503 507.432 804.13 507.446L797.079 507.716C796.706 507.731 796.365 507.613 796.057 507.363C795.786 507.112 795.642 506.781 795.627 506.371L795.042 491.094C794.975 489.341 794.494 488.014 793.6 487.114C792.742 486.176 791.493 485.738 789.851 485.801C788.322 485.859 787.109 486.391 786.214 487.397C785.354 488.364 784.958 489.724 785.025 491.478L785.61 506.754C785.626 507.165 785.489 507.506 785.201 507.779C784.95 508.05 784.638 508.193 784.264 508.207L777.27 508.475Z" fill="#0B2135"/>
<path d="M821.197 506.793C820.638 506.814 820.222 506.699 819.951 506.448C819.679 506.16 819.442 505.833 819.241 505.467L807.671 479.907C807.591 479.76 807.547 479.594 807.54 479.407C807.527 479.072 807.628 478.788 807.843 478.555C808.094 478.284 808.407 478.141 808.78 478.127L815.103 477.885C815.588 477.866 815.966 477.983 816.237 478.234C816.508 478.485 816.686 478.74 816.771 478.998L823.752 495.935L829.473 478.512C829.538 478.248 829.696 477.98 829.947 477.709C830.198 477.438 830.566 477.293 831.051 477.274L837.375 477.032C837.71 477.019 838.014 477.138 838.285 477.39C838.555 477.603 838.696 477.878 838.709 478.214C838.716 478.4 838.685 478.57 838.616 478.722L829.034 505.092C828.899 505.471 828.688 505.815 828.401 506.125C828.15 506.396 827.726 506.543 827.129 506.566L821.197 506.793Z" fill="#0B2135"/>
<path d="M845.524 505.861C845.114 505.877 844.773 505.759 844.502 505.508C844.231 505.257 844.087 504.926 844.072 504.516L843.065 478.215C843.049 477.805 843.167 477.464 843.418 477.193C843.669 476.922 844 476.778 844.41 476.763L851.013 476.51C851.386 476.496 851.708 476.614 851.98 476.865C852.288 477.115 852.45 477.445 852.466 477.855L853.473 504.156C853.489 504.566 853.352 504.908 853.064 505.18C852.813 505.452 852.501 505.594 852.127 505.609L845.524 505.861ZM844.193 472.568C843.783 472.584 843.442 472.466 843.171 472.215C842.9 471.964 842.757 471.633 842.741 471.223L842.55 466.242C842.535 465.832 842.652 465.491 842.903 465.22C843.153 464.912 843.483 464.749 843.894 464.734L850.553 464.479C850.963 464.463 851.304 464.599 851.577 464.888C851.886 465.138 852.048 465.468 852.063 465.878L852.254 470.858C852.27 471.269 852.133 471.61 851.845 471.883C851.594 472.154 851.263 472.297 850.853 472.313L844.193 472.568Z" fill="#0B2135"/>
<path d="M874.967 504.734C872.58 504.826 870.495 504.532 868.713 503.853C866.967 503.135 865.597 501.992 864.603 500.424C863.607 498.818 863.06 496.728 862.962 494.154L862.55 483.41L858.186 483.577C857.775 483.592 857.416 483.475 857.107 483.226C856.836 482.975 856.693 482.644 856.677 482.233L856.504 477.701C856.488 477.29 856.606 476.95 856.857 476.678C857.145 476.406 857.495 476.262 857.905 476.246L862.27 476.079L861.916 466.846C861.901 466.435 862.018 466.095 862.269 465.823C862.558 465.551 862.889 465.407 863.262 465.393L869.753 465.145C870.163 465.129 870.504 465.247 870.775 465.498C871.046 465.749 871.19 466.08 871.205 466.49L871.559 475.723L878.554 475.455C878.964 475.44 879.305 475.557 879.576 475.809C879.847 476.06 879.991 476.39 880.006 476.801L880.18 481.334C880.196 481.744 880.078 482.085 879.827 482.356C879.576 482.627 879.245 482.77 878.835 482.786L871.84 483.054L872.221 493.015C872.27 494.283 872.551 495.281 873.064 496.009C873.578 496.736 874.413 497.078 875.569 497.033L879.878 496.868C880.288 496.853 880.629 496.97 880.9 497.222C881.172 497.473 881.315 497.804 881.331 498.214L881.517 503.082C881.533 503.493 881.415 503.833 881.164 504.105C880.913 504.376 880.582 504.519 880.172 504.535L874.967 504.734Z" fill="#0B2135"/>
<path d="M894.955 504.529C892.94 504.606 891.117 504.303 889.484 503.618C887.887 502.894 886.597 501.898 885.615 500.628C884.632 499.358 884.109 497.902 884.047 496.261C883.945 493.612 884.947 491.481 887.052 489.869C889.156 488.219 891.988 487.046 895.548 486.349L902.502 485.018L902.472 484.235C902.421 482.892 902.101 481.877 901.515 481.189C900.928 480.502 899.888 480.187 898.396 480.244C897.352 480.284 896.501 480.522 895.846 480.958C895.227 481.393 894.745 481.971 894.399 482.695C894.082 483.192 893.625 483.453 893.028 483.476L886.761 483.716C886.35 483.731 886.029 483.631 885.796 483.416C885.563 483.164 885.458 482.869 885.482 482.532C885.457 481.86 885.67 481.086 886.122 480.209C886.61 479.294 887.36 478.387 888.372 477.489C889.383 476.591 890.699 475.831 892.319 475.209C893.939 474.586 895.906 474.231 898.219 474.142C900.644 474.049 902.725 474.25 904.462 474.744C906.2 475.238 907.61 475.968 908.693 476.935C909.814 477.901 910.661 479.064 911.237 480.425C911.81 481.748 912.129 483.23 912.191 484.871L912.843 501.883C912.858 502.293 912.722 502.635 912.434 502.907C912.182 503.178 911.87 503.321 911.497 503.335L905.006 503.584C904.596 503.6 904.255 503.482 903.984 503.231C903.713 502.98 903.569 502.649 903.554 502.239L903.479 500.28C903.021 501.007 902.393 501.685 901.595 502.314C900.797 502.942 899.845 503.445 898.739 503.824C897.671 504.238 896.41 504.474 894.955 504.529ZM897.341 498.049C898.423 498.008 899.384 497.747 900.225 497.266C901.102 496.747 901.764 495.993 902.212 495.005C902.696 493.977 902.909 492.718 902.852 491.225L902.822 490.442L898.097 491.463C896.355 491.829 895.086 492.345 894.29 493.01C893.529 493.637 893.165 494.361 893.196 495.182C893.22 495.816 893.427 496.35 893.818 496.783C894.208 497.216 894.706 497.552 895.313 497.791C895.919 497.992 896.595 498.078 897.341 498.049Z" fill="#0B2135"/>
<path d="M933.877 502.479C931.49 502.57 929.405 502.276 927.623 501.597C925.877 500.879 924.507 499.736 923.513 498.168C922.517 496.562 921.97 494.472 921.872 491.898L921.46 481.154L917.096 481.321C916.685 481.337 916.326 481.22 916.017 480.97C915.746 480.719 915.603 480.388 915.587 479.978L915.414 475.445C915.398 475.035 915.516 474.694 915.767 474.423C916.055 474.15 916.405 474.006 916.815 473.99L921.18 473.823L920.826 464.59C920.811 464.18 920.928 463.839 921.179 463.568C921.468 463.295 921.799 463.152 922.172 463.138L928.663 462.889C929.073 462.873 929.414 462.991 929.685 463.242C929.956 463.493 930.1 463.824 930.115 464.234L930.469 473.468L937.464 473.2C937.874 473.184 938.215 473.302 938.486 473.553C938.757 473.804 938.901 474.135 938.916 474.545L939.09 479.078C939.106 479.488 938.988 479.829 938.737 480.1C938.486 480.371 938.155 480.515 937.745 480.531L930.75 480.798L931.131 490.759C931.18 492.027 931.461 493.025 931.974 493.753C932.488 494.481 933.323 494.822 934.479 494.778L938.788 494.613C939.198 494.597 939.539 494.715 939.81 494.966C940.081 495.217 940.225 495.548 940.241 495.958L940.427 500.827C940.443 501.237 940.325 501.578 940.074 501.849C939.823 502.12 939.492 502.264 939.082 502.279L933.877 502.479Z" fill="#0B2135"/>
<path d="M946.513 501.995C946.102 502.01 945.762 501.893 945.491 501.642C945.219 501.39 945.076 501.06 945.06 500.649L944.053 474.349C944.038 473.938 944.155 473.597 944.406 473.326C944.658 473.055 944.988 472.912 945.399 472.896L952.002 472.643C952.375 472.629 952.697 472.747 952.968 472.999C953.277 473.248 953.439 473.578 953.454 473.989L954.461 500.289C954.477 500.7 954.341 501.041 954.052 501.314C953.801 501.585 953.489 501.728 953.116 501.742L946.513 501.995ZM945.182 468.701C944.772 468.717 944.431 468.599 944.16 468.348C943.889 468.097 943.745 467.766 943.729 467.356L943.539 462.376C943.523 461.965 943.641 461.624 943.892 461.353C944.142 461.045 944.472 460.883 944.882 460.867L951.541 460.612C951.952 460.596 952.293 460.733 952.566 461.021C952.874 461.271 953.036 461.601 953.052 462.011L953.242 466.992C953.258 467.402 953.122 467.743 952.833 468.016C952.582 468.287 952.251 468.431 951.841 468.446L945.182 468.701Z" fill="#0B2135"/>
<path d="M974.858 501.47C971.725 501.59 969.057 501.188 966.854 500.263C964.689 499.337 962.993 497.964 961.765 496.143C960.573 494.283 959.852 492.05 959.603 489.445C959.537 488.7 959.486 487.861 959.451 486.929C959.413 485.959 959.4 485.119 959.41 484.408C959.458 481.754 960.043 479.471 961.165 477.56C962.288 475.649 963.893 474.149 965.981 473.061C968.106 471.971 970.679 471.368 973.701 471.252C976.76 471.135 979.372 471.539 981.537 472.465C983.74 473.389 985.473 474.761 986.739 476.581C988.004 478.401 988.762 480.632 989.012 483.275C989.077 483.982 989.128 484.821 989.165 485.791C989.201 486.724 989.214 487.564 989.205 488.311C989.156 490.928 988.59 493.21 987.506 495.157C986.458 497.065 984.872 498.565 982.747 499.655C980.659 500.743 978.029 501.348 974.858 501.47ZM974.597 494.643C976.276 494.579 977.469 494.029 978.176 492.993C978.921 491.955 979.311 490.427 979.346 488.409C979.362 487.848 979.352 487.101 979.316 486.168C979.28 485.235 979.233 484.49 979.174 483.932C978.987 481.959 978.482 480.484 977.66 479.507C976.874 478.491 975.641 478.015 973.963 478.079C972.321 478.142 971.129 478.711 970.385 479.785C969.64 480.822 969.269 482.331 969.27 484.311C969.254 484.872 969.264 485.619 969.299 486.552C969.335 487.484 969.382 488.23 969.441 488.788C969.593 490.799 970.08 492.294 970.902 493.271C971.724 494.248 972.955 494.706 974.597 494.643Z" fill="#0B2135"/>
<path d="M996.625 500.076C996.214 500.092 995.873 499.974 995.602 499.723C995.331 499.472 995.188 499.141 995.172 498.731L994.165 472.43C994.149 472.02 994.267 471.679 994.518 471.408C994.769 471.137 995.1 470.993 995.51 470.977L1001.95 470.731C1002.36 470.715 1002.7 470.833 1002.97 471.084C1003.24 471.335 1003.38 471.666 1003.4 472.076L1003.48 474.203C1004.41 473.009 1005.64 471.991 1007.17 471.147C1008.71 470.304 1010.54 469.841 1012.67 469.76C1014.83 469.677 1016.75 470.089 1018.43 470.996C1020.15 471.902 1021.51 473.288 1022.51 475.155C1023.56 476.983 1024.13 479.259 1024.23 481.983L1024.83 497.595C1024.85 498.005 1024.71 498.347 1024.42 498.619C1024.17 498.891 1023.86 499.033 1023.48 499.048L1016.43 499.318C1016.06 499.332 1015.72 499.214 1015.41 498.964C1015.14 498.713 1015 498.383 1014.98 497.972L1014.4 482.695C1014.33 480.942 1013.85 479.615 1012.96 478.716C1012.1 477.777 1010.85 477.339 1009.21 477.402C1007.68 477.461 1006.46 477.993 1005.57 478.998C1004.71 479.965 1004.31 481.325 1004.38 483.079L1004.96 498.356C1004.98 498.766 1004.84 499.108 1004.56 499.38C1004.3 499.651 1003.99 499.794 1003.62 499.808L996.625 500.076Z" fill="#0B2135"/>
<path d="M168.193 0H174.49L174.553 181.078C198.357 183.18 193.019 202.961 193.33 220.402C236.525 229.89 266.877 261.24 273.853 305.264C274.578 309.846 276.635 316.822 272.854 320.32C269.762 321.317 224.905 314.615 215.489 314.644C207.588 338.591 176.34 348.243 154.216 340.283C139.741 335.075 132.634 328.01 125.674 314.495C114.806 315.148 103.965 316.184 93.17 317.601C86.0746 318.582 75.0923 320.614 68.3067 320.771C65.8814 318.503 66.3155 314.376 66.6462 311.32C68.5486 293.726 74.1132 277.186 84.095 262.579C99.3053 240.651 122.516 225.572 148.733 220.586C148.021 201.607 143.838 183.573 168.126 180.921L168.193 0Z" fill="#0B2135"/>
<path d="M133.031 314.066C158.267 312.586 183.569 312.597 208.803 314.098C210.861 314.122 213.658 313.973 215.491 314.644C207.591 338.591 176.342 348.243 154.218 340.283C139.743 335.075 132.636 328.01 125.676 314.495C127.668 314.148 130.926 314.139 133.031 314.066Z" fill="#FAFAF9"/>
<path d="M125.676 314.495C127.668 314.148 130.926 314.139 133.031 314.066C139.081 325.004 145.732 331.404 158.031 334.949C169.822 338.423 182.513 337.037 193.277 331.101C201.484 326.478 204.481 322.225 208.803 314.098C210.861 314.121 213.658 313.973 215.491 314.644C207.591 338.591 176.342 348.243 154.218 340.283C139.743 335.075 132.636 328.01 125.676 314.495Z" fill="#FBB32F"/>
<path d="M163.868 224.363C186.995 221.168 219.39 232.577 236.682 248.004C255.838 264.89 267.363 288.796 268.643 314.3C261.414 313.911 253.886 312.583 246.635 311.67C237.892 310.641 229.135 309.733 220.367 308.947C206.848 307.703 193.396 307.976 180.172 306.754C144.657 305.762 108.016 310.257 72.8316 314.204C72.6197 294.597 82.1803 273.368 94.6223 258.563C112.394 237.417 136.783 226.882 163.868 224.363Z" fill="#1F3349"/>
<path d="M167.927 186.915C191.875 185.575 187.725 201.838 187.094 218.607L176.497 218.424C169.315 218.464 162.134 218.57 154.954 218.741C154.257 204.594 150.491 190.381 167.927 186.915Z" fill="#1F3349"/>
<path d="M739.487 590.453C738.368 590.496 737.402 590.403 736.59 590.173C735.796 589.943 735.14 589.641 734.621 589.269C734.102 588.897 733.714 588.52 733.456 588.138C733.199 587.755 733.055 587.434 733.026 587.174C733 586.969 733.05 586.808 733.176 586.691C733.32 586.555 733.476 586.484 733.644 586.477L735.854 586.391C735.929 586.388 735.994 586.395 736.051 586.411C736.108 586.428 736.185 586.481 736.282 586.57C736.532 586.766 736.792 586.971 737.062 587.185C737.35 587.398 737.685 587.581 738.064 587.734C738.443 587.869 738.912 587.925 739.472 587.903C740.199 587.875 740.8 587.712 741.274 587.413C741.766 587.095 742.002 586.665 741.98 586.125C741.965 585.733 741.841 585.42 741.608 585.186C741.393 584.952 740.993 584.753 740.408 584.589C739.821 584.406 738.992 584.223 737.92 584.041C736.866 583.839 735.987 583.565 735.282 583.219C734.578 582.873 734.047 582.426 733.689 581.88C733.332 581.333 733.138 580.687 733.109 579.941C733.081 579.213 733.269 578.515 733.672 577.845C734.094 577.156 734.725 576.581 735.567 576.118C736.426 575.655 737.5 575.399 738.787 575.349C739.794 575.309 740.676 575.406 741.432 575.638C742.188 575.851 742.815 576.135 743.315 576.489C743.833 576.843 744.23 577.21 744.507 577.592C744.782 577.955 744.935 578.276 744.964 578.555C744.991 578.759 744.942 578.929 744.816 579.065C744.69 579.182 744.543 579.244 744.375 579.25L742.305 579.331C742.211 579.334 742.127 579.319 742.051 579.285C741.974 579.25 741.898 579.207 741.821 579.153C741.609 578.975 741.377 578.788 741.127 578.592C740.876 578.396 740.571 578.231 740.211 578.095C739.869 577.94 739.418 577.874 738.858 577.896C738.149 577.923 737.615 578.103 737.254 578.435C736.892 578.747 736.721 579.137 736.739 579.603C736.751 579.921 736.846 580.197 737.023 580.433C737.219 580.65 737.591 580.85 738.14 581.034C738.689 581.218 739.518 581.401 740.627 581.582C741.885 581.757 742.887 582.054 743.632 582.474C744.395 582.874 744.936 583.357 745.257 583.923C745.596 584.471 745.779 585.089 745.806 585.78C745.839 586.619 745.616 587.384 745.139 588.075C744.68 588.766 743.973 589.325 743.018 589.755C742.082 590.165 740.904 590.398 739.487 590.453Z" fill="#131A20"/>
<path d="M755.133 589.844C753.063 589.924 751.398 589.391 750.139 588.245C748.881 587.098 748.162 585.426 747.983 583.229C747.957 583.043 747.938 582.81 747.928 582.531C747.916 582.232 747.916 581.999 747.928 581.83C747.948 580.428 748.218 579.203 748.738 578.156C749.276 577.107 750.039 576.293 751.025 575.713C752.01 575.114 753.184 574.788 754.545 574.735C756.056 574.676 757.337 574.944 758.388 575.538C759.437 576.114 760.245 576.951 760.811 578.05C761.376 579.13 761.687 580.398 761.744 581.853L761.767 582.44C761.774 582.627 761.715 582.788 761.589 582.924C761.464 583.059 761.298 583.131 761.093 583.139L751.804 583.501C751.804 583.501 751.805 583.529 751.807 583.584C751.81 583.64 751.811 583.687 751.813 583.724C751.857 584.376 752.002 584.978 752.247 585.529C752.511 586.06 752.873 586.485 753.334 586.804C753.813 587.121 754.37 587.268 755.004 587.243C755.526 587.223 755.962 587.131 756.31 586.968C756.658 586.786 756.94 586.588 757.156 586.375C757.372 586.161 757.524 585.987 757.612 585.852C757.771 585.622 757.897 585.486 757.989 585.446C758.098 585.385 758.256 585.351 758.461 585.343L760.867 585.249C761.054 585.242 761.205 585.292 761.321 585.4C761.456 585.507 761.518 585.644 761.505 585.813C761.498 586.112 761.354 586.482 761.072 586.923C760.809 587.363 760.415 587.798 759.89 588.23C759.365 588.661 758.698 589.033 757.888 589.344C757.096 589.637 756.178 589.803 755.133 589.844ZM751.713 581.15L757.896 580.91L757.893 580.826C757.864 580.098 757.719 579.469 757.455 578.937C757.191 578.406 756.82 577.991 756.342 577.692C755.863 577.393 755.297 577.256 754.645 577.281C753.992 577.307 753.438 577.487 752.984 577.822C752.53 578.158 752.193 578.6 751.971 579.151C751.768 579.7 751.681 580.339 751.709 581.066L751.713 581.15Z" fill="#131A20"/>
<path d="M771.309 589.214C769.966 589.267 768.772 589.061 767.727 588.597C766.7 588.133 765.879 587.436 765.263 586.507C764.666 585.559 764.313 584.405 764.204 583.046C764.175 582.767 764.151 582.404 764.134 581.956C764.115 581.49 764.11 581.107 764.117 580.808C764.12 579.444 764.383 578.275 764.905 577.302C765.446 576.31 766.21 575.542 767.197 574.999C768.204 574.456 769.378 574.158 770.721 574.106C771.915 574.059 772.938 574.188 773.791 574.491C774.643 574.794 775.35 575.187 775.91 575.669C776.471 576.152 776.892 576.668 777.175 577.217C777.476 577.747 777.645 578.236 777.681 578.683C777.707 578.887 777.648 579.057 777.504 579.194C777.378 579.311 777.222 579.373 777.035 579.38L774.573 579.476C774.387 579.483 774.236 579.442 774.12 579.354C774.023 579.264 773.924 579.128 773.824 578.945C773.515 578.21 773.122 577.702 772.644 577.422C772.184 577.122 771.599 576.986 770.891 577.013C769.958 577.05 769.223 577.377 768.687 577.996C768.169 578.595 767.915 579.53 767.928 580.799C767.918 581.51 767.943 582.163 768.004 582.758C768.091 584.044 768.417 584.965 768.98 585.522C769.562 586.079 770.319 586.339 771.252 586.302C771.979 586.274 772.561 586.102 772.997 585.786C773.433 585.452 773.776 584.906 774.026 584.149C774.112 583.959 774.2 583.815 774.29 583.718C774.398 583.621 774.546 583.568 774.732 583.561L777.194 583.465C777.381 583.458 777.542 583.517 777.677 583.642C777.831 583.749 777.902 583.905 777.892 584.11C777.886 584.447 777.808 584.833 777.657 585.269C777.523 585.685 777.288 586.123 776.951 586.585C776.632 587.027 776.219 587.445 775.711 587.838C775.203 588.213 774.58 588.527 773.842 588.78C773.124 589.032 772.279 589.177 771.309 589.214Z" fill="#131A20"/>
<path d="M781.659 588.531C781.472 588.539 781.311 588.479 781.175 588.354C781.04 588.229 780.968 588.073 780.961 587.886L780.448 574.708C780.44 574.503 780.499 574.332 780.624 574.197C780.75 574.061 780.906 573.99 781.092 573.982L783.359 573.894C783.545 573.887 783.706 573.946 783.842 574.072C783.996 574.196 784.077 574.361 784.085 574.566L784.13 575.714C784.536 575.1 785.068 574.622 785.727 574.278C786.405 573.934 787.192 573.745 788.087 573.71L789.234 573.666C789.439 573.658 789.601 573.717 789.718 573.843C789.853 573.968 789.925 574.124 789.932 574.311L790.01 576.325C790.018 576.512 789.958 576.673 789.833 576.809C789.726 576.944 789.57 577.015 789.365 577.023L787.183 577.108C786.287 577.143 785.598 577.422 785.114 577.945C784.648 578.467 784.433 579.167 784.467 580.044L784.766 587.738C784.773 587.924 784.714 588.086 784.589 588.221C784.463 588.357 784.298 588.429 784.093 588.437L781.659 588.531Z" fill="#131A20"/>
<path d="M798.741 588.147C796.671 588.227 795.006 587.694 793.747 586.548C792.488 585.401 791.769 583.729 791.59 581.532C791.564 581.346 791.546 581.113 791.535 580.833C791.524 580.535 791.524 580.301 791.536 580.133C791.556 578.731 791.826 577.506 792.346 576.459C792.884 575.41 793.646 574.596 794.632 574.016C795.618 573.417 796.791 573.091 798.153 573.038C799.664 572.979 800.945 573.247 801.995 573.841C803.045 574.417 803.853 575.254 804.419 576.353C804.984 577.433 805.295 578.701 805.351 580.156L805.374 580.743C805.381 580.93 805.322 581.091 805.197 581.226C805.071 581.362 804.906 581.434 804.701 581.442L795.412 581.803C795.412 581.803 795.413 581.831 795.415 581.887C795.417 581.943 795.419 581.99 795.421 582.027C795.465 582.679 795.609 583.281 795.855 583.832C796.119 584.363 796.481 584.788 796.941 585.106C797.421 585.424 797.978 585.571 798.612 585.546C799.134 585.525 799.569 585.434 799.918 585.271C800.266 585.089 800.548 584.891 800.764 584.677C800.979 584.464 801.131 584.29 801.22 584.155C801.379 583.925 801.504 583.789 801.596 583.748C801.706 583.688 801.863 583.654 802.069 583.646L804.475 583.552C804.661 583.545 804.813 583.595 804.929 583.703C805.064 583.81 805.125 583.947 805.113 584.116C805.106 584.415 804.962 584.785 804.68 585.226C804.417 585.666 804.023 586.101 803.498 586.533C802.973 586.964 802.305 587.336 801.496 587.647C800.704 587.94 799.786 588.106 798.741 588.147ZM795.32 579.453L801.504 579.213L801.5 579.129C801.472 578.401 801.326 577.772 801.063 577.24C800.799 576.709 800.428 576.294 799.949 575.995C799.471 575.696 798.905 575.559 798.252 575.584C797.599 575.61 797.046 575.79 796.592 576.125C796.138 576.46 795.8 576.903 795.579 577.454C795.376 578.003 795.289 578.642 795.317 579.369L795.32 579.453Z" fill="#131A20"/>
<path d="M815.131 587.229C814.012 587.272 813.062 587.113 812.282 586.751C811.502 586.389 810.911 585.833 810.508 585.083C810.105 584.314 809.88 583.351 809.835 582.195L809.588 575.844L807.378 575.93C807.191 575.937 807.03 575.878 806.895 575.752C806.759 575.627 806.688 575.471 806.68 575.284L806.617 573.662C806.61 573.475 806.669 573.314 806.794 573.178C806.92 573.043 807.076 572.971 807.262 572.964L809.473 572.878L809.292 568.233C809.285 568.047 809.335 567.886 809.441 567.751C809.567 567.616 809.732 567.544 809.937 567.536L812.204 567.448C812.39 567.44 812.551 567.499 812.687 567.625C812.823 567.75 812.894 567.906 812.901 568.093L813.082 572.737L816.579 572.601C816.766 572.594 816.927 572.653 817.063 572.779C817.198 572.904 817.27 573.06 817.277 573.247L817.34 574.869C817.347 575.056 817.288 575.217 817.163 575.353C817.037 575.488 816.881 575.56 816.695 575.567L813.198 575.703L813.434 581.775C813.464 582.539 813.617 583.131 813.895 583.55C814.192 583.968 814.676 584.164 815.347 584.138L817.278 584.063C817.464 584.056 817.625 584.115 817.761 584.24C817.897 584.366 817.968 584.522 817.975 584.708L818.043 586.443C818.05 586.629 817.991 586.79 817.865 586.926C817.74 587.062 817.584 587.133 817.397 587.14L815.131 587.229Z" fill="#131A20"/>
<path d="M825.962 587.087C824.992 587.125 824.128 587 823.369 586.712C822.629 586.405 822.004 585.962 821.496 585.384C820.988 584.806 820.588 584.121 820.295 583.329C820.002 582.518 819.818 581.629 819.743 580.66C819.711 580.325 819.69 580.027 819.68 579.766C819.669 579.486 819.667 579.178 819.672 578.842C819.673 577.908 819.78 577.035 819.991 576.223C820.221 575.411 820.567 574.697 821.028 574.081C821.508 573.446 822.105 572.947 822.819 572.583C823.552 572.218 824.404 572.017 825.374 571.979C826.381 571.94 827.237 572.084 827.941 572.411C828.662 572.72 829.267 573.135 829.754 573.658L829.513 567.446C829.505 567.26 829.555 567.099 829.662 566.964C829.788 566.829 829.953 566.757 830.158 566.749L832.536 566.656C832.723 566.649 832.884 566.708 833.019 566.834C833.155 566.959 833.227 567.115 833.234 567.302L833.955 585.824C833.962 586.01 833.903 586.171 833.777 586.307C833.652 586.443 833.496 586.514 833.309 586.521L831.099 586.607C830.894 586.615 830.723 586.556 830.588 586.431C830.471 586.305 830.409 586.148 830.401 585.962L830.361 584.927C829.917 585.523 829.339 586.022 828.626 586.423C827.932 586.824 827.044 587.045 825.962 587.087ZM826.88 584.053C827.664 584.023 828.282 583.821 828.734 583.449C829.187 583.076 829.515 582.615 829.717 582.066C829.919 581.497 830.018 580.924 830.015 580.345C830.02 580.008 830.016 579.653 830.001 579.28C829.986 578.889 829.963 578.525 829.931 578.19C829.89 577.631 829.739 577.105 829.477 576.611C829.214 576.098 828.843 575.683 828.364 575.365C827.884 575.048 827.272 574.903 826.526 574.932C825.742 574.963 825.124 575.164 824.672 575.537C824.237 575.89 823.928 576.35 823.745 576.918C823.561 577.485 823.464 578.106 823.453 578.779C823.456 579.339 823.478 579.899 823.518 580.457C823.582 581.127 823.727 581.738 823.954 582.29C824.181 582.841 824.525 583.286 824.986 583.623C825.466 583.94 826.097 584.084 826.88 584.053Z" fill="#131A20"/>
<path d="M843.121 586.42C841.983 586.464 840.984 586.251 840.126 585.78C839.284 585.289 838.622 584.587 838.138 583.671C837.653 582.737 837.386 581.627 837.336 580.34L837.03 572.478C837.023 572.291 837.082 572.13 837.207 571.995C837.333 571.859 837.489 571.788 837.675 571.78L840.137 571.684C840.343 571.677 840.504 571.736 840.621 571.862C840.756 571.987 840.828 572.143 840.835 572.33L841.134 580.024C841.224 582.337 842.286 583.454 844.319 583.375C845.289 583.337 846.042 582.999 846.577 582.362C847.132 581.724 847.388 580.864 847.346 579.782L847.046 572.088C847.039 571.902 847.098 571.741 847.224 571.605C847.349 571.469 847.505 571.398 847.692 571.39L850.154 571.295C850.34 571.287 850.501 571.347 850.637 571.472C850.773 571.598 850.844 571.754 850.851 571.94L851.365 585.146C851.373 585.333 851.314 585.494 851.188 585.629C851.063 585.765 850.907 585.836 850.72 585.844L848.454 585.932C848.249 585.94 848.078 585.881 847.942 585.756C847.826 585.629 847.763 585.473 847.756 585.287L847.711 584.139C847.233 584.812 846.628 585.349 845.897 585.751C845.165 586.153 844.24 586.376 843.121 586.42Z" fill="#131A20"/>
<path d="M861.393 585.708C860.05 585.761 858.856 585.555 857.811 585.091C856.784 584.627 855.963 583.93 855.348 583.002C854.75 582.053 854.397 580.9 854.288 579.54C854.259 579.261 854.235 578.898 854.218 578.45C854.2 577.984 854.194 577.601 854.201 577.302C854.204 575.938 854.467 574.77 854.989 573.797C855.53 572.804 856.294 572.036 857.282 571.494C858.288 570.95 859.462 570.652 860.805 570.6C861.999 570.553 863.022 570.682 863.875 570.985C864.727 571.288 865.434 571.681 865.994 572.163C866.555 572.646 866.976 573.162 867.259 573.711C867.56 574.241 867.729 574.73 867.765 575.177C867.791 575.381 867.733 575.552 867.588 575.688C867.462 575.805 867.306 575.867 867.119 575.874L864.657 575.97C864.471 575.977 864.32 575.937 864.204 575.848C864.107 575.758 864.009 575.622 863.908 575.439C863.599 574.704 863.206 574.196 862.728 573.916C862.268 573.616 861.683 573.48 860.975 573.508C860.042 573.544 859.308 573.871 858.771 574.49C858.253 575.089 858 576.024 858.012 577.294C858.002 578.004 858.027 578.657 858.088 579.252C858.175 580.538 858.501 581.459 859.064 582.016C859.646 582.573 860.404 582.833 861.336 582.797C862.064 582.768 862.645 582.596 863.081 582.28C863.517 581.946 863.86 581.4 864.111 580.643C864.197 580.453 864.284 580.309 864.374 580.212C864.482 580.115 864.63 580.062 864.816 580.055L867.278 579.959C867.465 579.952 867.626 580.011 867.762 580.137C867.915 580.243 867.987 580.399 867.976 580.605C867.97 580.941 867.892 581.327 867.741 581.763C867.608 582.179 867.372 582.618 867.035 583.079C866.716 583.521 866.303 583.939 865.795 584.332C865.287 584.707 864.664 585.021 863.926 585.274C863.208 585.526 862.363 585.671 861.393 585.708Z" fill="#131A20"/>
<path d="M871.771 585.024C871.584 585.032 871.423 584.973 871.288 584.847C871.152 584.722 871.08 584.566 871.073 584.379L870.352 565.857C870.345 565.671 870.404 565.509 870.53 565.374C870.655 565.238 870.811 565.167 870.998 565.159L873.264 565.071C873.469 565.063 873.63 565.122 873.747 565.249C873.883 565.374 873.954 565.53 873.962 565.717L874.334 575.285L878.861 570.654C879.023 570.498 879.168 570.38 879.296 570.301C879.423 570.202 879.617 570.148 879.878 570.138L882.48 570.037C882.667 570.029 882.818 570.08 882.934 570.187C883.051 570.295 883.112 570.442 883.12 570.628C883.122 570.703 883.107 570.787 883.073 570.882C883.04 570.977 882.968 571.064 882.859 571.143L877.306 576.767L884.039 583.454C884.233 583.633 884.332 583.788 884.337 583.919C884.345 584.105 884.285 584.257 884.159 584.374C884.051 584.49 883.914 584.552 883.746 584.558L881.088 584.662C880.808 584.673 880.601 584.643 880.468 584.574C880.352 584.485 880.208 584.369 880.034 584.226L874.471 578.811L874.682 584.239C874.69 584.425 874.631 584.586 874.505 584.722C874.398 584.857 874.242 584.928 874.037 584.936L871.771 585.024Z" fill="#131A20"/>
<path d="M886.958 584.433C886.771 584.441 886.61 584.382 886.475 584.256C886.339 584.131 886.267 583.975 886.26 583.788L886.152 581.018C886.144 580.813 886.203 580.643 886.329 580.507C886.454 580.371 886.61 580.3 886.797 580.293L889.595 580.184C889.781 580.176 889.942 580.235 890.078 580.361C890.213 580.486 890.285 580.652 890.293 580.857L890.401 583.627C890.408 583.813 890.349 583.974 890.224 584.11C890.098 584.246 889.942 584.317 889.756 584.324L886.958 584.433Z" fill="#131A20"/>
<path d="M898.176 584.277C897.207 584.315 896.323 584.162 895.525 583.82C894.726 583.459 894.081 582.97 893.59 582.354C893.117 581.718 892.865 581 892.834 580.198C892.783 578.892 893.265 577.836 894.28 577.031C895.312 576.206 896.691 575.63 898.416 575.301L902.227 574.592L902.204 574.005C902.174 573.221 901.954 572.623 901.546 572.209C901.137 571.795 900.457 571.607 899.506 571.644C898.835 571.67 898.29 571.831 897.872 572.128C897.472 572.405 897.178 572.771 896.99 573.227C896.85 573.475 896.64 573.605 896.36 573.616L894.15 573.702C893.945 573.71 893.784 573.66 893.668 573.552C893.57 573.444 893.518 573.297 893.511 573.11C893.518 572.811 893.625 572.442 893.832 572.005C894.039 571.567 894.377 571.143 894.847 570.732C895.316 570.303 895.928 569.934 896.681 569.624C897.435 569.314 898.353 569.139 899.435 569.097C900.61 569.051 901.605 569.162 902.418 569.429C903.25 569.677 903.918 570.034 904.421 570.5C904.925 570.966 905.302 571.521 905.551 572.165C905.8 572.809 905.939 573.495 905.967 574.222L906.309 583.008C906.316 583.194 906.257 583.355 906.132 583.491C906.006 583.627 905.85 583.698 905.664 583.705L903.398 583.794C903.192 583.802 903.022 583.743 902.886 583.617C902.769 583.491 902.707 583.335 902.7 583.148L902.657 582.057C902.429 582.421 902.115 582.769 901.717 583.102C901.319 583.417 900.825 583.688 900.236 583.917C899.665 584.126 898.978 584.246 898.176 584.277ZM899.024 581.582C899.677 581.557 900.259 581.394 900.771 581.094C901.301 580.793 901.704 580.348 901.98 579.758C902.273 579.148 902.403 578.396 902.368 577.501L902.345 576.913L899.565 577.47C898.471 577.681 897.661 577.983 897.134 578.377C896.608 578.771 896.355 579.239 896.376 579.78C896.392 580.19 896.527 580.54 896.781 580.829C897.053 581.098 897.388 581.3 897.786 581.434C898.182 581.549 898.595 581.599 899.024 581.582Z" fill="#131A20"/>
<path d="M910.831 588.828C910.645 588.836 910.483 588.776 910.348 588.651C910.212 588.525 910.141 588.369 910.133 588.183L909.413 569.661C909.405 569.474 909.464 569.313 909.59 569.178C909.715 569.042 909.871 568.971 910.058 568.963L912.268 568.877C912.474 568.869 912.635 568.928 912.752 569.055C912.887 569.18 912.959 569.336 912.966 569.523L913.01 570.642C913.434 570.028 914.002 569.51 914.714 569.09C915.427 568.67 916.324 568.439 917.406 568.397C918.394 568.359 919.258 568.484 919.998 568.773C920.738 569.061 921.362 569.495 921.87 570.073C922.378 570.632 922.777 571.308 923.07 572.1C923.362 572.892 923.546 573.772 923.621 574.74C923.652 575.057 923.674 575.383 923.687 575.718C923.7 576.054 923.704 576.39 923.698 576.727C923.716 577.66 923.61 578.533 923.38 579.345C923.149 580.139 922.794 580.844 922.313 581.46C921.851 582.057 921.262 582.538 920.548 582.902C919.834 583.266 918.982 583.467 917.994 583.506C916.986 583.545 916.121 583.401 915.399 583.074C914.675 582.729 914.078 582.266 913.607 581.687L913.855 588.038C913.862 588.225 913.803 588.386 913.677 588.521C913.57 588.656 913.414 588.728 913.209 588.736L910.831 588.828ZM916.842 580.552C917.644 580.521 918.262 580.329 918.697 579.976C919.131 579.604 919.43 579.135 919.595 578.568C919.778 578 919.875 577.38 919.887 576.707C919.902 576.146 919.88 575.586 919.821 575.028C919.758 574.358 919.613 573.747 919.386 573.196C919.177 572.644 918.843 572.208 918.382 571.89C917.921 571.553 917.289 571.4 916.487 571.431C915.722 571.461 915.104 571.662 914.633 572.036C914.18 572.408 913.853 572.879 913.651 573.447C913.467 573.996 913.367 574.56 913.353 575.14C913.347 575.476 913.352 575.831 913.366 576.204C913.381 576.577 913.404 576.941 913.437 577.294C913.477 577.853 913.629 578.389 913.891 578.902C914.153 579.396 914.524 579.802 915.004 580.119C915.483 580.437 916.096 580.581 916.842 580.552Z" fill="#131A20"/>
<path d="M928.017 588.159C927.831 588.167 927.67 588.108 927.534 587.982C927.398 587.857 927.327 587.701 927.32 587.514L926.599 568.992C926.592 568.806 926.651 568.645 926.776 568.509C926.902 568.373 927.058 568.302 927.244 568.295L929.455 568.208C929.66 568.201 929.821 568.26 929.938 568.386C930.073 568.511 930.145 568.667 930.152 568.854L930.196 569.973C930.62 569.359 931.188 568.842 931.901 568.422C932.613 568.002 933.51 567.77 934.592 567.728C935.58 567.69 936.445 567.815 937.184 568.104C937.924 568.393 938.548 568.826 939.056 569.404C939.564 569.963 939.964 570.639 940.256 571.431C940.548 572.223 940.732 573.103 940.807 574.071C940.838 574.388 940.86 574.714 940.873 575.05C940.886 575.385 940.89 575.721 940.884 576.058C940.902 576.991 940.796 577.864 940.566 578.676C940.335 579.47 939.98 580.175 939.499 580.791C939.037 581.388 938.449 581.869 937.734 582.233C937.02 582.597 936.168 582.798 935.18 582.837C934.172 582.876 933.308 582.732 932.585 582.405C931.862 582.06 931.265 581.598 930.794 581.018L931.041 587.369C931.048 587.556 930.989 587.717 930.864 587.853C930.757 587.987 930.601 588.059 930.395 588.067L928.017 588.159ZM934.028 579.883C934.83 579.852 935.448 579.66 935.883 579.307C936.317 578.935 936.616 578.466 936.781 577.899C936.964 577.331 937.062 576.711 937.073 576.038C937.088 575.477 937.067 574.918 937.007 574.359C936.944 573.689 936.799 573.079 936.572 572.527C936.364 571.975 936.029 571.539 935.568 571.221C935.107 570.884 934.475 570.731 933.673 570.762C932.908 570.792 932.29 570.994 931.819 571.367C931.367 571.739 931.039 572.21 930.837 572.778C930.653 573.327 930.554 573.891 930.539 574.471C930.533 574.808 930.538 575.162 930.552 575.535C930.567 575.908 930.59 576.272 930.623 576.625C930.663 577.184 930.815 577.72 931.078 578.233C931.34 578.727 931.71 579.133 932.19 579.451C932.669 579.768 933.282 579.913 934.028 579.883Z" fill="#131A20"/>
<path d="M943.282 584.595C943.133 584.601 943 584.55 942.884 584.443C942.767 584.335 942.706 584.197 942.699 584.029C942.697 583.955 942.711 583.851 942.743 583.719L951.367 560.491C951.436 560.357 951.534 560.223 951.659 560.087C951.785 559.951 951.969 559.879 952.211 559.869L954.03 559.798C954.179 559.793 954.312 559.844 954.428 559.951C954.563 560.058 954.634 560.195 954.64 560.363C954.643 560.438 954.619 560.541 954.568 560.674L945.917 583.904C945.865 584.018 945.777 584.143 945.651 584.279C945.527 584.433 945.334 584.515 945.073 584.525L943.282 584.595Z" fill="#131A20"/>
<path d="M960.719 581.843C959.749 581.881 958.865 581.728 958.067 581.386C957.268 581.025 956.624 580.536 956.133 579.92C955.66 579.284 955.407 578.566 955.376 577.764C955.325 576.458 955.807 575.402 956.822 574.597C957.855 573.772 959.234 573.196 960.958 572.867L964.769 572.158L964.747 571.571C964.716 570.787 964.497 570.189 964.088 569.775C963.68 569.361 963 569.173 962.049 569.21C961.377 569.236 960.832 569.397 960.414 569.694C960.014 569.971 959.72 570.337 959.532 570.793C959.393 571.041 959.183 571.171 958.903 571.182L956.693 571.268C956.487 571.276 956.327 571.226 956.21 571.118C956.113 571.01 956.06 570.863 956.053 570.676C956.06 570.377 956.167 570.008 956.374 569.571C956.582 569.133 956.92 568.709 957.39 568.298C957.859 567.869 958.47 567.5 959.224 567.19C959.978 566.88 960.896 566.705 961.978 566.663C963.153 566.617 964.147 566.728 964.961 566.995C965.792 567.243 966.46 567.6 966.964 568.066C967.468 568.532 967.844 569.087 968.093 569.731C968.343 570.375 968.482 571.061 968.51 571.788L968.852 580.574C968.859 580.76 968.8 580.921 968.674 581.057C968.549 581.193 968.393 581.264 968.206 581.271L965.94 581.36C965.735 581.368 965.564 581.309 965.429 581.183C965.312 581.057 965.25 580.901 965.242 580.714L965.2 579.623C964.971 579.987 964.658 580.335 964.26 580.668C963.861 580.983 963.367 581.254 962.778 581.483C962.208 581.692 961.521 581.812 960.719 581.843ZM961.567 579.148C962.22 579.123 962.802 578.96 963.313 578.66C963.843 578.359 964.246 577.914 964.522 577.324C964.816 576.714 964.945 575.962 964.911 575.067L964.888 574.479L962.107 575.036C961.013 575.247 960.203 575.549 959.677 575.943C959.15 576.337 958.898 576.805 958.919 577.346C958.935 577.756 959.07 578.106 959.324 578.395C959.596 578.664 959.931 578.866 960.328 579C960.725 579.115 961.138 579.165 961.567 579.148Z" fill="#131A20"/>
<path d="M980.536 581.072C979.454 581.114 978.542 580.963 977.8 580.618C977.077 580.272 976.471 579.82 975.982 579.259L976.022 580.295C976.03 580.481 975.971 580.642 975.845 580.778C975.738 580.913 975.582 580.984 975.377 580.992L973.167 581.078C972.98 581.086 972.819 581.026 972.683 580.901C972.548 580.776 972.476 580.62 972.469 580.433L971.748 561.911C971.741 561.724 971.8 561.563 971.926 561.428C972.051 561.292 972.207 561.221 972.394 561.213L974.772 561.121C974.977 561.113 975.138 561.172 975.255 561.298C975.391 561.424 975.462 561.58 975.469 561.766L975.711 567.977C976.156 567.418 976.718 566.958 977.395 566.595C978.09 566.213 978.941 566.002 979.948 565.963C980.937 565.925 981.801 566.059 982.542 566.367C983.282 566.674 983.907 567.126 984.416 567.723C984.943 568.3 985.352 568.985 985.645 569.777C985.937 570.568 986.111 571.43 986.166 572.362C986.197 572.697 986.219 573.005 986.229 573.284C986.24 573.546 986.242 573.844 986.236 574.181C986.237 575.152 986.122 576.053 985.893 576.884C985.663 577.696 985.317 578.41 984.856 579.026C984.394 579.642 983.806 580.132 983.092 580.496C982.376 580.841 981.525 581.033 980.536 581.072ZM979.384 578.118C980.186 578.087 980.805 577.895 981.239 577.542C981.673 577.17 981.972 576.701 982.137 576.134C982.321 575.566 982.418 574.946 982.429 574.273C982.445 573.712 982.423 573.152 982.364 572.594C982.3 571.924 982.155 571.313 981.928 570.762C981.72 570.21 981.385 569.774 980.925 569.456C980.463 569.119 979.831 568.966 979.029 568.997C978.283 569.026 977.684 569.218 977.23 569.572C976.777 569.926 976.439 570.368 976.217 570.9C975.994 571.413 975.884 571.95 975.888 572.51C975.882 572.847 975.887 573.211 975.902 573.602C975.917 573.975 975.94 574.329 975.971 574.664C976.031 575.241 976.175 575.805 976.402 576.357C976.646 576.889 977.009 577.323 977.489 577.66C977.988 577.995 978.62 578.148 979.384 578.118Z" fill="#131A20"/>
<path d="M995.932 580.473C994.589 580.525 993.395 580.319 992.35 579.855C991.323 579.391 990.502 578.694 989.886 577.766C989.289 576.817 988.936 575.664 988.827 574.304C988.797 574.025 988.774 573.662 988.757 573.214C988.738 572.748 988.733 572.365 988.74 572.066C988.743 570.702 989.006 569.534 989.528 568.561C990.069 567.568 990.833 566.801 991.82 566.258C992.827 565.714 994.001 565.416 995.344 565.364C996.538 565.318 997.561 565.446 998.414 565.749C999.266 566.052 999.972 566.445 1000.53 566.927C1001.09 567.41 1001.52 567.926 1001.8 568.475C1002.1 569.005 1002.27 569.494 1002.3 569.941C1002.33 570.145 1002.27 570.316 1002.13 570.452C1002 570.569 1001.84 570.631 1001.66 570.638L999.196 570.734C999.009 570.742 998.858 570.701 998.743 570.612C998.646 570.522 998.547 570.386 998.447 570.203C998.138 569.468 997.745 568.96 997.267 568.68C996.807 568.38 996.222 568.244 995.513 568.272C994.581 568.308 993.846 568.635 993.31 569.254C992.792 569.853 992.538 570.788 992.55 572.058C992.541 572.768 992.566 573.421 992.627 574.016C992.714 575.302 993.039 576.223 993.603 576.78C994.185 577.337 994.942 577.597 995.875 577.561C996.602 577.532 997.184 577.36 997.62 577.044C998.056 576.71 998.399 576.164 998.649 575.407C998.735 575.217 998.823 575.073 998.913 574.977C999.021 574.879 999.168 574.826 999.355 574.819L1001.82 574.723C1002 574.716 1002.16 574.775 1002.3 574.901C1002.45 575.007 1002.53 575.163 1002.51 575.369C1002.51 575.705 1002.43 576.091 1002.28 576.527C1002.15 576.943 1001.91 577.382 1001.57 577.843C1001.26 578.285 1000.84 578.703 1000.33 579.096C999.826 579.471 999.203 579.785 998.465 580.038C997.747 580.29 996.902 580.435 995.932 580.473Z" fill="#131A20"/>
<path d="M1011.51 579.586C1011.31 579.594 1011.14 579.535 1011 579.41C1010.89 579.284 1010.82 579.127 1010.82 578.941L1010.25 564.448L1006.13 567.887C1005.96 568.005 1005.8 568.058 1005.63 568.046C1005.46 568.015 1005.31 567.919 1005.17 567.756L1003.93 566.291C1003.82 566.127 1003.76 565.952 1003.77 565.764C1003.8 565.577 1003.9 565.423 1004.06 565.305L1010.14 560.221C1010.25 560.123 1010.36 560.063 1010.47 560.04C1010.58 560.017 1010.7 560.003 1010.84 559.998L1013.3 559.902C1013.48 559.894 1013.65 559.954 1013.78 560.079C1013.92 560.205 1013.99 560.361 1014 560.547L1014.71 578.789C1014.71 578.976 1014.65 579.137 1014.53 579.273C1014.4 579.408 1014.25 579.48 1014.06 579.487L1011.51 579.586Z" fill="#131A20"/>
<path d="M1018.65 579.308C1018.46 579.316 1018.3 579.257 1018.16 579.131C1018.03 579.006 1017.95 578.85 1017.95 578.663L1017.89 577.236C1017.89 577.068 1017.92 576.871 1017.98 576.644C1018.06 576.398 1018.25 576.148 1018.54 575.894L1022.79 571.329C1023.98 570.311 1024.94 569.452 1025.66 568.752C1026.4 568.032 1026.92 567.385 1027.24 566.813C1027.57 566.221 1027.72 565.645 1027.7 565.085C1027.67 564.246 1027.41 563.574 1026.92 563.07C1026.46 562.565 1025.73 562.332 1024.74 562.371C1024.09 562.396 1023.54 562.557 1023.1 562.855C1022.67 563.133 1022.33 563.501 1022.08 563.959C1021.86 564.416 1021.71 564.917 1021.64 565.462C1021.61 565.706 1021.51 565.877 1021.35 565.977C1021.18 566.077 1021.02 566.13 1020.85 566.137L1018.36 566.234C1018.19 566.24 1018.05 566.19 1017.93 566.082C1017.82 565.975 1017.76 565.846 1017.75 565.697C1017.74 564.894 1017.88 564.114 1018.16 563.355C1018.45 562.578 1018.88 561.889 1019.46 561.287C1020.05 560.666 1020.78 560.162 1021.64 559.773C1022.5 559.385 1023.48 559.169 1024.58 559.126C1026.13 559.066 1027.42 559.277 1028.45 559.76C1029.49 560.243 1030.29 560.922 1030.83 561.798C1031.38 562.673 1031.68 563.67 1031.73 564.789C1031.76 565.665 1031.62 566.483 1031.32 567.243C1031.01 567.983 1030.55 568.711 1029.95 569.426C1029.34 570.122 1028.6 570.842 1027.73 571.585L1023.92 575.769L1031.89 575.458C1032.09 575.451 1032.26 575.51 1032.37 575.636C1032.51 575.743 1032.58 575.899 1032.59 576.104L1032.66 578.09C1032.67 578.277 1032.61 578.438 1032.49 578.574C1032.38 578.709 1032.22 578.78 1032.02 578.788L1018.65 579.308Z" fill="#131A20"/>
<path d="M1042.75 578.651C1041.44 578.701 1040.31 578.587 1039.35 578.307C1038.38 578.027 1037.57 577.647 1036.92 577.168C1036.28 576.67 1035.8 576.128 1035.46 575.544C1035.11 574.941 1034.92 574.341 1034.88 573.745C1034.87 573.577 1034.93 573.444 1035.03 573.347C1035.16 573.23 1035.31 573.168 1035.47 573.161L1037.99 573.063C1038.18 573.056 1038.34 573.087 1038.47 573.157C1038.61 573.226 1038.72 573.371 1038.83 573.591C1039.01 574.088 1039.3 574.479 1039.68 574.763C1040.09 575.046 1040.54 575.243 1041.05 575.354C1041.56 575.446 1042.09 575.482 1042.65 575.46C1043.77 575.416 1044.65 575.121 1045.28 574.573C1045.93 574.006 1046.24 573.228 1046.2 572.24C1046.16 571.251 1045.83 570.554 1045.19 570.149C1044.56 569.725 1043.69 569.535 1042.59 569.578L1039.71 569.69C1039.51 569.698 1039.34 569.649 1039.2 569.542C1039.07 569.416 1038.99 569.251 1038.99 569.046L1038.94 567.871C1038.93 567.684 1038.96 567.524 1039.03 567.391C1039.12 567.238 1039.21 567.113 1039.3 567.016L1044.12 561.925L1036.11 562.236C1035.91 562.244 1035.74 562.185 1035.6 562.06C1035.49 561.934 1035.42 561.777 1035.42 561.591L1035.34 559.744C1035.34 559.539 1035.39 559.369 1035.49 559.234C1035.62 559.098 1035.78 559.027 1035.99 559.019L1047.99 558.551C1048.2 558.544 1048.37 558.602 1048.5 558.728C1048.64 558.853 1048.71 559.019 1048.72 559.224L1048.78 560.902C1048.79 561.07 1048.76 561.221 1048.69 561.354C1048.62 561.488 1048.54 561.603 1048.45 561.7L1043.8 566.869L1044.14 566.884C1045.28 566.933 1046.3 567.154 1047.19 567.549C1048.1 567.925 1048.82 568.504 1049.33 569.287C1049.87 570.07 1050.16 571.067 1050.21 572.28C1050.26 573.548 1049.96 574.652 1049.33 575.592C1048.71 576.513 1047.83 577.239 1046.69 577.768C1045.56 578.298 1044.24 578.592 1042.75 578.651Z" fill="#131A20"/>
</svg>
